<svg xmlns="http://www.w3.org/2000/svg" width="115" height="115"><defs><style>.b{fill:#688fe0;stroke:#688fe0;stroke-width:.3px}</style></defs><g transform="translate(.02 -.45)"><circle cx="57.5" cy="57.5" r="57.5" transform="translate(-.02 .45)" fill="#f2f3f6"/><path class="b" d="M61.078 53.251a.875.875 0 00.779.477.871.871 0 00.4-.1 74.847 74.847 0 017.722-3.436.873.873 0 00.568-1.1.872.872 0 00-1.1-.57 74.863 74.863 0 00-7.988 3.546.873.873 0 00-.381 1.183zm.779-9.997a.872.872 0 00.4-.1 74.815 74.815 0 017.722-3.436.873.873 0 00.568-1.1.872.872 0 00-1.1-.57 74.909 74.909 0 00-7.988 3.546.874.874 0 00-.382 1.174.876.876 0 00.78.486z"/><path class="b" d="M82.803 41.508a.873.873 0 00-.873.873v34.038a2.622 2.622 0 01-2.618 2.618H58.365v-2.008a25.72 25.72 0 017.855-1.483 45.03 45.03 0 0112.817 1.7.878.878 0 00.785-.12.872.872 0 00.362-.708v-38.4a.872.872 0 00-.683-.852s-.684-.153-1.854-.367a.874.874 0 00-1.016.7.873.873 0 00.7 1.017c.446.082.82.154 1.107.212v36.533a49.29 49.29 0 00-12.219-1.458 27.418 27.418 0 00-8.694 1.672 20.442 20.442 0 00-7.889-1.672 58.824 58.824 0 00-13.092 1.495v-36.6a57.45 57.45 0 0113.092-1.548 18.922 18.922 0 016.982 1.438v34.346a.873.873 0 00.442.759.872.872 0 00.88-.011 99.9 99.9 0 0116.407-7.781.873.873 0 00.6-.828V29.289a.873.873 0 00-.376-.718.872.872 0 00-.8-.1 92.823 92.823 0 00-14.12 7.06.873.873 0 00-.277 1.2.872.872 0 001.2.278 93.3 93.3 0 0112.629-6.446v33.883a97.844 97.844 0 00-14.837 6.964v-33.4a.874.874 0 00-.483-.781 20.21 20.21 0 00-8.245-1.837 56.646 56.646 0 00-14.2 1.779.873.873 0 00-.633.839v38.4a.877.877 0 00.346.7.872.872 0 00.526.176.863.863 0 00.239-.034 56.065 56.065 0 0113.725-1.711 18.886 18.886 0 016.982 1.439v2.061H35.676a2.622 2.622 0 01-2.618-2.618V42.381a.873.873 0 00-.873-.873.873.873 0 00-.873.873v34.038a4.369 4.369 0 004.364 4.364h43.639a4.369 4.369 0 004.364-4.364V42.381a.873.873 0 00-.876-.873z"/><path class="b" d="M61.078 48.014a.875.875 0 00.779.477.871.871 0 00.4-.1 74.84 74.84 0 017.722-3.436.873.873 0 00.568-1.1.872.872 0 00-1.1-.57 74.864 74.864 0 00-7.988 3.546.873.873 0 00-.381 1.183zm0 10.474a.875.875 0 00.779.477.871.871 0 00.4-.1 74.827 74.827 0 017.722-3.436.873.873 0 00.568-1.1.872.872 0 00-1.1-.57 74.856 74.856 0 00-7.988 3.546.873.873 0 00-.381 1.183zm-8.623-13.874c-5.389-1.265-11.514.346-11.771.415a.873.873 0 00-.617 1.069.872.872 0 00.842.647.893.893 0 00.227-.029c.058-.017 5.955-1.568 10.921-.4a.875.875 0 001.049-.651.872.872 0 00-.651-1.051zm0 5.236c-5.389-1.264-11.514.346-11.771.415a.873.873 0 00-.617 1.069.872.872 0 00.842.646.894.894 0 00.227-.029c.058-.017 5.955-1.568 10.921-.4a.875.875 0 001.049-.651.872.872 0 00-.651-1.05zm8.623 13.874a.875.875 0 00.779.477.871.871 0 00.4-.1 74.859 74.859 0 017.722-3.436.873.873 0 00.568-1.1.872.872 0 00-1.1-.57 74.859 74.859 0 00-7.988 3.546.873.873 0 00-.381 1.183zm-8.623-8.637c-5.389-1.264-11.514.346-11.771.415a.873.873 0 00-.617 1.069.873.873 0 00.842.647.885.885 0 00.227-.03c.058-.017 5.955-1.568 10.921-.4a.875.875 0 001.049-.651.872.872 0 00-.651-1.05zm0 10.473c-5.389-1.265-11.514.346-11.771.415a.873.873 0 00-.617 1.069.873.873 0 00.842.647.885.885 0 00.227-.03c.058-.017 5.955-1.568 10.921-.4a.876.876 0 001.049-.651.872.872 0 00-.651-1.05zm0-5.237c-5.389-1.265-11.514.346-11.771.415a.873.873 0 00-.617 1.069.873.873 0 00.842.647.885.885 0 00.227-.03c.058-.017 5.955-1.568 10.921-.4a.875.875 0 001.049-.651.872.872 0 00-.651-1.05z"/></g></svg>