<svg xmlns="http://www.w3.org/2000/svg" width="115" height="115"><g transform="translate(-.115 -.45)"><circle cx="57.5" cy="57.5" r="57.5" transform="translate(.115 .45)" fill="#f2f3f6"/><path d="M88.44 54.397h-56.3a1.08 1.08 0 00-1.078 1.078v7.149a24.507 24.507 0 009.01 19.014l1.18.968a.291.291 0 01.09.323.292.292 0 01-.274.193h-8.545a6.892 6.892 0 01-4.838-2.175 1.071 1.071 0 00-.759-.325h-.013a1.072 1.072 0 00-.753.307 1.071 1.071 0 00-.325.759 1.071 1.071 0 00.307.766 9.055 9.055 0 006.38 2.824H78.56a9.044 9.044 0 006.446-2.893 1.079 1.079 0 00-.034-1.524 1.08 1.08 0 00-.753-.3h-.018a1.069 1.069 0 00-.753.332 6.883 6.883 0 01-4.888 2.227h-8.368a.291.291 0 01-.274-.193.291.291 0 01.089-.323l1.181-.968a24.61 24.61 0 007.748-11.253l.118-.353a.291.291 0 01.26-.2l.372-.02a10.325 10.325 0 009.832-10.254V55.47a1.071 1.071 0 00-.315-.762 1.072 1.072 0 00-.763-.311zm-10.4 8.227a22.514 22.514 0 01-12.882 20.29l-.11.052a.292.292 0 01-.124.028H46.331a.289.289 0 01-.124-.028l-.111-.052a22.513 22.513 0 01-12.882-20.29v-5.78a.291.291 0 01.291-.291h44.244a.291.291 0 01.291.291zm9.319-3.064a8.191 8.191 0 01-6.475 7.924l-.782.169a.293.293 0 01-.062.007.291.291 0 01-.2-.08.291.291 0 01-.087-.257l.127-.79a35.849 35.849 0 00.318-6.762v-2.927a.291.291 0 01.291-.291h6.582a.291.291 0 01.291.291zM54.732 34.451a1.059 1.059 0 00-.053 1.1 1.065 1.065 0 00.949.575 1.077 1.077 0 00.9-.48 6.584 6.584 0 000-7.324 4.434 4.434 0 010-4.932 1.071 1.071 0 00.16-.809 1.071 1.071 0 00-.459-.686 1.069 1.069 0 00-.6-.181 1.088 1.088 0 00-.214.021 1.072 1.072 0 00-.686.459 6.586 6.586 0 000 7.324 4.433 4.433 0 01.003 4.933zm12.257 11.235a1.057 1.057 0 00-.054 1.1 1.064 1.064 0 00.949.576 1.078 1.078 0 00.9-.48 6.585 6.585 0 000-7.324 4.434 4.434 0 010-4.932 1.08 1.08 0 00-.3-1.5 1.071 1.071 0 00-.6-.181 1.1 1.1 0 00-.214.021 1.07 1.07 0 00-.686.46 6.584 6.584 0 000 7.324 4.434 4.434 0 01.005 4.936zm-24.513 0a1.057 1.057 0 00-.053 1.1 1.064 1.064 0 00.949.575 1.079 1.079 0 00.9-.48 6.586 6.586 0 000-7.325 4.433 4.433 0 010-4.932 1.07 1.07 0 00.16-.809 1.072 1.072 0 00-.459-.686 1.073 1.073 0 00-.6-.181 1.094 1.094 0 00-.214.021 1.071 1.071 0 00-.686.459 6.584 6.584 0 000 7.324 4.433 4.433 0 01.003 4.934z" fill="#688fe0" stroke="#688fe0" stroke-width=".4"/></g></svg>