<svg xmlns="http://www.w3.org/2000/svg" width="115" height="115"><defs><style>.b{fill:#688fe0;stroke:#688fe0;stroke-width:.3px}</style></defs><g transform="translate(-.191 -.442)"><circle cx="57.5" cy="57.5" r="57.5" transform="translate(.191 .442)" fill="#f2f3f6"/><path class="b" d="M81.476 84.756H34.492a3.279 3.279 0 01-3.279-3.279V38.954a3.279 3.279 0 013.279-3.279h46.984a3.279 3.279 0 013.279 3.279v42.522a3.279 3.279 0 01-3.279 3.28zm-46.984-46.85a1.048 1.048 0 00-1.048 1.048v42.522a1.048 1.048 0 001.048 1.048h46.984a1.048 1.048 0 001.048-1.048V38.954a1.048 1.048 0 00-1.048-1.048z"/><path class="b" d="M83.64 49.019H32.328a1.116 1.116 0 01-1.115-1.115 1.116 1.116 0 011.115-1.115H83.64a1.116 1.116 0 011.115 1.115 1.116 1.116 0 01-1.115 1.115zm-40.158-6.652a1.116 1.116 0 01-1.115-1.115v-8.924a1.116 1.116 0 011.115-1.115 1.116 1.116 0 011.115 1.115v8.924a1.116 1.116 0 01-1.115 1.115zm29.003 0a1.116 1.116 0 01-1.115-1.115v-8.924a1.116 1.116 0 011.115-1.115 1.116 1.116 0 011.115 1.115v8.924a1.116 1.116 0 01-1.115 1.115zM52.286 63.694h-11.1a3.151 3.151 0 01-3.148-3.148v-4.791a3.152 3.152 0 013.148-3.148h11.1a3.152 3.152 0 013.148 3.148v4.791a3.152 3.152 0 01-3.148 3.148zm-11.1-9.215a1.277 1.277 0 00-1.275 1.275v4.791a1.276 1.276 0 001.275 1.275h11.1a1.276 1.276 0 001.275-1.275v-4.791a1.277 1.277 0 00-1.275-1.275zm11.1 23.565h-11.1a3.152 3.152 0 01-3.148-3.148v-4.792a3.152 3.152 0 013.148-3.148h11.1a3.152 3.152 0 013.148 3.148v4.79a3.152 3.152 0 01-3.148 3.15zm-11.1-9.215a1.276 1.276 0 00-1.275 1.275v4.79a1.277 1.277 0 001.275 1.275h11.1a1.277 1.277 0 001.275-1.275v-4.79a1.276 1.276 0 00-1.275-1.275zm32.985 9.215H63.076a3.152 3.152 0 01-3.148-3.148v-4.792a3.152 3.152 0 013.148-3.148h11.095a3.152 3.152 0 013.148 3.148v4.79a3.152 3.152 0 01-3.148 3.15zm-11.095-9.215a1.277 1.277 0 00-1.275 1.275v4.79a1.277 1.277 0 001.275 1.275h11.095a1.276 1.276 0 001.275-1.275v-4.79a1.276 1.276 0 00-1.275-1.275zm3.371-6.172a1.067 1.067 0 01-.757-.314l-3.934-3.934a1.07 1.07 0 010-1.514 1.07 1.07 0 011.514 0l3.177 3.177 7.645-7.645a1.07 1.07 0 011.514 0 1.07 1.07 0 010 1.514l-8.4 8.4a1.067 1.067 0 01-.759.316z"/></g></svg>