<svg xmlns="http://www.w3.org/2000/svg" width="265" height="219"><defs><clipPath id="a"><path fill="none" d="M0 0h265v219H0z"/></clipPath><style>.c{fill:#3b6fd9}</style></defs><g opacity=".305" clip-path="url(#a)"><circle class="c" cx="2.5" cy="2.5" r="2.5"/><circle class="c" cx="2.5" cy="2.5" r="2.5" transform="translate(15)"/><circle class="c" cx="2.5" cy="2.5" r="2.5" transform="translate(30)"/><circle class="c" cx="2.5" cy="2.5" r="2.5" transform="translate(45)"/><circle class="c" cx="2.5" cy="2.5" r="2.5" transform="translate(60)"/><circle class="c" cx="2.5" cy="2.5" r="2.5" transform="translate(75)"/><circle class="c" cx="2.5" cy="2.5" r="2.5" transform="translate(90)"/><circle class="c" cx="2.5" cy="2.5" r="2.5" transform="translate(105)"/><circle class="c" cx="2.5" cy="2.5" r="2.5" transform="translate(120)"/><circle class="c" cx="2.5" cy="2.5" r="2.5" transform="translate(135)"/><circle class="c" cx="2.5" cy="2.5" r="2.5" transform="translate(150)"/><circle class="c" cx="2.5" cy="2.5" r="2.5" transform="translate(165)"/><circle class="c" cx="2.5" cy="2.5" r="2.5" transform="translate(180)"/><circle class="c" cx="2.5" cy="2.5" r="2.5" transform="translate(195)"/><circle class="c" cx="2.5" cy="2.5" r="2.5" transform="translate(210)"/><circle class="c" cx="2.5" cy="2.5" r="2.5" transform="translate(225)"/><circle class="c" cx="2.5" cy="2.5" r="2.5" transform="translate(240)"/><circle class="c" cx="2.5" cy="2.5" r="2.5" transform="translate(255)"/><circle class="c" cx="2.5" cy="2.5" r="2.5" transform="translate(0 15)"/><circle class="c" cx="2.5" cy="2.5" r="2.5" transform="translate(15 15)"/><circle class="c" cx="2.5" cy="2.5" r="2.5" transform="translate(30 15)"/><circle class="c" cx="2.5" cy="2.5" r="2.5" transform="translate(45 15)"/><circle class="c" cx="2.5" cy="2.5" r="2.5" transform="translate(60 15)"/><circle class="c" cx="2.5" cy="2.5" r="2.5" transform="translate(75 15)"/><circle class="c" cx="2.5" cy="2.5" r="2.5" transform="translate(90 15)"/><circle class="c" cx="2.5" cy="2.5" r="2.5" transform="translate(105 15)"/><circle class="c" cx="2.5" cy="2.5" r="2.5" transform="translate(120 15)"/><circle class="c" cx="2.5" cy="2.5" r="2.5" transform="translate(135 15)"/><circle class="c" cx="2.5" cy="2.5" r="2.5" transform="translate(150 15)"/><circle class="c" cx="2.5" cy="2.5" r="2.5" transform="translate(165 15)"/><circle class="c" cx="2.5" cy="2.5" r="2.5" transform="translate(180 15)"/><circle class="c" cx="2.5" cy="2.5" r="2.5" transform="translate(195 15)"/><circle class="c" cx="2.5" cy="2.5" r="2.5" transform="translate(210 15)"/><circle class="c" cx="2.5" cy="2.5" r="2.5" transform="translate(225 15)"/><circle class="c" cx="2.5" cy="2.5" r="2.5" transform="translate(240 15)"/><circle class="c" cx="2.5" cy="2.5" r="2.5" transform="translate(255 15)"/><circle class="c" cx="2.5" cy="2.5" r="2.5" transform="translate(0 30)"/><circle class="c" cx="2.5" cy="2.5" r="2.5" transform="translate(15 30)"/><circle class="c" cx="2.5" cy="2.5" r="2.5" transform="translate(30 30)"/><circle class="c" cx="2.5" cy="2.5" r="2.5" transform="translate(45 30)"/><circle class="c" cx="2.5" cy="2.5" r="2.5" transform="translate(60 30)"/><circle class="c" cx="2.5" cy="2.5" r="2.5" transform="translate(75 30)"/><circle class="c" cx="2.5" cy="2.5" r="2.5" transform="translate(90 30)"/><circle class="c" cx="2.5" cy="2.5" r="2.5" transform="translate(105 30)"/><circle class="c" cx="2.5" cy="2.5" r="2.5" transform="translate(120 30)"/><circle class="c" cx="2.5" cy="2.5" r="2.5" transform="translate(135 30)"/><circle class="c" cx="2.5" cy="2.5" r="2.5" transform="translate(150 30)"/><circle class="c" cx="2.5" cy="2.5" r="2.5" transform="translate(165 30)"/><circle class="c" cx="2.5" cy="2.5" r="2.5" transform="translate(180 30)"/><circle class="c" cx="2.5" cy="2.5" r="2.5" transform="translate(195 30)"/><circle class="c" cx="2.5" cy="2.5" r="2.5" transform="translate(210 30)"/><circle class="c" cx="2.5" cy="2.5" r="2.5" transform="translate(225 30)"/><circle class="c" cx="2.5" cy="2.5" r="2.5" transform="translate(240 30)"/><circle class="c" cx="2.5" cy="2.5" r="2.5" transform="translate(255 30)"/><circle class="c" cx="2.5" cy="2.5" r="2.5" transform="translate(0 45)"/><circle class="c" cx="2.5" cy="2.5" r="2.5" transform="translate(15 45)"/><circle class="c" cx="2.5" cy="2.5" r="2.5" transform="translate(30 45)"/><circle class="c" cx="2.5" cy="2.5" r="2.5" transform="translate(45 45)"/><circle class="c" cx="2.5" cy="2.5" r="2.5" transform="translate(60 45)"/><circle class="c" cx="2.5" cy="2.5" r="2.5" transform="translate(75 45)"/><circle class="c" cx="2.5" cy="2.5" r="2.5" transform="translate(90 45)"/><circle class="c" cx="2.5" cy="2.5" r="2.5" transform="translate(105 45)"/><circle class="c" cx="2.5" cy="2.5" r="2.5" transform="translate(120 45)"/><circle class="c" cx="2.5" cy="2.5" r="2.5" transform="translate(135 45)"/><circle class="c" cx="2.5" cy="2.5" r="2.5" transform="translate(150 45)"/><circle class="c" cx="2.5" cy="2.5" r="2.5" transform="translate(165 45)"/><circle class="c" cx="2.5" cy="2.5" r="2.5" transform="translate(180 45)"/><circle class="c" cx="2.5" cy="2.5" r="2.5" transform="translate(195 45)"/><circle class="c" cx="2.5" cy="2.5" r="2.5" transform="translate(210 45)"/><circle class="c" cx="2.5" cy="2.5" r="2.5" transform="translate(225 45)"/><circle class="c" cx="2.5" cy="2.5" r="2.5" transform="translate(240 45)"/><circle class="c" cx="2.5" cy="2.5" r="2.5" transform="translate(255 45)"/><circle class="c" cx="2.5" cy="2.5" r="2.5" transform="translate(0 60)"/><circle class="c" cx="2.5" cy="2.5" r="2.5" transform="translate(15 60)"/><circle class="c" cx="2.5" cy="2.5" r="2.5" transform="translate(30 60)"/><circle class="c" cx="2.5" cy="2.5" r="2.5" transform="translate(45 60)"/><circle class="c" cx="2.5" cy="2.5" r="2.5" transform="translate(60 60)"/><circle class="c" cx="2.5" cy="2.5" r="2.5" transform="translate(75 60)"/><circle class="c" cx="2.5" cy="2.5" r="2.5" transform="translate(90 60)"/><circle class="c" cx="2.5" cy="2.5" r="2.5" transform="translate(105 60)"/><circle class="c" cx="2.5" cy="2.5" r="2.5" transform="translate(120 60)"/><circle class="c" cx="2.5" cy="2.5" r="2.5" transform="translate(135 60)"/><circle class="c" cx="2.5" cy="2.5" r="2.5" transform="translate(150 60)"/><circle class="c" cx="2.5" cy="2.5" r="2.5" transform="translate(165 60)"/><circle class="c" cx="2.5" cy="2.5" r="2.5" transform="translate(180 60)"/><circle class="c" cx="2.5" cy="2.5" r="2.5" transform="translate(195 60)"/><circle class="c" cx="2.5" cy="2.5" r="2.5" transform="translate(210 60)"/><circle class="c" cx="2.5" cy="2.5" r="2.5" transform="translate(225 60)"/><circle class="c" cx="2.5" cy="2.5" r="2.5" transform="translate(240 60)"/><circle class="c" cx="2.5" cy="2.5" r="2.5" transform="translate(255 60)"/><circle class="c" cx="2.5" cy="2.5" r="2.5" transform="translate(0 75)"/><circle class="c" cx="2.5" cy="2.5" r="2.5" transform="translate(15 75)"/><circle class="c" cx="2.5" cy="2.5" r="2.5" transform="translate(30 75)"/><circle class="c" cx="2.5" cy="2.5" r="2.5" transform="translate(45 75)"/><circle class="c" cx="2.5" cy="2.5" r="2.5" transform="translate(60 75)"/><circle class="c" cx="2.5" cy="2.5" r="2.5" transform="translate(75 75)"/><circle class="c" cx="2.5" cy="2.5" r="2.5" transform="translate(90 75)"/><circle class="c" cx="2.5" cy="2.5" r="2.5" transform="translate(105 75)"/><circle class="c" cx="2.5" cy="2.5" r="2.5" transform="translate(120 75)"/><circle class="c" cx="2.5" cy="2.5" r="2.5" transform="translate(135 75)"/><circle class="c" cx="2.5" cy="2.5" r="2.5" transform="translate(150 75)"/><circle class="c" cx="2.5" cy="2.5" r="2.5" transform="translate(165 75)"/><circle class="c" cx="2.5" cy="2.5" r="2.5" transform="translate(180 75)"/><circle class="c" cx="2.5" cy="2.5" r="2.5" transform="translate(195 75)"/><circle class="c" cx="2.5" cy="2.5" r="2.5" transform="translate(210 75)"/><circle class="c" cx="2.5" cy="2.5" r="2.5" transform="translate(225 75)"/><circle class="c" cx="2.5" cy="2.5" r="2.5" transform="translate(240 75)"/><circle class="c" cx="2.5" cy="2.5" r="2.5" transform="translate(255 75)"/><circle class="c" cx="2.5" cy="2.5" r="2.5" transform="translate(0 90)"/><circle class="c" cx="2.5" cy="2.5" r="2.5" transform="translate(15 90)"/><circle class="c" cx="2.5" cy="2.5" r="2.5" transform="translate(30 90)"/><circle class="c" cx="2.5" cy="2.5" r="2.5" transform="translate(45 90)"/><circle class="c" cx="2.5" cy="2.5" r="2.5" transform="translate(60 90)"/><circle class="c" cx="2.5" cy="2.5" r="2.5" transform="translate(75 90)"/><circle class="c" cx="2.5" cy="2.5" r="2.5" transform="translate(90 90)"/><circle class="c" cx="2.5" cy="2.5" r="2.5" transform="translate(105 90)"/><circle class="c" cx="2.5" cy="2.5" r="2.5" transform="translate(120 90)"/><circle class="c" cx="2.5" cy="2.5" r="2.5" transform="translate(135 90)"/><circle class="c" cx="2.5" cy="2.5" r="2.5" transform="translate(150 90)"/><circle class="c" cx="2.5" cy="2.5" r="2.5" transform="translate(165 90)"/><circle class="c" cx="2.5" cy="2.5" r="2.5" transform="translate(180 90)"/><circle class="c" cx="2.5" cy="2.5" r="2.5" transform="translate(195 90)"/><circle class="c" cx="2.5" cy="2.5" r="2.5" transform="translate(210 90)"/><circle class="c" cx="2.5" cy="2.5" r="2.5" transform="translate(225 90)"/><circle class="c" cx="2.5" cy="2.5" r="2.5" transform="translate(240 90)"/><circle class="c" cx="2.5" cy="2.5" r="2.5" transform="translate(255 90)"/><circle class="c" cx="2.5" cy="2.5" r="2.5" transform="translate(0 105)"/><circle class="c" cx="2.5" cy="2.5" r="2.5" transform="translate(15 105)"/><circle class="c" cx="2.5" cy="2.5" r="2.5" transform="translate(30 105)"/><circle class="c" cx="2.5" cy="2.5" r="2.5" transform="translate(45 105)"/><circle class="c" cx="2.5" cy="2.5" r="2.5" transform="translate(60 105)"/><circle class="c" cx="2.5" cy="2.5" r="2.5" transform="translate(75 105)"/><circle class="c" cx="2.5" cy="2.5" r="2.5" transform="translate(90 105)"/><circle class="c" cx="2.5" cy="2.5" r="2.5" transform="translate(105 105)"/><circle class="c" cx="2.5" cy="2.5" r="2.5" transform="translate(120 105)"/><circle class="c" cx="2.5" cy="2.5" r="2.5" transform="translate(135 105)"/><circle class="c" cx="2.5" cy="2.5" r="2.5" transform="translate(150 105)"/><circle class="c" cx="2.5" cy="2.5" r="2.5" transform="translate(165 105)"/><circle class="c" cx="2.5" cy="2.5" r="2.5" transform="translate(180 105)"/><circle class="c" cx="2.5" cy="2.5" r="2.5" transform="translate(195 105)"/><circle class="c" cx="2.5" cy="2.5" r="2.5" transform="translate(210 105)"/><circle class="c" cx="2.5" cy="2.5" r="2.5" transform="translate(225 105)"/><circle class="c" cx="2.5" cy="2.5" r="2.5" transform="translate(240 105)"/><circle class="c" cx="2.5" cy="2.5" r="2.5" transform="translate(255 105)"/><circle class="c" cx="2.5" cy="2.5" r="2.5" transform="translate(0 120)"/><circle class="c" cx="2.5" cy="2.5" r="2.5" transform="translate(15 120)"/><circle class="c" cx="2.5" cy="2.5" r="2.5" transform="translate(30 120)"/><circle class="c" cx="2.5" cy="2.5" r="2.5" transform="translate(45 120)"/><circle class="c" cx="2.5" cy="2.5" r="2.5" transform="translate(60 120)"/><circle class="c" cx="2.5" cy="2.5" r="2.5" transform="translate(75 120)"/><circle class="c" cx="2.5" cy="2.5" r="2.5" transform="translate(90 120)"/><circle class="c" cx="2.5" cy="2.5" r="2.5" transform="translate(105 120)"/><circle class="c" cx="2.5" cy="2.5" r="2.5" transform="translate(120 120)"/><circle class="c" cx="2.5" cy="2.5" r="2.5" transform="translate(135 120)"/><circle class="c" cx="2.5" cy="2.5" r="2.5" transform="translate(150 120)"/><circle class="c" cx="2.5" cy="2.5" r="2.5" transform="translate(165 120)"/><circle class="c" cx="2.5" cy="2.5" r="2.5" transform="translate(180 120)"/><circle class="c" cx="2.5" cy="2.5" r="2.5" transform="translate(195 120)"/><circle class="c" cx="2.5" cy="2.5" r="2.5" transform="translate(210 120)"/><circle class="c" cx="2.5" cy="2.5" r="2.5" transform="translate(225 120)"/><circle class="c" cx="2.5" cy="2.5" r="2.5" transform="translate(240 120)"/><circle class="c" cx="2.5" cy="2.5" r="2.5" transform="translate(255 120)"/><circle class="c" cx="2.5" cy="2.5" r="2.5" transform="translate(0 135)"/><circle class="c" cx="2.5" cy="2.5" r="2.5" transform="translate(15 135)"/><circle class="c" cx="2.5" cy="2.5" r="2.5" transform="translate(30 135)"/><circle class="c" cx="2.5" cy="2.5" r="2.5" transform="translate(45 135)"/><circle class="c" cx="2.5" cy="2.5" r="2.5" transform="translate(60 135)"/><circle class="c" cx="2.5" cy="2.5" r="2.5" transform="translate(75 135)"/><circle class="c" cx="2.5" cy="2.5" r="2.5" transform="translate(90 135)"/><circle class="c" cx="2.5" cy="2.5" r="2.5" transform="translate(105 135)"/><circle class="c" cx="2.5" cy="2.5" r="2.5" transform="translate(120 135)"/><circle class="c" cx="2.5" cy="2.5" r="2.5" transform="translate(135 135)"/><circle class="c" cx="2.5" cy="2.5" r="2.5" transform="translate(150 135)"/><circle class="c" cx="2.5" cy="2.5" r="2.5" transform="translate(165 135)"/><circle class="c" cx="2.5" cy="2.5" r="2.5" transform="translate(180 135)"/><circle class="c" cx="2.5" cy="2.5" r="2.5" transform="translate(195 135)"/><circle class="c" cx="2.5" cy="2.5" r="2.5" transform="translate(210 135)"/><circle class="c" cx="2.5" cy="2.5" r="2.5" transform="translate(225 135)"/><circle class="c" cx="2.5" cy="2.5" r="2.5" transform="translate(240 135)"/><circle class="c" cx="2.5" cy="2.5" r="2.5" transform="translate(255 135)"/><circle class="c" cx="2.5" cy="2.5" r="2.5" transform="translate(0 150)"/><circle class="c" cx="2.5" cy="2.5" r="2.5" transform="translate(15 150)"/><circle class="c" cx="2.5" cy="2.5" r="2.5" transform="translate(30 150)"/><circle class="c" cx="2.5" cy="2.5" r="2.5" transform="translate(45 150)"/><circle class="c" cx="2.5" cy="2.5" r="2.5" transform="translate(60 150)"/><circle class="c" cx="2.5" cy="2.5" r="2.5" transform="translate(75 150)"/><circle class="c" cx="2.5" cy="2.5" r="2.5" transform="translate(90 150)"/><circle class="c" cx="2.5" cy="2.5" r="2.5" transform="translate(105 150)"/><circle class="c" cx="2.5" cy="2.5" r="2.5" transform="translate(120 150)"/><circle class="c" cx="2.5" cy="2.5" r="2.5" transform="translate(135 150)"/><circle class="c" cx="2.5" cy="2.5" r="2.5" transform="translate(150 150)"/><circle class="c" cx="2.5" cy="2.5" r="2.5" transform="translate(165 150)"/><circle class="c" cx="2.5" cy="2.5" r="2.5" transform="translate(180 150)"/><circle class="c" cx="2.5" cy="2.5" r="2.5" transform="translate(195 150)"/><circle class="c" cx="2.5" cy="2.5" r="2.5" transform="translate(210 150)"/><circle class="c" cx="2.5" cy="2.5" r="2.5" transform="translate(225 150)"/><circle class="c" cx="2.5" cy="2.5" r="2.5" transform="translate(240 150)"/><circle class="c" cx="2.5" cy="2.5" r="2.5" transform="translate(255 150)"/><circle class="c" cx="2.5" cy="2.5" r="2.5" transform="translate(0 165)"/><circle class="c" cx="2.5" cy="2.5" r="2.5" transform="translate(15 165)"/><circle class="c" cx="2.5" cy="2.5" r="2.5" transform="translate(30 165)"/><circle class="c" cx="2.5" cy="2.5" r="2.5" transform="translate(45 165)"/><circle class="c" cx="2.5" cy="2.5" r="2.5" transform="translate(60 165)"/><circle class="c" cx="2.5" cy="2.5" r="2.5" transform="translate(75 165)"/><circle class="c" cx="2.5" cy="2.5" r="2.5" transform="translate(90 165)"/><circle class="c" cx="2.5" cy="2.5" r="2.5" transform="translate(105 165)"/><circle class="c" cx="2.5" cy="2.5" r="2.5" transform="translate(120 165)"/><circle class="c" cx="2.5" cy="2.5" r="2.5" transform="translate(135 165)"/><circle class="c" cx="2.5" cy="2.5" r="2.5" transform="translate(150 165)"/><circle class="c" cx="2.5" cy="2.5" r="2.5" transform="translate(165 165)"/><circle class="c" cx="2.5" cy="2.5" r="2.5" transform="translate(180 165)"/><circle class="c" cx="2.5" cy="2.5" r="2.5" transform="translate(195 165)"/><circle class="c" cx="2.5" cy="2.5" r="2.5" transform="translate(210 165)"/><circle class="c" cx="2.5" cy="2.5" r="2.5" transform="translate(225 165)"/><circle class="c" cx="2.5" cy="2.5" r="2.5" transform="translate(240 165)"/><circle class="c" cx="2.5" cy="2.5" r="2.5" transform="translate(255 165)"/><circle class="c" cx="2.5" cy="2.5" r="2.5" transform="translate(0 180)"/><circle class="c" cx="2.5" cy="2.5" r="2.5" transform="translate(15 180)"/><circle class="c" cx="2.5" cy="2.5" r="2.5" transform="translate(30 180)"/><circle class="c" cx="2.5" cy="2.5" r="2.5" transform="translate(45 180)"/><circle class="c" cx="2.5" cy="2.5" r="2.5" transform="translate(60 180)"/><circle class="c" cx="2.5" cy="2.5" r="2.5" transform="translate(75 180)"/><circle class="c" cx="2.5" cy="2.5" r="2.5" transform="translate(90 180)"/><circle class="c" cx="2.5" cy="2.5" r="2.5" transform="translate(105 180)"/><circle class="c" cx="2.5" cy="2.5" r="2.5" transform="translate(120 180)"/><circle class="c" cx="2.5" cy="2.5" r="2.5" transform="translate(135 180)"/><circle class="c" cx="2.5" cy="2.5" r="2.5" transform="translate(150 180)"/><circle class="c" cx="2.5" cy="2.5" r="2.5" transform="translate(165 180)"/><circle class="c" cx="2.5" cy="2.5" r="2.5" transform="translate(180 180)"/><circle class="c" cx="2.5" cy="2.5" r="2.5" transform="translate(195 180)"/><circle class="c" cx="2.5" cy="2.5" r="2.5" transform="translate(210 180)"/><circle class="c" cx="2.5" cy="2.5" r="2.5" transform="translate(225 180)"/><circle class="c" cx="2.5" cy="2.5" r="2.5" transform="translate(240 180)"/><circle class="c" cx="2.5" cy="2.5" r="2.5" transform="translate(255 180)"/><circle class="c" cx="2.5" cy="2.5" r="2.5" transform="translate(0 195)"/><circle class="c" cx="2.5" cy="2.5" r="2.5" transform="translate(15 195)"/><circle class="c" cx="2.5" cy="2.5" r="2.5" transform="translate(30 195)"/><circle class="c" cx="2.5" cy="2.5" r="2.5" transform="translate(45 195)"/><circle class="c" cx="2.5" cy="2.5" r="2.5" transform="translate(60 195)"/><circle class="c" cx="2.5" cy="2.5" r="2.5" transform="translate(75 195)"/><circle class="c" cx="2.5" cy="2.5" r="2.5" transform="translate(90 195)"/><circle class="c" cx="2.5" cy="2.5" r="2.5" transform="translate(105 195)"/><circle class="c" cx="2.5" cy="2.5" r="2.5" transform="translate(120 195)"/><circle class="c" cx="2.5" cy="2.5" r="2.5" transform="translate(135 195)"/><circle class="c" cx="2.5" cy="2.5" r="2.5" transform="translate(150 195)"/><circle class="c" cx="2.5" cy="2.5" r="2.5" transform="translate(165 195)"/><circle class="c" cx="2.5" cy="2.5" r="2.5" transform="translate(180 195)"/><circle class="c" cx="2.5" cy="2.5" r="2.5" transform="translate(195 195)"/><circle class="c" cx="2.5" cy="2.5" r="2.5" transform="translate(210 195)"/><circle class="c" cx="2.5" cy="2.5" r="2.5" transform="translate(225 195)"/><circle class="c" cx="2.5" cy="2.5" r="2.5" transform="translate(240 195)"/><circle class="c" cx="2.5" cy="2.5" r="2.5" transform="translate(255 195)"/><circle class="c" cx="2.5" cy="2.5" r="2.5" transform="translate(0 210)"/><circle class="c" cx="2.5" cy="2.5" r="2.5" transform="translate(15 210)"/><circle class="c" cx="2.5" cy="2.5" r="2.5" transform="translate(30 210)"/><circle class="c" cx="2.5" cy="2.5" r="2.5" transform="translate(45 210)"/><circle class="c" cx="2.5" cy="2.5" r="2.5" transform="translate(60 210)"/><circle class="c" cx="2.5" cy="2.5" r="2.5" transform="translate(75 210)"/><circle class="c" cx="2.5" cy="2.5" r="2.5" transform="translate(90 210)"/><circle class="c" cx="2.5" cy="2.5" r="2.5" transform="translate(105 210)"/><circle class="c" cx="2.5" cy="2.5" r="2.5" transform="translate(120 210)"/><circle class="c" cx="2.5" cy="2.5" r="2.5" transform="translate(135 210)"/><circle class="c" cx="2.5" cy="2.5" r="2.5" transform="translate(150 210)"/><circle class="c" cx="2.5" cy="2.5" r="2.5" transform="translate(165 210)"/><circle class="c" cx="2.5" cy="2.5" r="2.5" transform="translate(180 210)"/><circle class="c" cx="2.5" cy="2.5" r="2.5" transform="translate(195 210)"/><circle class="c" cx="2.5" cy="2.5" r="2.5" transform="translate(210 210)"/><circle class="c" cx="2.5" cy="2.5" r="2.5" transform="translate(225 210)"/><circle class="c" cx="2.5" cy="2.5" r="2.5" transform="translate(240 210)"/><circle class="c" cx="2.5" cy="2.5" r="2.5" transform="translate(255 210)"/></g></svg>