<svg xmlns="http://www.w3.org/2000/svg" width="115" height="115"><defs><style>.b{fill:#688fe0;stroke:#688fe0;stroke-width:.4px}</style></defs><g transform="translate(-.289 -.442)"><circle cx="57.5" cy="57.5" r="57.5" transform="translate(.289 .442)" fill="#f2f3f6"/><path class="b" d="M38.296 84.984h-.157a2.008 2.008 0 01-2.17-2.177V35.952a3.2 3.2 0 013.2-3.2h8.043a4.666 4.666 0 011.7.25.978.978 0 01.381.257.983.983 0 01.244.348l.095.226c.074.175.148.35.218.527.508 1.281.924 1.577 2.224 1.584 3.217.018 6.689.018 10.927 0a2.118 2.118 0 001.769-.632 2.219 2.219 0 00.458-.937 2 2 0 012.139-1.618h2c2.449 0 4.982-.007 7.475.009a2.089 2.089 0 012.266 2.206c.007.11.006.22 0 .329v47.516a2.008 2.008 0 01-2.173 2.173H38.306zm-.337-2a1.779 1.779 0 00.259.025h38.624a1.8 1.8 0 00.258-.025 1.884 1.884 0 00.025-.259v-47.64a1.345 1.345 0 00-.052-.332 1.135 1.135 0 00-.26-.025c-2.485-.016-5.014-.012-7.459-.009h-2a.964.964 0 00-.2.017.653.653 0 00-.022.077 4.2 4.2 0 01-.875 1.766 4.029 4.029 0 01-3.262 1.328c-4.245.018-7.724.018-10.946 0a3.835 3.835 0 01-4.044-2.828 13.059 13.059 0 00-.134-.325 4.276 4.276 0 00-.669-.039q-2.991.006-5.983 0h-2.05a1.233 1.233 0 00-1.231 1.232v46.776a1.861 1.861 0 00.021.265zm29.217-48.278z"/><path class="b" d="M57.712 70.849H44.507c-.186 0-.371-.009-.556-.019l-.222-.011a.985.985 0 01-.943-1.025.977.977 0 011.025-.943l.245.012c.15.008.3.017.451.017h25.436c.3 0 .6-.009.9-.018l.433-.012a.982.982 0 011.007.962.985.985 0 01-.962 1.007l-.42.011c-.318.01-.635.018-.953.019zm13.579 5.808h-.083l-.138-.014a1.47 1.47 0 00-.15-.012H44.135a1.471 1.471 0 00-.148.012l-.138.014a.993.993 0 01-1.064-.9.985.985 0 01.9-1.064l.095-.009a3.324 3.324 0 01.354-.023h26.79a3.337 3.337 0 01.356.023l.095.009a.985.985 0 01.9 1.064.985.985 0 01-.984.9zm-4.849-41.753a.985.985 0 01-.854-.492c-.074-.128-.145-.257-.216-.386a8.036 8.036 0 00-.421-.709 1.679 1.679 0 00-1.461-.807c-3.953-.007-7.962-.007-11.916 0a1.678 1.678 0 00-1.461.807 7.977 7.977 0 00-.421.709c-.071.13-.142.259-.216.386a.985.985 0 01-1.346.359.985.985 0 01-.359-1.346c.067-.115.131-.232.2-.349a9.665 9.665 0 01.53-.884 3.636 3.636 0 013.075-1.652c3.956-.007 7.967-.007 11.923 0a3.637 3.637 0 013.075 1.652 9.725 9.725 0 01.53.884c.064.117.129.234.2.349a.985.985 0 01-.359 1.346.982.982 0 01-.503.133zm-8.884 28.698h-2.426a2.155 2.155 0 01-2.332-2.329v-2.776a.659.659 0 00-.113-.438.657.657 0 00-.437-.113h-2.776a2.155 2.155 0 01-2.329-2.332v-1.685c0-1.015.008-2.065-.014-3.09a2.323 2.323 0 01.676-1.735 2.271 2.271 0 011.713-.631c.674.028 1.344.02 2.052.012l.6-.006c.513 0 .617-.107.619-.614v-2.643a2.121 2.121 0 011.73-2.349 1.018 1.018 0 01.334-.046h5.068a2.155 2.155 0 012.333 2.329v2.648c0 .59.083.672.677.674.242 0 .483 0 .725.006.647.007 1.257.014 1.871-.013a2.265 2.265 0 011.712.629 2.325 2.325 0 01.677 1.736 122.316 122.316 0 00-.014 3.086v1.689a2.156 2.156 0 01-2.329 2.332h-2.776a.658.658 0 00-.438.113.66.66 0 00-.113.439v2.771a2.155 2.155 0 01-2.332 2.329q-1.171.007-2.358.007zm-2.734-2.021a.738.738 0 00.315.047q2.393.008 4.786 0a.747.747 0 00.327-.049 1 1 0 00.042-.323v-2.755a2.5 2.5 0 01.689-1.832 2.5 2.5 0 011.831-.69h2.76a.746.746 0 00.332-.051 1 1 0 00.04-.318v-1.674c0-1.026-.008-2.087.014-3.137a.387.387 0 00-.085-.286.349.349 0 00-.25-.069c-.667.029-1.333.022-1.977.015-.237 0-.473 0-.71-.006a2.411 2.411 0 01-2.641-2.643v-2.637a.751.751 0 00-.051-.332 1.459 1.459 0 00-.318-.04q-1.766-.006-3.531 0h-1.4a1.522 1.522 0 00-.2.083 1.994 1.994 0 00-.022.347v2.642a2.407 2.407 0 01-2.575 2.578l-.594.006c-.7.008-1.431.017-2.158-.014a.348.348 0 00-.251.07.386.386 0 00-.085.285c.023 1.051.019 2.113.014 3.14v1.67a.752.752 0 00.049.327.991.991 0 00.323.042h2.76a2.492 2.492 0 011.831.69 2.491 2.491 0 01.689 1.832v2.761a.662.662 0 00.053.325z"/></g></svg>