<svg xmlns="http://www.w3.org/2000/svg" width="21.521" height="21.301"><g data-name="Group 2193"><g data-name="Group 2192"><g data-name="Group 2191"><g data-name="Group 2190"><path data-name="Path 1656" d="M14.522 15.567h-1.674a.232.232 0 00-.23.2l-.677 4.292a.139.139 0 00.138.161h.859a.163.163 0 00.161-.137l.192-1.217a.233.233 0 01.23-.2h.53a1.719 1.719 0 001.905-1.591 1.289 1.289 0 00-.214-1.08 1.553 1.553 0 00-1.22-.428zm.193 1.568c-.091.6-.55.6-.994.6h-.253l.177-1.122a.14.14 0 01.138-.118h.116c.3 0 .588 0 .735.172a.559.559 0 01.081.468z" fill="#008ad8"/><path data-name="Path 1657" d="M2.578 15.567H.908a.233.233 0 00-.23.2l-.677 4.292a.14.14 0 00.138.161h.8a.233.233 0 00.23-.2l.183-1.158a.233.233 0 01.23-.2h.53a1.719 1.719 0 001.905-1.591 1.289 1.289 0 00-.214-1.08 1.553 1.553 0 00-1.225-.424zm.193 1.568c-.091.6-.55.6-.994.6h-.253l.177-1.122a.14.14 0 01.138-.118h.116c.3 0 .588 0 .735.172a.559.559 0 01.088.468z" fill="#002575"/><path data-name="Path 1658" d="M7.586 17.115h-.8a.139.139 0 00-.138.118l-.035.224-.056-.081a1.141 1.141 0 00-.947-.336 1.843 1.843 0 00-1.789 1.612 1.513 1.513 0 00.3 1.231 1.254 1.254 0 001.009.408 1.535 1.535 0 001.11-.459l-.036.223a.14.14 0 00.138.161h.722a.233.233 0 00.23-.2l.433-2.744a.139.139 0 00-.141-.157zm-1.117 1.56a.894.894 0 01-.9.765.621.621 0 01-.664-.779.9.9 0 01.9-.771.675.675 0 01.534.218.69.69 0 01.133.568z" fill="#002575"/><path data-name="Path 1659" d="M19.526 17.115h-.8a.139.139 0 00-.138.118l-.035.224-.056-.081a1.141 1.141 0 00-.947-.336 1.843 1.843 0 00-1.789 1.612 1.513 1.513 0 00.3 1.231 1.255 1.255 0 001.01.408 1.535 1.535 0 001.11-.459l-.036.223a.14.14 0 00.138.161h.722a.233.233 0 00.23-.2l.433-2.744a.139.139 0 00-.142-.157zm-1.117 1.56a.894.894 0 01-.9.765.621.621 0 01-.664-.779.9.9 0 01.9-.771.675.675 0 01.534.218.69.69 0 01.13.568z" fill="#008ad8"/><path data-name="Path 1660" d="M11.855 17.115h-.806a.233.233 0 00-.192.1l-1.111 1.637-.471-1.573a.233.233 0 00-.223-.166H8.26a.14.14 0 00-.132.185l.887 2.6-.834 1.177a.14.14 0 00.114.22h.8a.232.232 0 00.191-.1l2.679-3.867a.14.14 0 00-.11-.213z" fill="#002575"/><path data-name="Path 1661" d="M20.471 15.685l-.687 4.371a.14.14 0 00.138.161h.691a.233.233 0 00.23-.2l.677-4.292a.14.14 0 00-.138-.161h-.773a.139.139 0 00-.138.121z" fill="#008ad8"/></g></g></g></g><g data-name="Group 2194"><path data-name="Path 1662" d="M15.979 3.529a2.759 2.759 0 00-.586-2.481A4.288 4.288 0 0012.1.001H7.783a.618.618 0 00-.61.521l-1.8 11.4a.371.371 0 00.366.428h2.665l-.184 1.166a.324.324 0 00.32.375h2.246a.54.54 0 00.534-.456l.022-.114.423-2.683.027-.148a.54.54 0 01.534-.456h.336c2.176 0 3.88-.884 4.378-3.441a2.929 2.929 0 00-.45-2.587 2.14 2.14 0 00-.615-.474" fill="#008ad8"/><path data-name="Path 1663" d="M15.979 3.529a2.759 2.759 0 00-.586-2.481A4.288 4.288 0 0012.1.001H7.783a.618.618 0 00-.61.521l-1.8 11.4a.371.371 0 00.366.428h2.665l.669-4.245-.021.133a.615.615 0 01.608-.521h1.267c2.488 0 4.436-1.011 5-3.933.017-.087.031-.17.044-.253" fill="#001a57"/><path data-name="Path 1664" d="M9.796 3.543a.54.54 0 01.534-.456h3.384a7.047 7.047 0 011.116.081q.146.024.285.054t.269.069l.128.04a3.062 3.062 0 01.468.2 2.759 2.759 0 00-.586-2.481A4.288 4.288 0 0012.101.003H7.784a.618.618 0 00-.61.521l-1.8 11.4a.371.371 0 00.366.428h2.665l.669-4.245z" fill="#002575"/></g></svg>