<svg xmlns="http://www.w3.org/2000/svg" width="46.12" height="14.962"><g data-name="Group 2198" fill="#0055a5"><path data-name="Path 5785" d="M19.993 14.713H16.23L18.582.258h3.763z"/><path data-name="Path 5786" d="M13.064.259l-3.588 9.942-.425-2.141-1.266-6.5A1.611 1.611 0 006 .26H.069l-.07.245a14.049 14.049 0 013.937 1.653l3.27 12.557h3.921L17.114.261z"/><path data-name="Path 5787" d="M42.664 14.713h3.458L43.109.259h-3.026a1.729 1.729 0 00-1.737 1.077l-5.614 13.377h3.922l.785-2.147h4.783zM38.522 9.6l1.977-5.409L41.611 9.6z"/><path data-name="Path 5788" d="M33.026 3.735l.537-3.1a10.863 10.863 0 00-3.385-.63c-1.868 0-6.3.817-6.3 4.785 0 3.735 5.205 3.781 5.205 5.742s-4.668 1.61-6.209.373l-.56 3.245a10.544 10.544 0 004.249.817c2.567 0 6.442-1.33 6.442-4.949 0-3.758-5.252-4.108-5.252-5.742s3.663-1.429 5.273-.541z"/></g><path data-name="Path 5789" d="M9.052 8.06l-1.266-6.5A1.611 1.611 0 006.001.26H.07L0 .505a14.589 14.589 0 015.586 2.8A11.274 11.274 0 019.052 8.06z" fill="#fc9220"/></svg>