<svg xmlns="http://www.w3.org/2000/svg" width="116" height="115" viewBox="0 0 116 115"><defs><style>.a{fill:#f2f3f6;}.b{fill:#688fe0;stroke:#688fe0;stroke-width:0.3px;}</style></defs><g transform="translate(0.443 -0.442)"><ellipse class="a" cx="58" cy="57.5" rx="58" ry="57.5" transform="translate(-0.443 0.442)"/><g transform="translate(33.83 30.452)"><g transform="translate(0 0)"><path class="b" d="M-2031.518,122.684a12.368,12.368,0,0,0-9.157-8.987,14.033,14.033,0,0,0-3.423-.425,10.892,10.892,0,0,0-7.856,2.965,3.429,3.429,0,0,1-.518.447l-.892.625.108-1.083a11.847,11.847,0,0,1,3.825-7.589,11.835,11.835,0,0,1,7.986-3.1,1.126,1.126,0,0,0,1.125-1.125,1.126,1.126,0,0,0-1.125-1.125,14.03,14.03,0,0,0-11.223,5.561l-.659.863-.226-1.062a10.923,10.923,0,0,0-10.635-8.611h-6.5a1.126,1.126,0,0,0-1.125,1.125,10.883,10.883,0,0,0,10.872,10.871h6.417l-.237.666a14.032,14.032,0,0,0-.77,3.672l-.061.84-.708-.457a3.407,3.407,0,0,1-.631-.523,10.8,10.8,0,0,0-7.882-3.166,13.393,13.393,0,0,0-3.147.381,12.63,12.63,0,0,0-9.288,8.836,30.86,30.86,0,0,0-.559,13.449,31.135,31.135,0,0,0,5.4,13.033c2.76,3.69,6.025,5.723,9.193,5.723a7.428,7.428,0,0,0,3.569-.911,10.966,10.966,0,0,1,5.205-1.333,10.984,10.984,0,0,1,5.206,1.332,7.394,7.394,0,0,0,3.568.913c3.168,0,6.433-2.032,9.193-5.723a31.127,31.127,0,0,0,5.4-13.034A31.191,31.191,0,0,0-2031.518,122.684Zm-24.709-12.9h-4.71a8.649,8.649,0,0,1-8.448-6.9l-.123-.6h5.321a8.649,8.649,0,0,1,8.448,6.9l.123.6Zm22.935,25.555a28.843,28.843,0,0,1-4.982,12.078c-2.291,3.064-4.985,4.821-7.391,4.821a5.172,5.172,0,0,1-2.5-.641,13.257,13.257,0,0,0-6.278-1.6,13.228,13.228,0,0,0-6.276,1.6,5.2,5.2,0,0,1-2.5.64c-2.406,0-5.1-1.757-7.391-4.821a28.831,28.831,0,0,1-4.982-12.076,28.959,28.959,0,0,1,.5-12.433,10.274,10.274,0,0,1,7.656-7.273,10.96,10.96,0,0,1,2.577-.31,8.6,8.6,0,0,1,6.286,2.453,5.7,5.7,0,0,0,4.121,1.776,5.692,5.692,0,0,0,4.124-1.775,8.619,8.619,0,0,1,6.208-2.259,11.834,11.834,0,0,1,2.885.357,10.085,10.085,0,0,1,7.534,7.39A29.278,29.278,0,0,1-2033.292,135.342Z" transform="translate(2078.286 -100.041)"/></g></g></g></svg>