<svg xmlns="http://www.w3.org/2000/svg" width="115" height="115" viewBox="0 0 115 115"><defs><style>.a{fill:#f2f3f6;}.b{fill:#688fe0;stroke:#688fe0;stroke-width:0.3px;}</style></defs><g transform="translate(0.02 -0.45)"><circle class="a" cx="57.5" cy="57.5" r="57.5" transform="translate(-0.02 0.45)"/><g transform="translate(31.309 28.416)"><g transform="translate(0 0)"><g transform="translate(0 0)"><g transform="translate(29.674 20.074)"><path class="b" d="M-2234.944,489.648a.875.875,0,0,0,.779.477.871.871,0,0,0,.4-.1,74.847,74.847,0,0,1,7.722-3.436.873.873,0,0,0,.568-1.1.872.872,0,0,0-1.1-.57,74.863,74.863,0,0,0-7.988,3.546A.873.873,0,0,0-2234.944,489.648Z" transform="translate(2235.039 -484.887)"/></g><g transform="translate(29.674 9.601)"><path class="b" d="M-2234.165,445.3a.872.872,0,0,0,.4-.1,74.815,74.815,0,0,1,7.722-3.436.873.873,0,0,0,.568-1.1.872.872,0,0,0-1.1-.57,74.909,74.909,0,0,0-7.988,3.546.874.874,0,0,0-.382,1.174A.876.876,0,0,0-2234.165,445.3Z" transform="translate(2235.039 -440.063)"/></g><path class="b" d="M-2310.544,412.067a.873.873,0,0,0-.873.873v34.038a2.622,2.622,0,0,1-2.618,2.618h-20.947v-2.008a25.72,25.72,0,0,1,7.855-1.483,45.03,45.03,0,0,1,12.817,1.7.878.878,0,0,0,.785-.12.872.872,0,0,0,.362-.708v-38.4a.872.872,0,0,0-.683-.852s-.684-.153-1.854-.367a.874.874,0,0,0-1.016.7.873.873,0,0,0,.7,1.017c.446.082.82.154,1.107.212v36.533a49.29,49.29,0,0,0-12.219-1.458,27.418,27.418,0,0,0-8.694,1.672,20.442,20.442,0,0,0-7.889-1.672,58.824,58.824,0,0,0-13.092,1.495v-36.6a57.45,57.45,0,0,1,13.092-1.548,18.922,18.922,0,0,1,6.982,1.438v34.346a.873.873,0,0,0,.442.759.872.872,0,0,0,.88-.011A99.9,99.9,0,0,1-2319,436.46a.873.873,0,0,0,.6-.828V399.848a.873.873,0,0,0-.376-.718.872.872,0,0,0-.8-.1,92.823,92.823,0,0,0-14.12,7.06.873.873,0,0,0-.277,1.2.872.872,0,0,0,1.2.278,93.3,93.3,0,0,1,12.629-6.446v33.883a97.844,97.844,0,0,0-14.837,6.964v-33.4a.874.874,0,0,0-.483-.781,20.21,20.21,0,0,0-8.245-1.837,56.646,56.646,0,0,0-14.2,1.779.873.873,0,0,0-.633.839v38.4a.877.877,0,0,0,.346.7.872.872,0,0,0,.526.176.863.863,0,0,0,.239-.034,56.065,56.065,0,0,1,13.725-1.711,18.886,18.886,0,0,1,6.982,1.439V449.6h-20.947a2.622,2.622,0,0,1-2.618-2.618V412.94a.873.873,0,0,0-.873-.873.873.873,0,0,0-.873.873v34.038a4.369,4.369,0,0,0,4.364,4.364h43.639a4.369,4.369,0,0,0,4.364-4.364V412.94A.873.873,0,0,0-2310.544,412.067Z" transform="translate(2362.038 -398.975)"/><g transform="translate(29.674 14.837)"><path class="b" d="M-2234.944,467.236a.875.875,0,0,0,.779.477.871.871,0,0,0,.4-.1,74.84,74.84,0,0,1,7.722-3.436.873.873,0,0,0,.568-1.1.872.872,0,0,0-1.1-.57,74.864,74.864,0,0,0-7.988,3.546A.873.873,0,0,0-2234.944,467.236Z" transform="translate(2235.039 -462.475)"/></g><g transform="translate(29.674 25.311)"><path class="b" d="M-2234.944,512.06a.875.875,0,0,0,.779.477.871.871,0,0,0,.4-.1,74.827,74.827,0,0,1,7.722-3.436.873.873,0,0,0,.568-1.1.872.872,0,0,0-1.1-.57,74.856,74.856,0,0,0-7.988,3.546A.873.873,0,0,0-2234.944,512.06Z" transform="translate(2235.039 -507.299)"/></g><g transform="translate(8.728 15.715)"><path class="b" d="M-2312.267,466.713c-5.389-1.265-11.514.346-11.771.415a.873.873,0,0,0-.617,1.069.872.872,0,0,0,.842.647.893.893,0,0,0,.227-.029c.058-.017,5.955-1.568,10.921-.4a.875.875,0,0,0,1.049-.651A.872.872,0,0,0-2312.267,466.713Z" transform="translate(2324.685 -466.23)"/></g><g transform="translate(8.728 20.952)"><path class="b" d="M-2312.267,489.126c-5.389-1.264-11.514.346-11.771.415a.873.873,0,0,0-.617,1.069.872.872,0,0,0,.842.646.894.894,0,0,0,.227-.029c.058-.017,5.955-1.568,10.921-.4a.875.875,0,0,0,1.049-.651A.872.872,0,0,0-2312.267,489.126Z" transform="translate(2324.685 -488.644)"/></g><g transform="translate(29.674 30.547)"><path class="b" d="M-2234.944,534.472a.875.875,0,0,0,.779.477.871.871,0,0,0,.4-.1,74.859,74.859,0,0,1,7.722-3.436.873.873,0,0,0,.568-1.1.872.872,0,0,0-1.1-.57,74.859,74.859,0,0,0-7.988,3.546A.873.873,0,0,0-2234.944,534.472Z" transform="translate(2235.039 -529.711)"/></g><g transform="translate(8.728 26.188)"><path class="b" d="M-2312.267,511.538c-5.389-1.264-11.514.346-11.771.415a.873.873,0,0,0-.617,1.069.873.873,0,0,0,.842.647.885.885,0,0,0,.227-.03c.058-.017,5.955-1.568,10.921-.4a.875.875,0,0,0,1.049-.651A.872.872,0,0,0-2312.267,511.538Z" transform="translate(2324.685 -511.055)"/></g><g transform="translate(8.728 36.661)"><path class="b" d="M-2312.267,556.361c-5.389-1.265-11.514.346-11.771.415a.873.873,0,0,0-.617,1.069.873.873,0,0,0,.842.647.885.885,0,0,0,.227-.03c.058-.017,5.955-1.568,10.921-.4a.876.876,0,0,0,1.049-.651A.872.872,0,0,0-2312.267,556.361Z" transform="translate(2324.685 -555.878)"/></g><g transform="translate(8.728 31.424)"><path class="b" d="M-2312.267,533.948c-5.389-1.265-11.514.346-11.771.415a.873.873,0,0,0-.617,1.069.873.873,0,0,0,.842.647.885.885,0,0,0,.227-.03c.058-.017,5.955-1.568,10.921-.4a.875.875,0,0,0,1.049-.651A.872.872,0,0,0-2312.267,533.948Z" transform="translate(2324.685 -533.465)"/></g></g></g></g></g></svg>