<svg xmlns="http://www.w3.org/2000/svg" width="115" height="115" viewBox="0 0 115 115"><defs><style>.a{fill:#f2f3f6;}.b{fill:#688fe0;stroke:#688fe0;stroke-width:0.4px;}</style></defs><g transform="translate(-0.115 -0.45)"><circle class="a" cx="57.5" cy="57.5" r="57.5" transform="translate(0.115 0.45)"/><g transform="translate(25.835 21.714)"><g transform="translate(0 32.683)"><path class="b" d="M-2593.782,497.144h-56.3a1.08,1.08,0,0,0-1.078,1.078v7.149a24.507,24.507,0,0,0,9.01,19.014l1.18.968a.291.291,0,0,1,.09.323.292.292,0,0,1-.274.193h-8.545a6.892,6.892,0,0,1-4.838-2.175,1.071,1.071,0,0,0-.759-.325h-.013a1.072,1.072,0,0,0-.753.307,1.071,1.071,0,0,0-.325.759,1.071,1.071,0,0,0,.307.766,9.055,9.055,0,0,0,6.38,2.824h46.038a9.044,9.044,0,0,0,6.446-2.893,1.079,1.079,0,0,0-.034-1.524,1.08,1.08,0,0,0-.753-.3h-.018a1.069,1.069,0,0,0-.753.332,6.883,6.883,0,0,1-4.888,2.227h-8.368a.291.291,0,0,1-.274-.193.291.291,0,0,1,.089-.323l1.181-.968a24.61,24.61,0,0,0,7.748-11.253l.118-.353a.291.291,0,0,1,.26-.2l.372-.02a10.325,10.325,0,0,0,9.832-10.254v-4.086a1.071,1.071,0,0,0-.315-.762A1.072,1.072,0,0,0-2593.782,497.144Zm-10.4,8.227a22.514,22.514,0,0,1-12.882,20.29l-.11.052a.292.292,0,0,1-.124.028h-18.593a.289.289,0,0,1-.124-.028l-.111-.052a22.513,22.513,0,0,1-12.882-20.29v-5.78a.291.291,0,0,1,.291-.291h44.244a.291.291,0,0,1,.291.291Zm9.319-3.064a8.191,8.191,0,0,1-6.475,7.924l-.782.169a.293.293,0,0,1-.062.007.291.291,0,0,1-.2-.08.291.291,0,0,1-.087-.257l.127-.79a35.849,35.849,0,0,0,.318-6.762v-.046c0-.684,0-1.455,0-2.335v-.546a.291.291,0,0,1,.291-.291h6.582a.291.291,0,0,1,.291.291Z" transform="translate(2656.387 -497.144)"/></g><g transform="translate(27.785)"><path class="b" d="M-2555.141,392.094a1.059,1.059,0,0,0-.053,1.1,1.065,1.065,0,0,0,.949.575,1.077,1.077,0,0,0,.9-.48,6.584,6.584,0,0,0,0-7.324,4.434,4.434,0,0,1,0-4.932,1.071,1.071,0,0,0,.16-.809,1.071,1.071,0,0,0-.459-.686,1.069,1.069,0,0,0-.6-.181,1.088,1.088,0,0,0-.214.021,1.072,1.072,0,0,0-.686.459,6.586,6.586,0,0,0,0,7.324A4.433,4.433,0,0,1-2555.141,392.094Z" transform="translate(2556.253 -379.357)"/></g><g transform="translate(40.041 11.235)"><path class="b" d="M-2510.971,432.583a1.057,1.057,0,0,0-.054,1.1,1.064,1.064,0,0,0,.949.576,1.078,1.078,0,0,0,.9-.48,6.585,6.585,0,0,0,0-7.324,4.434,4.434,0,0,1,0-4.932,1.08,1.08,0,0,0-.3-1.5,1.071,1.071,0,0,0-.6-.181,1.1,1.1,0,0,0-.214.021,1.07,1.07,0,0,0-.686.46,6.584,6.584,0,0,0,0,7.324A4.434,4.434,0,0,1-2510.971,432.583Z" transform="translate(2512.084 -419.846)"/></g><g transform="translate(15.529 11.235)"><path class="b" d="M-2599.311,432.583a1.057,1.057,0,0,0-.053,1.1,1.064,1.064,0,0,0,.949.575,1.079,1.079,0,0,0,.9-.48,6.586,6.586,0,0,0,0-7.325,4.433,4.433,0,0,1,0-4.932,1.07,1.07,0,0,0,.16-.809,1.072,1.072,0,0,0-.459-.686,1.073,1.073,0,0,0-.6-.181,1.094,1.094,0,0,0-.214.021,1.071,1.071,0,0,0-.686.459,6.584,6.584,0,0,0,0,7.324A4.433,4.433,0,0,1-2599.311,432.583Z" transform="translate(2600.423 -419.846)"/></g></g></g></svg>