<svg xmlns="http://www.w3.org/2000/svg" width="115" height="115" viewBox="0 0 115 115"><defs><style>.a{fill:#f2f3f6;}.b{fill:#688fe0;stroke:#688fe0;stroke-width:0.3px;}</style></defs><g transform="translate(-0.191 -0.442)"><circle class="a" cx="57.5" cy="57.5" r="57.5" transform="translate(0.191 0.442)"/><g transform="translate(31.213 31.213)"><g transform="translate(0 4.462)"><g transform="translate(0)"><path class="b" d="M-2295.325,181.247h-46.984a3.279,3.279,0,0,1-3.279-3.279V135.445a3.279,3.279,0,0,1,3.279-3.279h46.984a3.279,3.279,0,0,1,3.279,3.279v42.522A3.279,3.279,0,0,1-2295.325,181.247Zm-46.984-46.85a1.048,1.048,0,0,0-1.048,1.048v42.522a1.048,1.048,0,0,0,1.048,1.048h46.984a1.048,1.048,0,0,0,1.048-1.048V135.445a1.048,1.048,0,0,0-1.048-1.048Z" transform="translate(2345.588 -132.166)"/></g></g><g transform="translate(0 15.575)"><g transform="translate(0 0)"><path class="b" d="M-2293.161,175.927h-51.312a1.116,1.116,0,0,1-1.115-1.115,1.116,1.116,0,0,1,1.115-1.115h51.312a1.116,1.116,0,0,1,1.115,1.115A1.116,1.116,0,0,1-2293.161,175.927Z" transform="translate(2345.588 -173.696)"/></g></g><g transform="translate(11.154 0)"><g transform="translate(0)"><path class="b" d="M-2302.79,126.647a1.116,1.116,0,0,1-1.115-1.115v-8.924a1.116,1.116,0,0,1,1.115-1.115,1.116,1.116,0,0,1,1.115,1.115v8.924A1.116,1.116,0,0,1-2302.79,126.647Z" transform="translate(2303.905 -115.493)"/></g></g><g transform="translate(40.157 0)"><g transform="translate(0)"><path class="b" d="M-2194.412,126.647a1.116,1.116,0,0,1-1.115-1.115v-8.924a1.116,1.116,0,0,1,1.115-1.115,1.116,1.116,0,0,1,1.115,1.115v8.924A1.116,1.116,0,0,1-2194.412,126.647Z" transform="translate(2195.527 -115.493)"/></g></g><g transform="translate(6.83 21.393)"><path class="b" d="M-2305.822,206.523h-11.1a3.151,3.151,0,0,1-3.148-3.148v-4.791a3.152,3.152,0,0,1,3.148-3.148h11.1a3.152,3.152,0,0,1,3.148,3.148v4.791A3.152,3.152,0,0,1-2305.822,206.523Zm-11.1-9.215a1.277,1.277,0,0,0-1.275,1.275v4.791a1.276,1.276,0,0,0,1.275,1.275h11.1a1.276,1.276,0,0,0,1.275-1.275v-4.791a1.277,1.277,0,0,0-1.275-1.275Z" transform="translate(2320.065 -195.435)"/></g><g transform="translate(6.83 35.743)"><path class="b" d="M-2305.822,260.15h-11.1a3.152,3.152,0,0,1-3.148-3.148V252.21a3.152,3.152,0,0,1,3.148-3.148h11.1a3.152,3.152,0,0,1,3.148,3.148V257A3.152,3.152,0,0,1-2305.822,260.15Zm-11.1-9.215a1.276,1.276,0,0,0-1.275,1.275V257a1.277,1.277,0,0,0,1.275,1.275h11.1a1.277,1.277,0,0,0,1.275-1.275V252.21a1.276,1.276,0,0,0-1.275-1.275Z" transform="translate(2320.065 -249.062)"/></g><g transform="translate(28.715 35.743)"><path class="b" d="M-2224.042,260.15h-11.095a3.152,3.152,0,0,1-3.148-3.148V252.21a3.152,3.152,0,0,1,3.148-3.148h11.095a3.152,3.152,0,0,1,3.148,3.148V257A3.152,3.152,0,0,1-2224.042,260.15Zm-11.095-9.215a1.277,1.277,0,0,0-1.275,1.275V257a1.277,1.277,0,0,0,1.275,1.275h11.095a1.276,1.276,0,0,0,1.275-1.275V252.21a1.276,1.276,0,0,0-1.275-1.275Z" transform="translate(2238.285 -249.062)"/></g><g transform="translate(30.23 20.901)"><path class="b" d="M-2227.618,204.139a1.067,1.067,0,0,1-.757-.314l-3.934-3.934a1.07,1.07,0,0,1,0-1.514,1.07,1.07,0,0,1,1.514,0l3.177,3.177,7.645-7.645a1.07,1.07,0,0,1,1.514,0,1.07,1.07,0,0,1,0,1.514l-8.4,8.4A1.067,1.067,0,0,1-2227.618,204.139Z" transform="translate(2232.622 -193.596)"/></g></g></g></svg>