<svg xmlns="http://www.w3.org/2000/svg" width="115" height="115"><defs><style>.b{fill:#688fe0;stroke:#688fe0;stroke-width:.3px}</style></defs><g transform="translate(0 -.354)"><circle cx="57.5" cy="57.5" r="57.5" transform="translate(0 .354)" fill="#f2f3f6"/><path class="b" d="M84.861 73.012l-2.217-3.5a1.018 1.018 0 00-1.4-.315 1.017 1.017 0 00-.314 1.4l2.218 3.5a1.8 1.8 0 01-.254 2.225 1.788 1.788 0 01-1.413.507 1.784 1.784 0 01-1.3-.751L70.61 62.467l-.009-.021-3.805-9.078v-1.1a1.017 1.017 0 00-1.016-1.016 1.017 1.017 0 00-1.016 1.016v16.494H50.587V52.267a1.017 1.017 0 00-1.016-1.016 1.017 1.017 0 00-1.016 1.016v1.116l-3.821 9.1-9.558 13.593a1.781 1.781 0 01-1.3.751 1.775 1.775 0 01-1.413-.507 1.794 1.794 0 01-.254-2.225l8.494-13.4a1.048 1.048 0 00.106-.221l3.632-10.8a9.537 9.537 0 019.047-6.5h8.381a9.537 9.537 0 019.047 6.5l3.633 10.8a1.012 1.012 0 00.1.22l1.66 2.619a1.012 1.012 0 00.859.472 1.011 1.011 0 00.542-.158 1.017 1.017 0 00.315-1.4l-1.6-2.539-3.588-10.663a11.616 11.616 0 00-9.645-7.811l-.414-.047.289-.3a7.448 7.448 0 002.093-5.184v-1.6a7.5 7.5 0 00-7.487-7.487 7.5 7.5 0 00-7.487 7.487v1.6a7.448 7.448 0 002.093 5.184l.289.3-.414.047a11.617 11.617 0 00-9.645 7.811l-3.606 10.707-8.415 13.28a3.836 3.836 0 00.543 4.759 3.786 3.786 0 002.091 1.053l.242.037-.081.242a7.134 7.134 0 00.068 5.182 7.123 7.123 0 006.634 4.474 7.134 7.134 0 001.855-.247l15.833-4.262.054.014 15.778 4.247a7.145 7.145 0 001.856.247 7.125 7.125 0 006.634-4.474 7.136 7.136 0 00.068-5.182l-.012-.042-.034-.206.206-.032a3.794 3.794 0 002.092-1.053 3.836 3.836 0 00.546-4.757zm-32.64-37.329v-1.6a5.461 5.461 0 015.456-5.455 5.461 5.461 0 015.455 5.455v1.6a5.461 5.461 0 01-5.455 5.456 5.462 5.462 0 01-5.456-5.456zm14.573 22.944l1.982 4.73a1 1 0 00.106.191l7.372 10.484-9.46-4.824zm-20.323 4.921a1.041 1.041 0 00.106-.192l1.977-4.717v10.572l-9.455 4.821zm33.644 19.977a5.128 5.128 0 01-4.749 3.2 5.117 5.117 0 01-1.329-.176l-12.762-3.436.323-.254a3.986 3.986 0 001.53-3.146v-.094l-.011-.305 7.9 1.867a1.034 1.034 0 00.234.027 1.012 1.012 0 00.988-.782 1.018 1.018 0 00-.755-1.223l-9.141-2.159a1.027 1.027 0 00-.181-.025h-.082l-.057-.059a3.974 3.974 0 00-.416-.381 3.981 3.981 0 00-3.4-.757l-14.336 3.385a1.018 1.018 0 00-.756 1.223 1.02 1.02 0 001.222.755l14.336-3.386a1.958 1.958 0 011.677.373 1.96 1.96 0 01.748 1.546 1.977 1.977 0 01-1.459 1.9l-2.176.586a.948.948 0 00-.071.019l-16.073 4.326a5.125 5.125 0 01-6.077-3.026 5.092 5.092 0 012.421-6.479l12.265-6.254h15.5l12.265 6.254a5.093 5.093 0 012.422 6.481z"/><path class="b" d="M78.626 67.037a1.041 1.041 0 001.437 0l.046-.046a1.008 1.008 0 00.3-.718 1.008 1.008 0 00-.3-.718 1.008 1.008 0 00-.718-.3 1.009 1.009 0 00-.717.3l-.045.045a1.017 1.017 0 00-.003 1.437z"/></g></svg>