<svg xmlns="http://www.w3.org/2000/svg" width="115" height="115" viewBox="0 0 115 115"><defs><style>.a{fill:#f2f3f6;}.b{fill:#688fe0;stroke:#688fe0;stroke-width:0.3px;}</style></defs><g transform="translate(0 -0.354)"><circle class="a" cx="57.5" cy="57.5" r="57.5" transform="translate(0 0.354)"/><g transform="translate(29.904 26.594)"><g transform="translate(0 0)"><path class="b" d="M-2911.176,117.217l-2.217-3.5a1.018,1.018,0,0,0-1.4-.315,1.017,1.017,0,0,0-.314,1.4l2.218,3.5a1.8,1.8,0,0,1-.254,2.225,1.788,1.788,0,0,1-1.413.507,1.784,1.784,0,0,1-1.3-.751l-9.571-13.611-.009-.021-3.805-9.078v-1.1a1.017,1.017,0,0,0-1.016-1.016,1.017,1.017,0,0,0-1.016,1.016v16.494h-14.177V96.472a1.017,1.017,0,0,0-1.016-1.016,1.017,1.017,0,0,0-1.016,1.016v1.116l-3.821,9.1-9.558,13.593a1.781,1.781,0,0,1-1.3.751,1.775,1.775,0,0,1-1.413-.507,1.794,1.794,0,0,1-.254-2.225l8.494-13.4a1.048,1.048,0,0,0,.106-.221l3.632-10.8a9.537,9.537,0,0,1,9.047-6.5h8.381a9.537,9.537,0,0,1,9.047,6.5l3.633,10.8a1.012,1.012,0,0,0,.1.22l1.66,2.619a1.012,1.012,0,0,0,.859.472,1.011,1.011,0,0,0,.542-.158,1.017,1.017,0,0,0,.315-1.4l-1.6-2.539L-2923.2,93.23a11.616,11.616,0,0,0-9.645-7.811l-.414-.047.289-.3a7.448,7.448,0,0,0,2.093-5.184v-1.6a7.5,7.5,0,0,0-7.487-7.487,7.5,7.5,0,0,0-7.487,7.487v1.6a7.448,7.448,0,0,0,2.093,5.184l.289.3-.414.047a11.617,11.617,0,0,0-9.645,7.811l-3.606,10.707-8.415,13.28a3.836,3.836,0,0,0,.543,4.759,3.786,3.786,0,0,0,2.091,1.053l.242.037-.081.242a7.134,7.134,0,0,0,.068,5.182,7.123,7.123,0,0,0,6.634,4.474,7.134,7.134,0,0,0,1.855-.247l15.833-4.262.054.014,15.778,4.247a7.145,7.145,0,0,0,1.856.247,7.125,7.125,0,0,0,6.634-4.474,7.136,7.136,0,0,0,.068-5.182l-.012-.042-.034-.206.206-.032a3.794,3.794,0,0,0,2.092-1.053A3.836,3.836,0,0,0-2911.176,117.217Zm-32.64-37.329v-1.6a5.461,5.461,0,0,1,5.456-5.455,5.461,5.461,0,0,1,5.455,5.455v1.6a5.461,5.461,0,0,1-5.455,5.456A5.462,5.462,0,0,1-2943.816,79.888Zm14.573,22.944,1.982,4.73a1,1,0,0,0,.106.191l7.372,10.484-9.46-4.824Zm-20.323,4.921a1.041,1.041,0,0,0,.106-.192l1.977-4.717v10.572l-9.455,4.821Zm33.644,19.977a5.128,5.128,0,0,1-4.749,3.2,5.117,5.117,0,0,1-1.329-.176l-12.762-3.436.323-.254a3.986,3.986,0,0,0,1.53-3.146c0-.032,0-.063,0-.094l-.011-.305,7.9,1.867a1.034,1.034,0,0,0,.234.027,1.012,1.012,0,0,0,.988-.782,1.018,1.018,0,0,0-.755-1.223l-9.141-2.159a1.027,1.027,0,0,0-.181-.025l-.082,0-.057-.059a3.974,3.974,0,0,0-.416-.381,3.981,3.981,0,0,0-3.4-.757l-14.336,3.385a1.018,1.018,0,0,0-.756,1.223,1.02,1.02,0,0,0,1.222.755l14.336-3.386a1.958,1.958,0,0,1,1.677.373,1.96,1.96,0,0,1,.748,1.546,1.977,1.977,0,0,1-1.459,1.9l-2.176.586c-.031.007-.051.013-.071.019l-16.073,4.326a5.125,5.125,0,0,1-6.077-3.026,5.092,5.092,0,0,1,2.421-6.479l12.265-6.254h15.5l12.265,6.254A5.093,5.093,0,0,1-2915.922,127.73Z" transform="translate(2966.133 -70.799)"/></g><g transform="translate(48.426 38.664)"><path class="b" d="M-2789.825,213.111a1.041,1.041,0,0,0,1.437,0l.046-.046a1.008,1.008,0,0,0,.3-.718,1.008,1.008,0,0,0-.3-.718,1.008,1.008,0,0,0-.718-.3h0a1.009,1.009,0,0,0-.717.3l-.045.045A1.017,1.017,0,0,0-2789.825,213.111Z" transform="translate(2790.121 -211.332)"/></g></g></g></svg>