<svg xmlns="http://www.w3.org/2000/svg" width="219.9" height="173.916"><defs><style>.a{opacity:.2}.c{fill:#2665f5}</style></defs><g class="a"><path class="c" d="M109.949 63.079v.653A109.526 109.526 0 00.649 173.318c0 .1 0 .2.008.3s.008.2.008.294H.013c0-.091 0-.182-.008-.274 0-.108-.008-.215-.008-.325a110.181 110.181 0 01109.95-110.239z"/><path class="c" d="M109.949 70.93v.652A101.68 101.68 0 008.503 173.318c0 .1 0 .2.008.3s.008.2.008.294h-.652c0-.091 0-.182-.008-.274 0-.108-.008-.215-.008-.325a102.332 102.332 0 01102.1-102.388z"/><path class="c" d="M109.95 78.782v.652a93.832 93.832 0 00-93.6 93.884c0 .1 0 .2.007.3l.008.292h-.653l-.006-.273c0-.108-.008-.216-.008-.325a94.485 94.485 0 0194.246-94.537z"/><path class="c" d="M109.95 86.633v.653a85.985 85.985 0 00-85.745 86.032c0 .1 0 .2.008.3s.008.2.008.294h-.652c0-.091 0-.182-.008-.274 0-.108-.008-.215-.008-.325a86.639 86.639 0 0186.4-86.685z"/><path class="c" d="M109.95 94.485v.652a78.331 78.331 0 00-77.895 78.181c0 .1 0 .2.008.3s.008.2.008.294h-.652c0-.091 0-.182-.008-.274 0-.108-.008-.215-.008-.325a78.984 78.984 0 0178.547-78.828z"/><path class="c" d="M109.95 102.337v.652a70.471 70.471 0 00-70.042 70.33c0 .1 0 .2.008.3s.007.2.008.293h-.652c0-.091 0-.182-.008-.274 0-.108-.008-.215-.008-.325a71.124 71.124 0 0170.694-70.976z"/><path class="c" d="M109.95 110.187v.653a62.61 62.61 0 00-62.191 62.478c0 .1 0 .2.008.3s.008.2.008.294h-.652c0-.091 0-.182-.008-.274 0-.108-.008-.215-.008-.325a63.265 63.265 0 0162.843-63.126z"/></g><g class="a"><path class="c" d="M219.885 0l.008.267c0 .111.008.221.008.333a110.179 110.179 0 01-109.95 110.239v-.653A109.526 109.526 0 00219.248.601c0-.1 0-.206-.008-.309l-.008-.284z"/><path class="c" d="M212.034.002c0 .092 0 .183.008.274 0 .108.008.215.008.324a102.332 102.332 0 01-102.1 102.388v-.652A101.68 101.68 0 00211.397.601c0-.1 0-.2-.008-.3s-.007-.2-.008-.294z"/><path class="c" d="M204.182 0l.007.266c0 .111.008.221.008.334a94.485 94.485 0 01-94.246 94.537v-.652a93.834 93.834 0 0093.6-93.884c0-.1 0-.208-.008-.311l-.008-.283z"/><path class="c" d="M196.331.003c0 .093 0 .187.007.28s.008.211.008.318a86.639 86.639 0 01-86.4 86.685v-.653A85.984 85.984 0 00195.691.601c0-.1 0-.2-.007-.294s-.007-.2-.008-.3z"/><path class="c" d="M188.479.002c0 .091 0 .183.008.274 0 .108.008.215.008.324a78.984 78.984 0 01-78.544 78.833v-.652A78.331 78.331 0 00187.845.6c0-.1 0-.2-.008-.3s-.007-.2-.008-.294z"/><path class="c" d="M180.629.004c0 .091 0 .183.008.274 0 .108.008.215.008.325a71.125 71.125 0 01-70.696 70.979v-.652A70.471 70.471 0 00179.991.604c0-.1 0-.2-.008-.3s-.007-.2-.008-.293z"/><path class="c" d="M172.78.002c0 .091 0 .183.008.274 0 .108.008.215.008.325a63.266 63.266 0 01-62.845 63.134v-.653A62.61 62.61 0 00172.14.601c0-.1 0-.2-.008-.3s-.007-.2-.008-.294z"/></g></svg>