<svg xmlns="http://www.w3.org/2000/svg" width="219.9" height="173.916" viewBox="0 0 219.9 173.916"><defs><style>.a{opacity:0.2;}.b{fill:none;stroke:#2665f5;stroke-linejoin:round;stroke-width:0.5px;}.c{fill:#2665f5;}</style></defs><g transform="translate(-292.668 -176.644)"><g class="a" transform="translate(402.62 350.561) rotate(180)"><g transform="translate(101.76 0.002)"><path class="b" d="M285.943,293.909" transform="translate(-285.943 -293.909)"/></g><g transform="translate(0.001)"><path class="c" d="M152.684,404.745l0-.653a109.526,109.526,0,0,0,109.3-109.586c0-.1,0-.2-.008-.3s-.008-.2-.008-.294l.652,0c0,.091,0,.182.008.274,0,.108.008.215.008.325a110.181,110.181,0,0,1-109.95,110.239Z" transform="translate(-152.682 -293.907)"/></g><g transform="translate(0.002 102.661)"><path class="b" d="M152.683,428.349" transform="translate(-152.683 -428.349)"/></g><g transform="translate(93.908 0.002)"><path class="b" d="M275.661,293.909" transform="translate(-275.661 -293.909)"/></g><g transform="translate(101.76 0.002)"><path class="b" d="M285.943,293.909" transform="translate(-285.943 -293.909)"/></g><g transform="translate(0.002 94.808)"><path class="b" d="M152.683,418.066" transform="translate(-152.683 -418.066)"/></g><g transform="translate(0.002 102.661)"><path class="b" d="M152.683,428.349" transform="translate(-152.683 -428.349)"/></g><g transform="translate(0.001)"><path class="c" d="M152.684,396.894l0-.652A101.68,101.68,0,0,0,254.13,294.506c0-.1,0-.2-.008-.3s-.008-.2-.008-.294l.652,0c0,.091,0,.182.008.274,0,.108.008.215.008.325a102.332,102.332,0,0,1-102.1,102.388Z" transform="translate(-152.682 -293.907)"/></g><g transform="translate(0.002 86.957)"><path class="b" d="M152.683,407.784" transform="translate(-152.683 -407.784)"/></g><g transform="translate(0.002 94.808)"><path class="b" d="M152.683,418.066" transform="translate(-152.683 -418.066)"/></g><g transform="translate(93.908 0.002)"><path class="b" d="M275.661,293.909" transform="translate(-275.661 -293.909)"/></g><g transform="translate(86.057 0.002)"><path class="b" d="M265.379,293.909" transform="translate(-265.379 -293.909)"/></g><path class="c" d="M152.683,389.042l0-.652a93.832,93.832,0,0,0,93.6-93.884c0-.1,0-.2-.007-.3l-.008-.292.653,0,.006.273c0,.108.008.216.008.325a94.485,94.485,0,0,1-94.246,94.537Z" transform="translate(-152.681 -293.907)"/><g transform="translate(78.205 0.002)"><path class="b" d="M255.1,293.909" transform="translate(-255.096 -293.909)"/></g><g transform="translate(86.057 0.002)"><path class="b" d="M265.379,293.909" transform="translate(-265.379 -293.909)"/></g><g transform="translate(0.002 79.106)"><path class="b" d="M152.683,397.5" transform="translate(-152.683 -397.502)"/></g><g transform="translate(0.002 86.957)"><path class="b" d="M152.683,407.784" transform="translate(-152.683 -407.784)"/></g><path class="c" d="M152.683,381.191l0-.653a85.985,85.985,0,0,0,85.745-86.032c0-.1,0-.2-.008-.3s-.008-.2-.008-.294l.652,0c0,.091,0,.182.008.274,0,.108.008.215.008.325a86.639,86.639,0,0,1-86.4,86.685Z" transform="translate(-152.681 -293.907)"/><g transform="translate(78.205 0.002)"><path class="b" d="M255.1,293.909" transform="translate(-255.096 -293.909)"/></g><g transform="translate(70.353 0.002)"><path class="b" d="M244.814,293.909" transform="translate(-244.814 -293.909)"/></g><g transform="translate(0.002 71.254)"><path class="b" d="M152.683,387.22" transform="translate(-152.683 -387.22)"/></g><g transform="translate(0.002 79.106)"><path class="b" d="M152.683,397.5" transform="translate(-152.683 -397.502)"/></g><path class="c" d="M152.683,373.339l0-.652a78.331,78.331,0,0,0,77.895-78.181c0-.1,0-.2-.008-.3s-.008-.2-.008-.294l.652,0c0,.091,0,.182.008.274,0,.108.008.215.008.325A78.984,78.984,0,0,1,152.683,373.339Z" transform="translate(-152.681 -293.907)"/><g transform="translate(0.002 63.403)"><path class="b" d="M152.683,376.938" transform="translate(-152.683 -376.938)"/></g><g transform="translate(0.002 71.254)"><path class="b" d="M152.683,387.22" transform="translate(-152.683 -387.22)"/></g><g transform="translate(62.502 0.002)"><path class="b" d="M234.532,293.909" transform="translate(-234.532 -293.909)"/></g><g transform="translate(70.353 0.002)"><path class="b" d="M244.814,293.909" transform="translate(-244.814 -293.909)"/></g><path class="c" d="M152.683,365.487l0-.652a70.471,70.471,0,0,0,70.042-70.33c0-.1,0-.2-.008-.3s-.007-.2-.008-.293l.652,0c0,.091,0,.182.008.274,0,.108.008.215.008.325A71.124,71.124,0,0,1,152.683,365.487Z" transform="translate(-152.681 -293.907)"/><g transform="translate(0.002 55.552)"><path class="b" d="M152.683,366.656" transform="translate(-152.683 -366.656)"/></g><g transform="translate(0.002 63.403)"><path class="b" d="M152.683,376.938" transform="translate(-152.683 -376.938)"/></g><g transform="translate(62.502 0.002)"><path class="b" d="M234.532,293.909" transform="translate(-234.532 -293.909)"/></g><g transform="translate(54.65 0.002)"><path class="b" d="M224.25,293.909" transform="translate(-224.25 -293.909)"/></g><path class="c" d="M152.683,357.637l0-.653a62.61,62.61,0,0,0,62.191-62.478c0-.1,0-.2-.008-.3s-.008-.2-.008-.294l.652,0c0,.091,0,.182.008.274,0,.108.008.215.008.325A63.265,63.265,0,0,1,152.683,357.637Z" transform="translate(-152.681 -293.907)"/><g transform="translate(0.002 47.7)"><path class="b" d="M152.683,356.374" transform="translate(-152.683 -356.374)"/></g><g transform="translate(0.002 55.552)"><path class="b" d="M152.683,366.656" transform="translate(-152.683 -366.656)"/></g><g transform="translate(46.799 0.002)"><path class="b" d="M213.968,293.909" transform="translate(-213.968 -293.909)"/></g><g transform="translate(54.65 0.002)"><path class="b" d="M224.25,293.909" transform="translate(-224.25 -293.909)"/></g><g transform="translate(46.799 0.002)"><path class="b" d="M213.968,293.909" transform="translate(-213.968 -293.909)"/></g><g transform="translate(0.002 39.849)"><path class="b" d="M152.683,346.092" transform="translate(-152.683 -346.092)"/></g><g transform="translate(0.002 47.7)"><path class="b" d="M152.683,356.374" transform="translate(-152.683 -356.374)"/></g><g transform="translate(0.002 39.849)"><path class="b" d="M152.683,346.092" transform="translate(-152.683 -346.092)"/></g></g><g class="a" transform="translate(512.568 287.484) rotate(180)"><g transform="translate(8.192 110.837)"><path class="b" d="M19.424,521.66" transform="translate(-19.424 -521.66)"/></g><path class="c" d="M8.711,487.351l-.008-.267c0-.111-.008-.221-.008-.333a110.179,110.179,0,0,1,109.95-110.239v.653A109.526,109.526,0,0,0,9.348,486.75c0,.1,0,.206.008.309l.008.284Z" transform="translate(-8.696 -376.511)"/><g transform="translate(109.95 8.177)"><path class="b" d="M152.684,387.22" transform="translate(-152.684 -387.22)"/></g><g transform="translate(16.043 110.837)"><path class="b" d="M29.706,521.66" transform="translate(-29.706 -521.66)"/></g><g transform="translate(8.192 110.837)"><path class="b" d="M19.424,521.66" transform="translate(-19.424 -521.66)"/></g><g transform="translate(109.95 16.03)"><path class="b" d="M152.684,397.5" transform="translate(-152.684 -397.503)"/></g><g transform="translate(109.95 8.177)"><path class="b" d="M152.684,387.22" transform="translate(-152.684 -387.22)"/></g><g transform="translate(7.851 7.851)"><path class="c" d="M18.992,489.78c0-.092,0-.183-.008-.274,0-.108-.008-.215-.008-.324a102.332,102.332,0,0,1,102.1-102.388v.652A101.68,101.68,0,0,0,19.629,489.181c0,.1,0,.2.008.3s.007.2.008.294Z" transform="translate(-18.977 -386.793)"/></g><g transform="translate(109.95 23.881)"><path class="b" d="M152.684,407.785" transform="translate(-152.684 -407.785)"/></g><g transform="translate(109.95 16.03)"><path class="b" d="M152.684,397.5" transform="translate(-152.684 -397.503)"/></g><g transform="translate(16.043 110.837)"><path class="b" d="M29.706,521.66" transform="translate(-29.706 -521.66)"/></g><g transform="translate(23.895 110.837)"><path class="b" d="M39.988,521.66" transform="translate(-39.988 -521.66)"/></g><g transform="translate(15.703 15.703)"><path class="c" d="M29.275,492.212l-.007-.266c0-.111-.008-.221-.008-.334a94.485,94.485,0,0,1,94.246-94.537l0,.652a93.834,93.834,0,0,0-93.6,93.884c0,.1,0,.208.008.311l.008.283Z" transform="translate(-29.26 -397.075)"/></g><g transform="translate(31.747 110.837)"><path class="b" d="M50.271,521.66" transform="translate(-50.271 -521.66)"/></g><g transform="translate(23.895 110.837)"><path class="b" d="M39.988,521.66" transform="translate(-39.988 -521.66)"/></g><g transform="translate(109.95 31.732)"><path class="b" d="M152.684,418.067" transform="translate(-152.684 -418.067)"/></g><g transform="translate(109.95 23.881)"><path class="b" d="M152.684,407.785" transform="translate(-152.684 -407.785)"/></g><g transform="translate(23.554 23.554)"><path class="c" d="M39.557,494.64c0-.093,0-.187-.007-.28s-.008-.211-.008-.318a86.639,86.639,0,0,1,86.4-86.685l0,.653a85.984,85.984,0,0,0-85.745,86.032c0,.1,0,.2.007.294s.007.2.008.3Z" transform="translate(-39.542 -407.357)"/></g><g transform="translate(31.747 110.837)"><path class="b" d="M50.271,521.66" transform="translate(-50.271 -521.66)"/></g><g transform="translate(39.598 110.837)"><path class="b" d="M60.553,521.66" transform="translate(-60.553 -521.66)"/></g><g transform="translate(109.95 39.584)"><path class="b" d="M152.684,428.349" transform="translate(-152.684 -428.349)"/></g><g transform="translate(109.95 31.732)"><path class="b" d="M152.684,418.067" transform="translate(-152.684 -418.067)"/></g><g transform="translate(31.406 31.406)"><path class="c" d="M49.839,497.072c0-.091,0-.183-.008-.274,0-.108-.008-.215-.008-.324a78.984,78.984,0,0,1,78.544-78.833l0,.652a78.331,78.331,0,0,0-77.894,78.181c0,.1,0,.2.008.3s.007.2.008.294Z" transform="translate(-49.824 -417.64)"/></g><g transform="translate(109.95 47.435)"><path class="b" d="M152.684,438.631" transform="translate(-152.684 -438.631)"/></g><g transform="translate(109.95 39.584)"><path class="b" d="M152.684,428.349" transform="translate(-152.684 -428.349)"/></g><g transform="translate(47.45 110.837)"><path class="b" d="M70.835,521.66" transform="translate(-70.835 -521.66)"/></g><g transform="translate(39.598 110.837)"><path class="b" d="M60.553,521.66" transform="translate(-60.553 -521.66)"/></g><g transform="translate(39.256 39.258)"><path class="c" d="M60.12,499.5c0-.091,0-.183-.008-.274,0-.108-.008-.215-.008-.325A71.125,71.125,0,0,1,130.8,427.922l0,.652A70.471,70.471,0,0,0,60.758,498.9c0,.1,0,.2.008.3s.007.2.008.293Z" transform="translate(-60.105 -427.922)"/></g><g transform="translate(109.95 55.287)"><path class="b" d="M152.684,448.913" transform="translate(-152.684 -448.913)"/></g><g transform="translate(109.95 47.435)"><path class="b" d="M152.684,438.631" transform="translate(-152.684 -438.631)"/></g><g transform="translate(47.45 110.837)"><path class="b" d="M70.835,521.66" transform="translate(-70.835 -521.66)"/></g><g transform="translate(55.302 110.837)"><path class="b" d="M81.118,521.66" transform="translate(-81.118 -521.66)"/></g><g transform="translate(47.108 47.108)"><path class="c" d="M70.4,501.933c0-.091,0-.183-.008-.274,0-.108-.008-.215-.008-.325A63.266,63.266,0,0,1,133.229,438.2l0,.653A62.61,62.61,0,0,0,71.04,501.334c0,.1,0,.2.008.3s.007.2.008.294Z" transform="translate(-70.388 -438.203)"/></g><g transform="translate(109.95 63.138)"><path class="b" d="M152.684,459.2" transform="translate(-152.684 -459.195)"/></g><g transform="translate(109.95 55.287)"><path class="b" d="M152.684,448.913" transform="translate(-152.684 -448.913)"/></g><g transform="translate(63.152 110.837)"><path class="b" d="M91.4,521.66" transform="translate(-91.399 -521.66)"/></g><g transform="translate(55.302 110.837)"><path class="b" d="M81.118,521.66" transform="translate(-81.118 -521.66)"/></g><g transform="translate(63.152 110.837)"><path class="b" d="M91.4,521.66" transform="translate(-91.399 -521.66)"/></g><g transform="translate(109.95 70.989)"><path class="b" d="M152.684,469.477" transform="translate(-152.684 -469.477)"/></g><g transform="translate(109.95 63.138)"><path class="b" d="M152.684,459.2" transform="translate(-152.684 -459.195)"/></g><g transform="translate(109.95 70.989)"><path class="b" d="M152.684,469.477" transform="translate(-152.684 -469.477)"/></g></g></g></svg>