<svg xmlns="http://www.w3.org/2000/svg" width="115" height="115" viewBox="0 0 115 115"><defs><style>.a{fill:#f2f3f6;}.b{fill:#688fe0;stroke:#688fe0;stroke-width:0.4px;}</style></defs><g transform="translate(-0.289 -0.442)"><circle class="a" cx="57.5" cy="57.5" r="57.5" transform="translate(0.289 0.442)"/><g transform="translate(35.963 30.535)"><g transform="translate(0 2.21)"><path class="b" d="M-2621.873,156.177c-.052,0-.1,0-.157,0A2.008,2.008,0,0,1-2624.2,154c0-.073,0-.146,0-.219V107.145a3.2,3.2,0,0,1,3.2-3.2h2.063q2.989,0,5.98,0a4.666,4.666,0,0,1,1.7.25.978.978,0,0,1,.381.257.983.983,0,0,1,.244.348l.095.226c.074.175.148.35.218.527.508,1.281.924,1.577,2.224,1.584,3.217.018,6.689.018,10.927,0a2.118,2.118,0,0,0,1.769-.632,2.219,2.219,0,0,0,.458-.937,2,2,0,0,1,2.139-1.618l2,0c2.449,0,4.982-.007,7.475.009a2.089,2.089,0,0,1,2.266,2.206c.007.11.006.22,0,.329v47.256c0,.087,0,.173,0,.26a2.008,2.008,0,0,1-2.173,2.173c-.088,0-.174,0-.261,0h-38.368Zm-.337-2a1.779,1.779,0,0,0,.259.025c.054,0,.108,0,.162,0h38.3c.054,0,.108,0,.162,0a1.8,1.8,0,0,0,.258-.025,1.884,1.884,0,0,0,.025-.259c0-.052,0-.105,0-.158V106.453c0-.058,0-.117,0-.175a1.345,1.345,0,0,0-.052-.332,1.135,1.135,0,0,0-.26-.025c-2.485-.016-5.014-.012-7.459-.009l-2,0a.964.964,0,0,0-.2.017.653.653,0,0,0-.022.077,4.2,4.2,0,0,1-.875,1.766,4.029,4.029,0,0,1-3.262,1.328c-4.245.018-7.724.018-10.946,0a3.835,3.835,0,0,1-4.044-2.828c-.043-.109-.088-.217-.134-.325a4.276,4.276,0,0,0-.669-.039q-2.991.006-5.983,0H-2621a1.233,1.233,0,0,0-1.231,1.232V153.8c0,.039,0,.078,0,.116A1.861,1.861,0,0,0-2622.21,154.181Zm29.217-48.278Z" transform="translate(2624.206 -103.938)"/></g><g transform="translate(6.821 38.313)"><path class="b" d="M-2581.579,252.548h-13.205c-.186,0-.371-.009-.556-.019l-.222-.011a.985.985,0,0,1-.943-1.025.977.977,0,0,1,1.025-.943l.245.012c.15.008.3.017.451.017q12.718,0,25.436,0c.3,0,.6-.009.9-.018l.433-.012a.982.982,0,0,1,1.007.962.985.985,0,0,1-.962,1.007l-.42.011c-.318.01-.635.018-.953.019Z" transform="translate(2596.507 -250.547)"/></g><g transform="translate(6.821 44.121)"><path class="b" d="M-2568,276.13c-.028,0-.056,0-.083,0l-.138-.014a1.47,1.47,0,0,0-.15-.012q-13.391,0-26.785,0a1.471,1.471,0,0,0-.148.012l-.138.014a.993.993,0,0,1-1.064-.9.985.985,0,0,1,.9-1.064l.095-.009a3.324,3.324,0,0,1,.354-.023q13.4,0,26.79,0a3.337,3.337,0,0,1,.356.023l.095.009a.985.985,0,0,1,.9,1.064A.985.985,0,0,1-2568,276.13Z" transform="translate(2596.507 -274.129)"/></g><g transform="translate(11.675 0)"><path class="b" d="M-2557.993,99.333a.985.985,0,0,1-.854-.492c-.074-.128-.145-.257-.216-.386a8.036,8.036,0,0,0-.421-.709,1.679,1.679,0,0,0-1.461-.807c-3.953-.007-7.962-.007-11.916,0a1.678,1.678,0,0,0-1.461.807,7.977,7.977,0,0,0-.421.709c-.071.13-.142.259-.216.386a.985.985,0,0,1-1.346.359.985.985,0,0,1-.359-1.346c.067-.115.131-.232.2-.349a9.665,9.665,0,0,1,.53-.884,3.636,3.636,0,0,1,3.075-1.652c3.956-.007,7.967-.007,11.923,0a3.637,3.637,0,0,1,3.075,1.652,9.725,9.725,0,0,1,.53.884c.064.117.129.234.2.349a.985.985,0,0,1-.359,1.346A.982.982,0,0,1-2557.993,99.333Z" transform="translate(2576.797 -94.964)"/></g><g transform="translate(11.173 12.29)"><path class="b" d="M-2568.414,165.647q-1.213,0-2.426,0a2.155,2.155,0,0,1-2.332-2.329c0-.659,0-1.318,0-1.976v-.8a.659.659,0,0,0-.113-.438.657.657,0,0,0-.437-.113h-.8c-.658,0-1.317,0-1.976,0a2.155,2.155,0,0,1-2.329-2.332c0-.562,0-1.123,0-1.685,0-1.015.008-2.065-.014-3.09a2.323,2.323,0,0,1,.676-1.735,2.271,2.271,0,0,1,1.713-.631c.674.028,1.344.02,2.052.012l.6-.006c.513,0,.617-.107.619-.614q0-.683,0-1.365,0-.639,0-1.278a2.121,2.121,0,0,1,1.73-2.349,1.018,1.018,0,0,1,.334-.046h1.529q1.77,0,3.539,0a2.155,2.155,0,0,1,2.333,2.329c0,.577,0,1.155,0,1.733v.915c0,.59.083.672.677.674.242,0,.483,0,.725.006.647.007,1.257.014,1.871-.013a2.265,2.265,0,0,1,1.712.629,2.325,2.325,0,0,1,.677,1.736c-.022,1.024-.018,2.072-.014,3.086,0,.563,0,1.126,0,1.689a2.156,2.156,0,0,1-2.329,2.332c-.659,0-1.317,0-1.976,0h-.8a.658.658,0,0,0-.438.113.66.66,0,0,0-.113.439v.8c0,.657,0,1.314,0,1.971a2.155,2.155,0,0,1-2.332,2.329Q-2567.227,165.647-2568.414,165.647Zm-2.734-2.021a.738.738,0,0,0,.315.047q2.393.008,4.786,0a.747.747,0,0,0,.327-.049,1,1,0,0,0,.042-.323c0-.652,0-1.3,0-1.955v-.8a2.5,2.5,0,0,1,.689-1.832,2.5,2.5,0,0,1,1.831-.69h.8c.653,0,1.307,0,1.96,0a.746.746,0,0,0,.332-.051,1,1,0,0,0,.04-.318c0-.558,0-1.116,0-1.674,0-1.026-.008-2.087.014-3.137a.387.387,0,0,0-.085-.286.349.349,0,0,0-.25-.069c-.667.029-1.333.022-1.977.015-.237,0-.473,0-.71-.006a2.411,2.411,0,0,1-2.641-2.643v-.92c0-.572,0-1.144,0-1.717a.751.751,0,0,0-.051-.332,1.459,1.459,0,0,0-.318-.04q-1.766-.006-3.531,0h-1.4a1.522,1.522,0,0,0-.2.083,1.994,1.994,0,0,0-.022.347q0,.635,0,1.27,0,.686,0,1.372a2.407,2.407,0,0,1-2.575,2.578l-.594.006c-.7.008-1.431.017-2.158-.014a.348.348,0,0,0-.251.07.386.386,0,0,0-.085.285c.023,1.051.019,2.113.014,3.14,0,.557,0,1.114,0,1.67a.752.752,0,0,0,.049.327.991.991,0,0,0,.323.042c.653,0,1.307,0,1.96,0h.8a2.492,2.492,0,0,1,1.831.69,2.491,2.491,0,0,1,.689,1.832v.8c0,.653,0,1.307,0,1.961a.662.662,0,0,0,.053.325Z" transform="translate(2578.836 -144.87)"/></g></g></g></svg>