<svg xmlns="http://www.w3.org/2000/svg" width="115" height="115"><defs><style>.b{fill:#688fe0;stroke:#688fe0;stroke-width:.2px}</style></defs><g transform="translate(-.115 -.354)"><circle cx="57.5" cy="57.5" r="57.5" transform="translate(.115 .354)" fill="#f2f3f6"/><path class="b" d="M57.368 64.915a7.648 7.648 0 002.933-.6 7 7 0 004.5-6.662 7.04 7.04 0 00-4.519-6.657 6.94 6.94 0 00-7.889 1.516 7.218 7.218 0 00-2.126 5.14 7.215 7.215 0 002.123 5.137 6.837 6.837 0 004.978 2.126zM54.06 54.189a4.821 4.821 0 016.968-.041 4.8 4.8 0 01-.032 6.959 4.8 4.8 0 01-6.963.045 4.818 4.818 0 01.027-6.966z"/><path class="b" d="M88.58 36.661c-1.338-3.27-6.487-9.077-10.863-10.4a4.756 4.756 0 00-4.22.432 1.422 1.422 0 00-.193.2c-.023.027-.044.052-.07.079l-5.716 6.45a1.114 1.114 0 00-.188 1.246 1.134 1.134 0 001 .689c.457.138 1.283-.673 3.722-3.56.31-.367.627-.741.839-.98a20.375 20.375 0 0011.452 11.467L68.264 56.532a1.755 1.755 0 01-.145-1.276c.508-2.96-.916-3.828-2.06-4.525a3.133 3.133 0 01-1.373-1.243c-1.325-2.683-2.9-2.558-4.295-2.45a3.614 3.614 0 01-1.73-.13l7.719-8.712a1.072 1.072 0 00.249-1.079 1.287 1.287 0 00-.945-.837 1.069 1.069 0 00-1.038.375l-8.46 9.547a3.531 3.531 0 00-2.632 1.2 2.742 2.742 0 01-1.581.914c-2.969.429-3.355 2.049-3.666 3.351a3.172 3.172 0 01-.744 1.681 4.019 4.019 0 00-1.484 2.957l-5.782 5.123C27.211 73.023 26.649 73.521 26.636 73.537c-1.065 1.065-1.12 2.878-.153 5.111a22.794 22.794 0 005.258 6.9c1.8 1.616 4.585 3.593 7.646 3.835a3.043 3.043 0 002.3-.892l3.433-3.875a1.075 1.075 0 00.246-1.081 1.284 1.284 0 00-.941-.834 1.074 1.074 0 00-1.042.376l.01.009c-.1.095-.26.273-.541.591l-2.862 3.231c-.521.478-3.668-.042-7.675-4.049-3.75-3.75-4.643-7.036-4.067-7.658l18.539-16.428a1.753 1.753 0 01.143 1.271c-.509 2.96.915 3.828 2.059 4.525a3.133 3.133 0 011.373 1.243c1.326 2.683 2.9 2.558 4.293 2.45a3.616 3.616 0 011.737.132L46.234 79.858a1.072 1.072 0 00-.249 1.079 1.287 1.287 0 00.943.837 1.074 1.074 0 001.04-.375l9.251-10.439 1.826 5.929a1.55 1.55 0 001.45 1.086c.739.106 1.661-.967 2.793-2.378.294-.367.574-.716.753-.89a9.729 9.729 0 011.076.343c1.338.476 3 1.066 3.641.238a1.535 1.535 0 00.377-1.535l-2-6.493 6.492 2a1.516 1.516 0 001.512-.358c.854-.651.259-2.326-.218-3.672a10.28 10.28 0 01-.336-1.047l2.732-2.381a1.5 1.5 0 00.49-1.48 1.494 1.494 0 00-1.042-1.152l-5.933-1.827 5.273-4.67c10.537-9.328 12.167-10.779 12.361-10.971 1.022-1.069 1.06-2.856.114-5.041zM68.346 60.996a4.061 4.061 0 00.618-1.8l5.784 1.781-1.692 1.475zm4.574 5.618l-6.4-1.973a4.845 4.845 0 00.334-1.319c.018-.115.036-.229.056-.343l5.427 1.674zm-24.075-8.8c-.425-1.015-.761-1.818.183-2.658a3.665 3.665 0 001.4-2.519c.237-1.043.425-1.867 1.685-2h.067a3.555 3.555 0 002.54-1.21 2.375 2.375 0 011.807-.893c.315.1.636.233.946.363a4.018 4.018 0 003.035.412 1.707 1.707 0 012.032 1.036 4.03 4.03 0 002.3 2.3c1.177.513 1.1 1.372 1.011 2.46a3.618 3.618 0 00.548 2.8c.58.85.276 1.742-1 2.911a4.155 4.155 0 00-.774 1.88c-.276 1.188-.5 1.918-1.655 1.974a3.553 3.553 0 00-2.6 1.2 2.4 2.4 0 01-1.826.9 4.776 4.776 0 01-1.068-.414 3.49 3.49 0 00-1.911-.492l-.063.01c-1.221.186-2.483.378-2.966-.914a4.033 4.033 0 00-2.305-2.3 1.7 1.7 0 01-1.044-2.005 3.6 3.6 0 00-.342-2.844zm12.041 10.647l1.447 4.715-1.475 1.693-1.782-5.785a4.058 4.058 0 001.81-.626zm3.638-1.824l1.972 6.4-1.959-.586-1.665-5.429c.1-.018.21-.034.315-.05a4.92 4.92 0 001.339-.337zm17.867-27.858a20.254 20.254 0 01-2.806-2.226 21.227 21.227 0 01-3.179-3.758 16.771 16.771 0 015.985 5.982zm-7.3-10.348c.37-.342 1.284-.231 2.534.315 3.009.917 8.377 6.683 9.266 9.952a1.614 1.614 0 01-.1 1.418c-.267.232-.834.227-1.689-.015-.346-4.03-6-9.682-10.029-10.018-.265-.826-.258-1.396.021-1.654z"/></g></svg>