<svg xmlns="http://www.w3.org/2000/svg" width="115" height="115" viewBox="0 0 115 115"><defs><style>.a{fill:#f2f3f6;}.b{fill:#688fe0;stroke:#688fe0;stroke-width:0.2px;}</style></defs><g transform="translate(-0.115 -0.354)"><circle class="a" cx="57.5" cy="57.5" r="57.5" transform="translate(0.115 0.354)"/><g transform="translate(25.802 25.97)"><g transform="translate(24.464 24.417)"><path class="b" d="M-1965.927,500a7.648,7.648,0,0,0,2.933-.6,7,7,0,0,0,4.5-6.662,7.04,7.04,0,0,0-4.519-6.657,6.94,6.94,0,0,0-7.889,1.516,7.218,7.218,0,0,0-2.126,5.14,7.215,7.215,0,0,0,2.123,5.137A6.837,6.837,0,0,0-1965.927,500Zm-3.308-10.726a4.821,4.821,0,0,1,6.968-.041,4.8,4.8,0,0,1-.032,6.959,4.8,4.8,0,0,1-6.963.045A4.818,4.818,0,0,1-1969.235,489.271Z" transform="translate(1973.029 -485.472)"/></g><g transform="translate(0 0)"><path class="b" d="M-1987.646,418.915c-1.338-3.27-6.487-9.077-10.863-10.4a4.756,4.756,0,0,0-4.22.432,1.422,1.422,0,0,0-.193.2c-.023.027-.044.052-.07.079l-5.716,6.45a1.114,1.114,0,0,0-.188,1.246,1.134,1.134,0,0,0,1,.689c.457.138,1.283-.673,3.722-3.56.31-.367.627-.741.839-.98a20.375,20.375,0,0,0,11.452,11.467l-16.079,14.248a1.755,1.755,0,0,1-.145-1.276c.508-2.96-.916-3.828-2.06-4.525a3.133,3.133,0,0,1-1.373-1.243c-1.325-2.683-2.9-2.558-4.295-2.45a3.614,3.614,0,0,1-1.73-.13l7.719-8.712a1.072,1.072,0,0,0,.249-1.079,1.287,1.287,0,0,0-.945-.837,1.069,1.069,0,0,0-1.038.375l-8.46,9.547a3.531,3.531,0,0,0-2.632,1.2,2.742,2.742,0,0,1-1.581.914c-2.969.429-3.355,2.049-3.666,3.351a3.172,3.172,0,0,1-.744,1.681,4.019,4.019,0,0,0-1.484,2.957l-5.782,5.123c-13.086,11.595-13.648,12.093-13.661,12.109-1.065,1.065-1.12,2.878-.153,5.111a22.794,22.794,0,0,0,5.258,6.9c1.8,1.616,4.585,3.593,7.646,3.835a3.043,3.043,0,0,0,2.3-.892l3.433-3.875a1.075,1.075,0,0,0,.246-1.081,1.284,1.284,0,0,0-.941-.834,1.074,1.074,0,0,0-1.042.376l.01.009c-.1.095-.26.273-.541.591l-2.862,3.231c-.521.478-3.668-.042-7.675-4.049-3.75-3.75-4.643-7.036-4.067-7.658l18.539-16.428a1.753,1.753,0,0,1,.143,1.271c-.509,2.96.915,3.828,2.059,4.525a3.133,3.133,0,0,1,1.373,1.243c1.326,2.683,2.9,2.558,4.293,2.45a3.616,3.616,0,0,1,1.737.132l-10.158,11.464a1.072,1.072,0,0,0-.249,1.079,1.287,1.287,0,0,0,.943.837,1.074,1.074,0,0,0,1.04-.375l9.251-10.439,1.826,5.929a1.55,1.55,0,0,0,1.45,1.086c.739.106,1.661-.967,2.793-2.378.294-.367.574-.716.753-.89a9.729,9.729,0,0,1,1.076.343c1.338.476,3,1.066,3.641.238a1.535,1.535,0,0,0,.377-1.535l-2-6.493,6.492,2a1.516,1.516,0,0,0,1.512-.358c.854-.651.259-2.326-.218-3.672a10.28,10.28,0,0,1-.336-1.047l2.732-2.381a1.5,1.5,0,0,0,.49-1.48,1.494,1.494,0,0,0-1.042-1.152l-5.933-1.827c.772-.685,2.891-2.561,5.273-4.67,10.537-9.328,12.167-10.779,12.361-10.971v0C-1986.738,422.887-1986.7,421.1-1987.646,418.915Zm-20.234,24.335a4.061,4.061,0,0,0,.618-1.8l5.784,1.781-1.692,1.475Zm4.574,5.618-6.4-1.973a4.845,4.845,0,0,0,.334-1.319c.018-.115.036-.229.056-.343l5.427,1.674Zm-24.075-8.8c-.425-1.015-.761-1.818.183-2.658a3.665,3.665,0,0,0,1.4-2.519c.237-1.043.425-1.867,1.685-2h.067a3.555,3.555,0,0,0,2.54-1.21,2.375,2.375,0,0,1,1.807-.893c.315.1.636.233.946.363a4.018,4.018,0,0,0,3.035.412,1.707,1.707,0,0,1,2.032,1.036,4.03,4.03,0,0,0,2.3,2.3c1.177.513,1.1,1.372,1.011,2.46a3.618,3.618,0,0,0,.548,2.8c.58.85.276,1.742-1,2.911a4.155,4.155,0,0,0-.774,1.88c-.276,1.188-.5,1.918-1.655,1.974a3.553,3.553,0,0,0-2.6,1.2,2.4,2.4,0,0,1-1.826.9,4.776,4.776,0,0,1-1.068-.414,3.49,3.49,0,0,0-1.911-.492l-.063.01c-1.221.186-2.483.378-2.966-.914a4.033,4.033,0,0,0-2.305-2.3,1.7,1.7,0,0,1-1.044-2.005A3.6,3.6,0,0,0-2027.381,440.065Zm12.041,10.647,1.447,4.715-1.475,1.693-1.782-5.785A4.058,4.058,0,0,0-2015.34,450.712Zm3.638-1.824,1.972,6.4-1.959-.586-1.665-5.429c.1-.018.21-.034.315-.05A4.92,4.92,0,0,0-2011.7,448.889Zm17.867-27.858a20.254,20.254,0,0,1-2.806-2.226h0a21.227,21.227,0,0,1-3.179-3.758A16.771,16.771,0,0,1-1993.835,421.031Zm-7.3-10.348c.37-.342,1.284-.231,2.534.315,3.009.917,8.377,6.683,9.266,9.952a1.614,1.614,0,0,1-.1,1.418c-.267.232-.834.227-1.689-.015-.346-4.03-6-9.682-10.029-10.018C-2001.418,411.511-2001.411,410.941-2001.132,410.683Z" transform="translate(2050.424 -408.224)"/></g></g></g></svg>