<svg xmlns="http://www.w3.org/2000/svg" width="107.383" height="36.788"><defs><style>.b{fill:#f2dcde}</style></defs><g transform="translate(-869.063 -281.637)"><path d="M875.2 318.425a5.284 5.284 0 01-4.5-2.226 12.476 12.476 0 01.029-12.406 5.412 5.412 0 014.591-2.234 5.308 5.308 0 014.686 2.387h.146a18.111 18.111 0 01-.335-3.245v-5.21h4.453v22.644h-3.405l-.859-2.11h-.189a5.078 5.078 0 01-4.617 2.4zm1.557-3.536a3.007 3.007 0 002.5-.99 5.756 5.756 0 00.866-3.362v-.48a6.652 6.652 0 00-.808-3.754 3 3 0 00-2.627-1.135 2.606 2.606 0 00-2.306 1.259 6.715 6.715 0 00-.822 3.66 6.363 6.363 0 00.829 3.6 2.71 2.71 0 002.372 1.203zm19.519 3.536a8.4 8.4 0 01-6.141-2.168 8.209 8.209 0 01-2.212-6.141 9.031 9.031 0 012.044-6.323 7.28 7.28 0 015.654-2.234 7.167 7.167 0 015.37 1.964 7.436 7.436 0 011.921 5.428v2.154h-10.489a4.272 4.272 0 001.12 2.954 3.942 3.942 0 002.94 1.062 12.207 12.207 0 002.78-.306 13.9 13.9 0 002.736-.975v3.435a10.424 10.424 0 01-2.489.866 15.691 15.691 0 01-3.234.284zm-.625-13.708a2.815 2.815 0 00-2.212.895 4.141 4.141 0 00-.917 2.539h6.228a3.7 3.7 0 00-.859-2.539 2.907 2.907 0 00-2.241-.895zm13.911 5.108l-5.239-7.96h5.035l3.158 5.181 3.187-5.181h5.035l-5.3 7.96 5.544 8.31h-5.05l-3.42-5.574-3.434 5.574h-5.035zm24.23 8.309l-.859-2.212h-.116a6.553 6.553 0 01-2.307 1.957 7.453 7.453 0 01-3.092.546 5 5 0 01-3.689-1.339 5.141 5.141 0 01-1.346-3.813 4.294 4.294 0 011.812-3.82 10.5 10.5 0 015.465-1.361l2.823-.087v-.713a2.213 2.213 0 00-2.532-2.474 11.538 11.538 0 00-4.584 1.179l-1.47-3a13.227 13.227 0 016.229-1.47 7.757 7.757 0 015.02 1.426 5.271 5.271 0 011.746 4.337v10.842zm-1.31-7.538l-1.717.058a5.5 5.5 0 00-2.881.7 2.195 2.195 0 00-.946 1.95q0 1.877 2.154 1.877a3.411 3.411 0 002.467-.888 3.119 3.119 0 00.924-2.357zm15.832 4.293a9.624 9.624 0 002.794-.509v3.3a9.958 9.958 0 01-4.075.742 4.987 4.987 0 01-3.878-1.346 5.859 5.859 0 01-1.215-4.038v-7.844h-2.126v-1.877l2.445-1.484 1.28-3.435h2.838v3.464h4.555v3.333h-4.555v7.844a1.731 1.731 0 00.531 1.4 2.1 2.1 0 001.406.45zm13.448 3.536a8.4 8.4 0 01-6.141-2.168 8.209 8.209 0 01-2.212-6.141 9.032 9.032 0 012.044-6.323 7.28 7.28 0 015.654-2.234 7.167 7.167 0 015.37 1.964 7.436 7.436 0 011.921 5.428v2.154h-10.492a4.273 4.273 0 001.12 2.954 3.941 3.941 0 002.939 1.062 12.205 12.205 0 002.78-.306 13.894 13.894 0 002.736-.975v3.435a10.419 10.419 0 01-2.489.866 15.691 15.691 0 01-3.23.284zm-.625-13.708a2.814 2.814 0 00-2.212.895 4.142 4.142 0 00-.917 2.539h6.228a3.7 3.7 0 00-.859-2.539 2.907 2.907 0 00-2.24-.895zm15.307 13.418h-4.439v-22.644h4.439z" fill="#3b6fd9"/><circle class="b" cx="3.133" cy="3.133" r="3.133" transform="translate(939.817 286.093)"/><circle class="b" cx="3.133" cy="3.133" r="3.133" transform="translate(954.999 283.865)"/><circle class="b" cx="3.133" cy="3.133" r="3.133" transform="translate(970.18 281.637)"/></g></svg>