<svg xmlns="http://www.w3.org/2000/svg" width="107.383" height="36.788" viewBox="0 0 107.383 36.788"><defs><style>.a{fill:#3b6fd9;}.b{fill:#f2dcde;}</style></defs><g transform="translate(-869.063 -281.637)"><path class="a" d="M875.2,373.5a5.284,5.284,0,0,1-4.5-2.226,12.476,12.476,0,0,1,.029-12.406,5.412,5.412,0,0,1,4.591-2.234,5.308,5.308,0,0,1,4.686,2.387h.146a18.111,18.111,0,0,1-.335-3.245v-5.21h4.453V373.21h-3.405l-.859-2.11h-.189A5.078,5.078,0,0,1,875.2,373.5Zm1.557-3.536a3.007,3.007,0,0,0,2.5-.99,5.756,5.756,0,0,0,.866-3.362v-.48a6.652,6.652,0,0,0-.808-3.754,3,3,0,0,0-2.627-1.135,2.606,2.606,0,0,0-2.306,1.259,6.715,6.715,0,0,0-.822,3.66,6.363,6.363,0,0,0,.829,3.6A2.71,2.71,0,0,0,876.761,369.965Z" transform="translate(0 -55.075)"/><path class="a" d="M971.253,397.626a8.4,8.4,0,0,1-6.141-2.168,8.209,8.209,0,0,1-2.212-6.141,9.031,9.031,0,0,1,2.044-6.323,7.28,7.28,0,0,1,5.654-2.234,7.167,7.167,0,0,1,5.37,1.964,7.436,7.436,0,0,1,1.921,5.428v2.154H967.4a4.272,4.272,0,0,0,1.12,2.954,3.942,3.942,0,0,0,2.94,1.062,12.207,12.207,0,0,0,2.78-.306,13.9,13.9,0,0,0,2.736-.975v3.435a10.424,10.424,0,0,1-2.489.866A15.691,15.691,0,0,1,971.253,397.626Zm-.625-13.708a2.815,2.815,0,0,0-2.212.895,4.141,4.141,0,0,0-.917,2.539h6.228a3.7,3.7,0,0,0-.859-2.539A2.907,2.907,0,0,0,970.627,383.918Z" transform="translate(-74.977 -79.201)"/><path class="a" d="M1048.644,390.241l-5.239-7.96h5.035l3.158,5.181,3.187-5.181h5.035l-5.3,7.96,5.544,8.31h-5.05l-3.42-5.574-3.434,5.574h-5.035Z" transform="translate(-139.082 -80.416)"/><path class="a" d="M1145.767,397.219l-.859-2.212h-.116a6.553,6.553,0,0,1-2.307,1.957,7.453,7.453,0,0,1-3.092.546,5,5,0,0,1-3.689-1.339,5.141,5.141,0,0,1-1.346-3.813,4.294,4.294,0,0,1,1.812-3.82,10.5,10.5,0,0,1,5.465-1.361l2.823-.087v-.713a2.213,2.213,0,0,0-2.532-2.474,11.538,11.538,0,0,0-4.584,1.179l-1.47-3a13.227,13.227,0,0,1,6.229-1.47,7.757,7.757,0,0,1,5.02,1.426,5.271,5.271,0,0,1,1.746,4.337v10.842Zm-1.31-7.538-1.717.058a5.5,5.5,0,0,0-2.881.7,2.195,2.195,0,0,0-.946,1.95q0,1.877,2.154,1.877a3.411,3.411,0,0,0,2.467-.888,3.119,3.119,0,0,0,.924-2.357Z" transform="translate(-211.975 -79.085)"/><path class="a" d="M1229.6,381.535a9.624,9.624,0,0,0,2.794-.509v3.3a9.958,9.958,0,0,1-4.075.742,4.987,4.987,0,0,1-3.878-1.346,5.859,5.859,0,0,1-1.215-4.038v-7.844H1221.1v-1.877l2.445-1.484,1.28-3.435h2.838v3.464h4.555v3.333h-4.555v7.844a1.731,1.731,0,0,0,.531,1.4A2.1,2.1,0,0,0,1229.6,381.535Z" transform="translate(-281.286 -66.646)"/><path class="a" d="M1297.083,397.626a8.4,8.4,0,0,1-6.141-2.168,8.209,8.209,0,0,1-2.212-6.141,9.032,9.032,0,0,1,2.044-6.323,7.28,7.28,0,0,1,5.654-2.234,7.167,7.167,0,0,1,5.37,1.964,7.436,7.436,0,0,1,1.921,5.428v2.154h-10.492a4.273,4.273,0,0,0,1.12,2.954,3.941,3.941,0,0,0,2.939,1.062,12.205,12.205,0,0,0,2.78-.306,13.894,13.894,0,0,0,2.736-.975v3.435a10.419,10.419,0,0,1-2.489.866A15.691,15.691,0,0,1,1297.083,397.626Zm-.625-13.708a2.814,2.814,0,0,0-2.212.895,4.142,4.142,0,0,0-.917,2.539h6.228a3.7,3.7,0,0,0-.859-2.539A2.907,2.907,0,0,0,1296.458,383.918Z" transform="translate(-335.321 -79.201)"/><path class="a" d="M1385.7,373.21h-4.439V350.566h4.439Z" transform="translate(-409.256 -55.075)"/><circle class="b" cx="3.133" cy="3.133" r="3.133" transform="translate(939.817 286.093)"/><circle class="b" cx="3.133" cy="3.133" r="3.133" transform="translate(954.999 283.865)"/><circle class="b" cx="3.133" cy="3.133" r="3.133" transform="translate(970.18 281.637)"/></g></svg>