<svg xmlns="http://www.w3.org/2000/svg" xmlns:xlink="http://www.w3.org/1999/xlink" width="326" height="269" viewBox="0 0 326 269"><defs><style>.a{fill:none;}.b{opacity:0.305;clip-path:url(#a);}.c{fill:#3b6fd9;}</style><clipPath id="a"><rect class="a" width="326" height="269"/></clipPath></defs><g class="b"><g transform="translate(-274 -2072)"><circle class="c" cx="2.5" cy="2.5" r="2.5" transform="translate(274 2072)"/></g><g transform="translate(-259 -2072)"><circle class="c" cx="2.5" cy="2.5" r="2.5" transform="translate(274 2072)"/></g><g transform="translate(-244 -2072)"><circle class="c" cx="2.5" cy="2.5" r="2.5" transform="translate(274 2072)"/></g><g transform="translate(-229 -2072)"><circle class="c" cx="2.5" cy="2.5" r="2.5" transform="translate(274 2072)"/></g><g transform="translate(-214 -2072)"><circle class="c" cx="2.5" cy="2.5" r="2.5" transform="translate(274 2072)"/></g><g transform="translate(-199 -2072)"><circle class="c" cx="2.5" cy="2.5" r="2.5" transform="translate(274 2072)"/></g><g transform="translate(-184 -2072)"><circle class="c" cx="2.5" cy="2.5" r="2.5" transform="translate(274 2072)"/></g><g transform="translate(-169 -2072)"><circle class="c" cx="2.5" cy="2.5" r="2.5" transform="translate(274 2072)"/></g><g transform="translate(-154 -2072)"><circle class="c" cx="2.5" cy="2.5" r="2.5" transform="translate(274 2072)"/></g><g transform="translate(-139 -2072)"><circle class="c" cx="2.5" cy="2.5" r="2.5" transform="translate(274 2072)"/></g><g transform="translate(-124 -2072)"><circle class="c" cx="2.5" cy="2.5" r="2.5" transform="translate(274 2072)"/></g><g transform="translate(-109 -2072)"><circle class="c" cx="2.5" cy="2.5" r="2.5" transform="translate(274 2072)"/></g><g transform="translate(-94 -2072)"><circle class="c" cx="2.5" cy="2.5" r="2.5" transform="translate(274 2072)"/></g><g transform="translate(-79 -2072)"><circle class="c" cx="2.5" cy="2.5" r="2.5" transform="translate(274 2072)"/></g><g transform="translate(-64 -2072)"><circle class="c" cx="2.5" cy="2.5" r="2.5" transform="translate(274 2072)"/></g><g transform="translate(-49 -2072)"><circle class="c" cx="2.5" cy="2.5" r="2.5" transform="translate(274 2072)"/></g><g transform="translate(-34 -2072)"><circle class="c" cx="2.5" cy="2.5" r="2.5" transform="translate(274 2072)"/></g><g transform="translate(-19 -2072)"><circle class="c" cx="2.5" cy="2.5" r="2.5" transform="translate(274 2072)"/></g><g transform="translate(-4 -2072)"><circle class="c" cx="2.5" cy="2.5" r="2.5" transform="translate(274 2072)"/></g><g transform="translate(11 -2072)"><circle class="c" cx="2.5" cy="2.5" r="2.5" transform="translate(274 2072)"/></g><g transform="translate(26 -2072)"><circle class="c" cx="2.5" cy="2.5" r="2.5" transform="translate(274 2072)"/></g><g transform="translate(41 -2072)"><circle class="c" cx="2.5" cy="2.5" r="2.5" transform="translate(274 2072)"/></g><g transform="translate(-274 -2057)"><circle class="c" cx="2.5" cy="2.5" r="2.5" transform="translate(274 2072)"/></g><g transform="translate(-259 -2057)"><circle class="c" cx="2.5" cy="2.5" r="2.5" transform="translate(274 2072)"/></g><g transform="translate(-244 -2057)"><circle class="c" cx="2.5" cy="2.5" r="2.5" transform="translate(274 2072)"/></g><g transform="translate(-229 -2057)"><circle class="c" cx="2.5" cy="2.5" r="2.5" transform="translate(274 2072)"/></g><g transform="translate(-214 -2057)"><circle class="c" cx="2.5" cy="2.5" r="2.5" transform="translate(274 2072)"/></g><g transform="translate(-199 -2057)"><circle class="c" cx="2.5" cy="2.5" r="2.5" transform="translate(274 2072)"/></g><g transform="translate(-184 -2057)"><circle class="c" cx="2.5" cy="2.5" r="2.5" transform="translate(274 2072)"/></g><g transform="translate(-169 -2057)"><circle class="c" cx="2.5" cy="2.5" r="2.5" transform="translate(274 2072)"/></g><g transform="translate(-154 -2057)"><circle class="c" cx="2.5" cy="2.5" r="2.5" transform="translate(274 2072)"/></g><g transform="translate(-139 -2057)"><circle class="c" cx="2.5" cy="2.5" r="2.5" transform="translate(274 2072)"/></g><g transform="translate(-124 -2057)"><circle class="c" cx="2.5" cy="2.5" r="2.5" transform="translate(274 2072)"/></g><g transform="translate(-109 -2057)"><circle class="c" cx="2.5" cy="2.5" r="2.5" transform="translate(274 2072)"/></g><g transform="translate(-94 -2057)"><circle class="c" cx="2.5" cy="2.5" r="2.5" transform="translate(274 2072)"/></g><g transform="translate(-79 -2057)"><circle class="c" cx="2.5" cy="2.5" r="2.5" transform="translate(274 2072)"/></g><g transform="translate(-64 -2057)"><circle class="c" cx="2.5" cy="2.5" r="2.5" transform="translate(274 2072)"/></g><g transform="translate(-49 -2057)"><circle class="c" cx="2.5" cy="2.5" r="2.5" transform="translate(274 2072)"/></g><g transform="translate(-34 -2057)"><circle class="c" cx="2.5" cy="2.5" r="2.5" transform="translate(274 2072)"/></g><g transform="translate(-19 -2057)"><circle class="c" cx="2.5" cy="2.5" r="2.5" transform="translate(274 2072)"/></g><g transform="translate(-4 -2057)"><circle class="c" cx="2.5" cy="2.5" r="2.5" transform="translate(274 2072)"/></g><g transform="translate(11 -2057)"><circle class="c" cx="2.5" cy="2.5" r="2.5" transform="translate(274 2072)"/></g><g transform="translate(26 -2057)"><circle class="c" cx="2.5" cy="2.5" r="2.5" transform="translate(274 2072)"/></g><g transform="translate(41 -2057)"><circle class="c" cx="2.5" cy="2.5" r="2.5" transform="translate(274 2072)"/></g><g transform="translate(-274 -2042)"><circle class="c" cx="2.5" cy="2.5" r="2.5" transform="translate(274 2072)"/></g><g transform="translate(-259 -2042)"><circle class="c" cx="2.5" cy="2.5" r="2.5" transform="translate(274 2072)"/></g><g transform="translate(-244 -2042)"><circle class="c" cx="2.5" cy="2.5" r="2.5" transform="translate(274 2072)"/></g><g transform="translate(-229 -2042)"><circle class="c" cx="2.5" cy="2.5" r="2.5" transform="translate(274 2072)"/></g><g transform="translate(-214 -2042)"><circle class="c" cx="2.5" cy="2.5" r="2.5" transform="translate(274 2072)"/></g><g transform="translate(-199 -2042)"><circle class="c" cx="2.5" cy="2.5" r="2.5" transform="translate(274 2072)"/></g><g transform="translate(-184 -2042)"><circle class="c" cx="2.5" cy="2.5" r="2.5" transform="translate(274 2072)"/></g><g transform="translate(-169 -2042)"><circle class="c" cx="2.5" cy="2.5" r="2.5" transform="translate(274 2072)"/></g><g transform="translate(-154 -2042)"><circle class="c" cx="2.5" cy="2.5" r="2.5" transform="translate(274 2072)"/></g><g transform="translate(-139 -2042)"><circle class="c" cx="2.5" cy="2.5" r="2.5" transform="translate(274 2072)"/></g><g transform="translate(-124 -2042)"><circle class="c" cx="2.5" cy="2.5" r="2.5" transform="translate(274 2072)"/></g><g transform="translate(-109 -2042)"><circle class="c" cx="2.5" cy="2.5" r="2.5" transform="translate(274 2072)"/></g><g transform="translate(-94 -2042)"><circle class="c" cx="2.5" cy="2.5" r="2.5" transform="translate(274 2072)"/></g><g transform="translate(-79 -2042)"><circle class="c" cx="2.5" cy="2.5" r="2.5" transform="translate(274 2072)"/></g><g transform="translate(-64 -2042)"><circle class="c" cx="2.5" cy="2.5" r="2.5" transform="translate(274 2072)"/></g><g transform="translate(-49 -2042)"><circle class="c" cx="2.5" cy="2.5" r="2.5" transform="translate(274 2072)"/></g><g transform="translate(-34 -2042)"><circle class="c" cx="2.5" cy="2.5" r="2.5" transform="translate(274 2072)"/></g><g transform="translate(-19 -2042)"><circle class="c" cx="2.5" cy="2.5" r="2.5" transform="translate(274 2072)"/></g><g transform="translate(-4 -2042)"><circle class="c" cx="2.5" cy="2.5" r="2.5" transform="translate(274 2072)"/></g><g transform="translate(11 -2042)"><circle class="c" cx="2.5" cy="2.5" r="2.5" transform="translate(274 2072)"/></g><g transform="translate(26 -2042)"><circle class="c" cx="2.5" cy="2.5" r="2.5" transform="translate(274 2072)"/></g><g transform="translate(41 -2042)"><circle class="c" cx="2.5" cy="2.5" r="2.5" transform="translate(274 2072)"/></g><g transform="translate(-274 -2027)"><circle class="c" cx="2.5" cy="2.5" r="2.5" transform="translate(274 2072)"/></g><g transform="translate(-259 -2027)"><circle class="c" cx="2.5" cy="2.5" r="2.5" transform="translate(274 2072)"/></g><g transform="translate(-244 -2027)"><circle class="c" cx="2.5" cy="2.5" r="2.5" transform="translate(274 2072)"/></g><g transform="translate(-229 -2027)"><circle class="c" cx="2.5" cy="2.5" r="2.5" transform="translate(274 2072)"/></g><g transform="translate(-214 -2027)"><circle class="c" cx="2.5" cy="2.5" r="2.5" transform="translate(274 2072)"/></g><g transform="translate(-199 -2027)"><circle class="c" cx="2.5" cy="2.5" r="2.5" transform="translate(274 2072)"/></g><g transform="translate(-184 -2027)"><circle class="c" cx="2.5" cy="2.5" r="2.5" transform="translate(274 2072)"/></g><g transform="translate(-169 -2027)"><circle class="c" cx="2.5" cy="2.5" r="2.5" transform="translate(274 2072)"/></g><g transform="translate(-154 -2027)"><circle class="c" cx="2.5" cy="2.5" r="2.5" transform="translate(274 2072)"/></g><g transform="translate(-139 -2027)"><circle class="c" cx="2.5" cy="2.5" r="2.5" transform="translate(274 2072)"/></g><g transform="translate(-124 -2027)"><circle class="c" cx="2.5" cy="2.5" r="2.5" transform="translate(274 2072)"/></g><g transform="translate(-109 -2027)"><circle class="c" cx="2.5" cy="2.5" r="2.5" transform="translate(274 2072)"/></g><g transform="translate(-94 -2027)"><circle class="c" cx="2.5" cy="2.5" r="2.5" transform="translate(274 2072)"/></g><g transform="translate(-79 -2027)"><circle class="c" cx="2.5" cy="2.5" r="2.5" transform="translate(274 2072)"/></g><g transform="translate(-64 -2027)"><circle class="c" cx="2.5" cy="2.5" r="2.5" transform="translate(274 2072)"/></g><g transform="translate(-49 -2027)"><circle class="c" cx="2.5" cy="2.5" r="2.5" transform="translate(274 2072)"/></g><g transform="translate(-34 -2027)"><circle class="c" cx="2.5" cy="2.5" r="2.5" transform="translate(274 2072)"/></g><g transform="translate(-19 -2027)"><circle class="c" cx="2.5" cy="2.5" r="2.5" transform="translate(274 2072)"/></g><g transform="translate(-4 -2027)"><circle class="c" cx="2.5" cy="2.5" r="2.5" transform="translate(274 2072)"/></g><g transform="translate(11 -2027)"><circle class="c" cx="2.5" cy="2.5" r="2.5" transform="translate(274 2072)"/></g><g transform="translate(26 -2027)"><circle class="c" cx="2.5" cy="2.5" r="2.5" transform="translate(274 2072)"/></g><g transform="translate(41 -2027)"><circle class="c" cx="2.5" cy="2.5" r="2.5" transform="translate(274 2072)"/></g><g transform="translate(-274 -2012)"><circle class="c" cx="2.5" cy="2.5" r="2.5" transform="translate(274 2072)"/></g><g transform="translate(-259 -2012)"><circle class="c" cx="2.5" cy="2.5" r="2.5" transform="translate(274 2072)"/></g><g transform="translate(-244 -2012)"><circle class="c" cx="2.5" cy="2.5" r="2.5" transform="translate(274 2072)"/></g><g transform="translate(-229 -2012)"><circle class="c" cx="2.5" cy="2.5" r="2.5" transform="translate(274 2072)"/></g><g transform="translate(-214 -2012)"><circle class="c" cx="2.5" cy="2.5" r="2.5" transform="translate(274 2072)"/></g><g transform="translate(-199 -2012)"><circle class="c" cx="2.5" cy="2.5" r="2.5" transform="translate(274 2072)"/></g><g transform="translate(-184 -2012)"><circle class="c" cx="2.5" cy="2.5" r="2.5" transform="translate(274 2072)"/></g><g transform="translate(-169 -2012)"><circle class="c" cx="2.5" cy="2.5" r="2.5" transform="translate(274 2072)"/></g><g transform="translate(-154 -2012)"><circle class="c" cx="2.5" cy="2.5" r="2.5" transform="translate(274 2072)"/></g><g transform="translate(-139 -2012)"><circle class="c" cx="2.5" cy="2.5" r="2.5" transform="translate(274 2072)"/></g><g transform="translate(-124 -2012)"><circle class="c" cx="2.5" cy="2.5" r="2.5" transform="translate(274 2072)"/></g><g transform="translate(-109 -2012)"><circle class="c" cx="2.5" cy="2.5" r="2.5" transform="translate(274 2072)"/></g><g transform="translate(-94 -2012)"><circle class="c" cx="2.5" cy="2.5" r="2.5" transform="translate(274 2072)"/></g><g transform="translate(-79 -2012)"><circle class="c" cx="2.5" cy="2.5" r="2.5" transform="translate(274 2072)"/></g><g transform="translate(-64 -2012)"><circle class="c" cx="2.5" cy="2.5" r="2.5" transform="translate(274 2072)"/></g><g transform="translate(-49 -2012)"><circle class="c" cx="2.5" cy="2.5" r="2.5" transform="translate(274 2072)"/></g><g transform="translate(-34 -2012)"><circle class="c" cx="2.5" cy="2.5" r="2.5" transform="translate(274 2072)"/></g><g transform="translate(-19 -2012)"><circle class="c" cx="2.5" cy="2.5" r="2.5" transform="translate(274 2072)"/></g><g transform="translate(-4 -2012)"><circle class="c" cx="2.5" cy="2.5" r="2.5" transform="translate(274 2072)"/></g><g transform="translate(11 -2012)"><circle class="c" cx="2.5" cy="2.5" r="2.5" transform="translate(274 2072)"/></g><g transform="translate(26 -2012)"><circle class="c" cx="2.5" cy="2.5" r="2.5" transform="translate(274 2072)"/></g><g transform="translate(41 -2012)"><circle class="c" cx="2.5" cy="2.5" r="2.5" transform="translate(274 2072)"/></g><g transform="translate(-274 -1997)"><circle class="c" cx="2.5" cy="2.5" r="2.5" transform="translate(274 2072)"/></g><g transform="translate(-259 -1997)"><circle class="c" cx="2.5" cy="2.5" r="2.5" transform="translate(274 2072)"/></g><g transform="translate(-244 -1997)"><circle class="c" cx="2.5" cy="2.5" r="2.5" transform="translate(274 2072)"/></g><g transform="translate(-229 -1997)"><circle class="c" cx="2.5" cy="2.5" r="2.5" transform="translate(274 2072)"/></g><g transform="translate(-214 -1997)"><circle class="c" cx="2.5" cy="2.5" r="2.5" transform="translate(274 2072)"/></g><g transform="translate(-199 -1997)"><circle class="c" cx="2.5" cy="2.5" r="2.5" transform="translate(274 2072)"/></g><g transform="translate(-184 -1997)"><circle class="c" cx="2.5" cy="2.5" r="2.5" transform="translate(274 2072)"/></g><g transform="translate(-169 -1997)"><circle class="c" cx="2.5" cy="2.5" r="2.5" transform="translate(274 2072)"/></g><g transform="translate(-154 -1997)"><circle class="c" cx="2.5" cy="2.5" r="2.5" transform="translate(274 2072)"/></g><g transform="translate(-139 -1997)"><circle class="c" cx="2.5" cy="2.5" r="2.5" transform="translate(274 2072)"/></g><g transform="translate(-124 -1997)"><circle class="c" cx="2.5" cy="2.5" r="2.5" transform="translate(274 2072)"/></g><g transform="translate(-109 -1997)"><circle class="c" cx="2.5" cy="2.5" r="2.5" transform="translate(274 2072)"/></g><g transform="translate(-94 -1997)"><circle class="c" cx="2.5" cy="2.5" r="2.5" transform="translate(274 2072)"/></g><g transform="translate(-79 -1997)"><circle class="c" cx="2.5" cy="2.5" r="2.5" transform="translate(274 2072)"/></g><g transform="translate(-64 -1997)"><circle class="c" cx="2.5" cy="2.5" r="2.5" transform="translate(274 2072)"/></g><g transform="translate(-49 -1997)"><circle class="c" cx="2.5" cy="2.5" r="2.5" transform="translate(274 2072)"/></g><g transform="translate(-34 -1997)"><circle class="c" cx="2.5" cy="2.5" r="2.5" transform="translate(274 2072)"/></g><g transform="translate(-19 -1997)"><circle class="c" cx="2.5" cy="2.5" r="2.5" transform="translate(274 2072)"/></g><g transform="translate(-4 -1997)"><circle class="c" cx="2.5" cy="2.5" r="2.5" transform="translate(274 2072)"/></g><g transform="translate(11 -1997)"><circle class="c" cx="2.5" cy="2.5" r="2.5" transform="translate(274 2072)"/></g><g transform="translate(26 -1997)"><circle class="c" cx="2.5" cy="2.5" r="2.5" transform="translate(274 2072)"/></g><g transform="translate(41 -1997)"><circle class="c" cx="2.5" cy="2.5" r="2.5" transform="translate(274 2072)"/></g><g transform="translate(-274 -1982)"><circle class="c" cx="2.5" cy="2.5" r="2.5" transform="translate(274 2072)"/></g><g transform="translate(-259 -1982)"><circle class="c" cx="2.5" cy="2.5" r="2.5" transform="translate(274 2072)"/></g><g transform="translate(-244 -1982)"><circle class="c" cx="2.5" cy="2.5" r="2.5" transform="translate(274 2072)"/></g><g transform="translate(-229 -1982)"><circle class="c" cx="2.5" cy="2.5" r="2.5" transform="translate(274 2072)"/></g><g transform="translate(-214 -1982)"><circle class="c" cx="2.5" cy="2.5" r="2.5" transform="translate(274 2072)"/></g><g transform="translate(-199 -1982)"><circle class="c" cx="2.5" cy="2.5" r="2.5" transform="translate(274 2072)"/></g><g transform="translate(-184 -1982)"><circle class="c" cx="2.5" cy="2.5" r="2.5" transform="translate(274 2072)"/></g><g transform="translate(-169 -1982)"><circle class="c" cx="2.5" cy="2.5" r="2.5" transform="translate(274 2072)"/></g><g transform="translate(-154 -1982)"><circle class="c" cx="2.5" cy="2.5" r="2.5" transform="translate(274 2072)"/></g><g transform="translate(-139 -1982)"><circle class="c" cx="2.5" cy="2.5" r="2.5" transform="translate(274 2072)"/></g><g transform="translate(-124 -1982)"><circle class="c" cx="2.5" cy="2.5" r="2.5" transform="translate(274 2072)"/></g><g transform="translate(-109 -1982)"><circle class="c" cx="2.5" cy="2.5" r="2.5" transform="translate(274 2072)"/></g><g transform="translate(-94 -1982)"><circle class="c" cx="2.5" cy="2.5" r="2.5" transform="translate(274 2072)"/></g><g transform="translate(-79 -1982)"><circle class="c" cx="2.5" cy="2.5" r="2.5" transform="translate(274 2072)"/></g><g transform="translate(-64 -1982)"><circle class="c" cx="2.5" cy="2.5" r="2.5" transform="translate(274 2072)"/></g><g transform="translate(-49 -1982)"><circle class="c" cx="2.5" cy="2.5" r="2.5" transform="translate(274 2072)"/></g><g transform="translate(-34 -1982)"><circle class="c" cx="2.5" cy="2.5" r="2.5" transform="translate(274 2072)"/></g><g transform="translate(-19 -1982)"><circle class="c" cx="2.5" cy="2.5" r="2.5" transform="translate(274 2072)"/></g><g transform="translate(-4 -1982)"><circle class="c" cx="2.5" cy="2.5" r="2.5" transform="translate(274 2072)"/></g><g transform="translate(11 -1982)"><circle class="c" cx="2.5" cy="2.5" r="2.5" transform="translate(274 2072)"/></g><g transform="translate(26 -1982)"><circle class="c" cx="2.5" cy="2.5" r="2.5" transform="translate(274 2072)"/></g><g transform="translate(41 -1982)"><circle class="c" cx="2.5" cy="2.5" r="2.5" transform="translate(274 2072)"/></g><g transform="translate(-274 -1967)"><circle class="c" cx="2.5" cy="2.5" r="2.5" transform="translate(274 2072)"/></g><g transform="translate(-259 -1967)"><circle class="c" cx="2.5" cy="2.5" r="2.5" transform="translate(274 2072)"/></g><g transform="translate(-244 -1967)"><circle class="c" cx="2.5" cy="2.5" r="2.5" transform="translate(274 2072)"/></g><g transform="translate(-229 -1967)"><circle class="c" cx="2.5" cy="2.5" r="2.5" transform="translate(274 2072)"/></g><g transform="translate(-214 -1967)"><circle class="c" cx="2.5" cy="2.5" r="2.5" transform="translate(274 2072)"/></g><g transform="translate(-199 -1967)"><circle class="c" cx="2.5" cy="2.5" r="2.5" transform="translate(274 2072)"/></g><g transform="translate(-184 -1967)"><circle class="c" cx="2.5" cy="2.5" r="2.5" transform="translate(274 2072)"/></g><g transform="translate(-169 -1967)"><circle class="c" cx="2.5" cy="2.5" r="2.5" transform="translate(274 2072)"/></g><g transform="translate(-154 -1967)"><circle class="c" cx="2.5" cy="2.5" r="2.5" transform="translate(274 2072)"/></g><g transform="translate(-139 -1967)"><circle class="c" cx="2.5" cy="2.5" r="2.5" transform="translate(274 2072)"/></g><g transform="translate(-124 -1967)"><circle class="c" cx="2.5" cy="2.5" r="2.5" transform="translate(274 2072)"/></g><g transform="translate(-109 -1967)"><circle class="c" cx="2.5" cy="2.5" r="2.5" transform="translate(274 2072)"/></g><g transform="translate(-94 -1967)"><circle class="c" cx="2.5" cy="2.5" r="2.5" transform="translate(274 2072)"/></g><g transform="translate(-79 -1967)"><circle class="c" cx="2.5" cy="2.5" r="2.5" transform="translate(274 2072)"/></g><g transform="translate(-64 -1967)"><circle class="c" cx="2.5" cy="2.5" r="2.5" transform="translate(274 2072)"/></g><g transform="translate(-49 -1967)"><circle class="c" cx="2.5" cy="2.5" r="2.5" transform="translate(274 2072)"/></g><g transform="translate(-34 -1967)"><circle class="c" cx="2.5" cy="2.5" r="2.5" transform="translate(274 2072)"/></g><g transform="translate(-19 -1967)"><circle class="c" cx="2.5" cy="2.5" r="2.5" transform="translate(274 2072)"/></g><g transform="translate(-4 -1967)"><circle class="c" cx="2.5" cy="2.5" r="2.5" transform="translate(274 2072)"/></g><g transform="translate(11 -1967)"><circle class="c" cx="2.5" cy="2.5" r="2.5" transform="translate(274 2072)"/></g><g transform="translate(26 -1967)"><circle class="c" cx="2.5" cy="2.5" r="2.5" transform="translate(274 2072)"/></g><g transform="translate(41 -1967)"><circle class="c" cx="2.5" cy="2.5" r="2.5" transform="translate(274 2072)"/></g><g transform="translate(-274 -1952)"><circle class="c" cx="2.5" cy="2.5" r="2.5" transform="translate(274 2072)"/></g><g transform="translate(-259 -1952)"><circle class="c" cx="2.5" cy="2.5" r="2.5" transform="translate(274 2072)"/></g><g transform="translate(-244 -1952)"><circle class="c" cx="2.5" cy="2.5" r="2.5" transform="translate(274 2072)"/></g><g transform="translate(-229 -1952)"><circle class="c" cx="2.5" cy="2.5" r="2.5" transform="translate(274 2072)"/></g><g transform="translate(-214 -1952)"><circle class="c" cx="2.5" cy="2.5" r="2.5" transform="translate(274 2072)"/></g><g transform="translate(-199 -1952)"><circle class="c" cx="2.5" cy="2.5" r="2.5" transform="translate(274 2072)"/></g><g transform="translate(-184 -1952)"><circle class="c" cx="2.5" cy="2.5" r="2.5" transform="translate(274 2072)"/></g><g transform="translate(-169 -1952)"><circle class="c" cx="2.5" cy="2.5" r="2.5" transform="translate(274 2072)"/></g><g transform="translate(-154 -1952)"><circle class="c" cx="2.5" cy="2.5" r="2.5" transform="translate(274 2072)"/></g><g transform="translate(-139 -1952)"><circle class="c" cx="2.5" cy="2.5" r="2.5" transform="translate(274 2072)"/></g><g transform="translate(-124 -1952)"><circle class="c" cx="2.5" cy="2.5" r="2.5" transform="translate(274 2072)"/></g><g transform="translate(-109 -1952)"><circle class="c" cx="2.5" cy="2.5" r="2.5" transform="translate(274 2072)"/></g><g transform="translate(-94 -1952)"><circle class="c" cx="2.5" cy="2.5" r="2.5" transform="translate(274 2072)"/></g><g transform="translate(-79 -1952)"><circle class="c" cx="2.5" cy="2.5" r="2.5" transform="translate(274 2072)"/></g><g transform="translate(-64 -1952)"><circle class="c" cx="2.5" cy="2.5" r="2.5" transform="translate(274 2072)"/></g><g transform="translate(-49 -1952)"><circle class="c" cx="2.5" cy="2.5" r="2.5" transform="translate(274 2072)"/></g><g transform="translate(-34 -1952)"><circle class="c" cx="2.5" cy="2.5" r="2.5" transform="translate(274 2072)"/></g><g transform="translate(-19 -1952)"><circle class="c" cx="2.5" cy="2.5" r="2.5" transform="translate(274 2072)"/></g><g transform="translate(-4 -1952)"><circle class="c" cx="2.5" cy="2.5" r="2.5" transform="translate(274 2072)"/></g><g transform="translate(11 -1952)"><circle class="c" cx="2.5" cy="2.5" r="2.5" transform="translate(274 2072)"/></g><g transform="translate(26 -1952)"><circle class="c" cx="2.5" cy="2.5" r="2.5" transform="translate(274 2072)"/></g><g transform="translate(41 -1952)"><circle class="c" cx="2.5" cy="2.5" r="2.5" transform="translate(274 2072)"/></g><g transform="translate(-274 -1937)"><circle class="c" cx="2.5" cy="2.5" r="2.5" transform="translate(274 2072)"/></g><g transform="translate(-259 -1937)"><circle class="c" cx="2.5" cy="2.5" r="2.5" transform="translate(274 2072)"/></g><g transform="translate(-244 -1937)"><circle class="c" cx="2.5" cy="2.5" r="2.5" transform="translate(274 2072)"/></g><g transform="translate(-229 -1937)"><circle class="c" cx="2.5" cy="2.5" r="2.5" transform="translate(274 2072)"/></g><g transform="translate(-214 -1937)"><circle class="c" cx="2.5" cy="2.5" r="2.5" transform="translate(274 2072)"/></g><g transform="translate(-199 -1937)"><circle class="c" cx="2.5" cy="2.5" r="2.5" transform="translate(274 2072)"/></g><g transform="translate(-184 -1937)"><circle class="c" cx="2.5" cy="2.5" r="2.5" transform="translate(274 2072)"/></g><g transform="translate(-169 -1937)"><circle class="c" cx="2.5" cy="2.5" r="2.5" transform="translate(274 2072)"/></g><g transform="translate(-154 -1937)"><circle class="c" cx="2.5" cy="2.5" r="2.5" transform="translate(274 2072)"/></g><g transform="translate(-139 -1937)"><circle class="c" cx="2.5" cy="2.5" r="2.5" transform="translate(274 2072)"/></g><g transform="translate(-124 -1937)"><circle class="c" cx="2.5" cy="2.5" r="2.5" transform="translate(274 2072)"/></g><g transform="translate(-109 -1937)"><circle class="c" cx="2.5" cy="2.5" r="2.5" transform="translate(274 2072)"/></g><g transform="translate(-94 -1937)"><circle class="c" cx="2.5" cy="2.5" r="2.5" transform="translate(274 2072)"/></g><g transform="translate(-79 -1937)"><circle class="c" cx="2.5" cy="2.5" r="2.5" transform="translate(274 2072)"/></g><g transform="translate(-64 -1937)"><circle class="c" cx="2.5" cy="2.5" r="2.5" transform="translate(274 2072)"/></g><g transform="translate(-49 -1937)"><circle class="c" cx="2.5" cy="2.5" r="2.5" transform="translate(274 2072)"/></g><g transform="translate(-34 -1937)"><circle class="c" cx="2.5" cy="2.5" r="2.5" transform="translate(274 2072)"/></g><g transform="translate(-19 -1937)"><circle class="c" cx="2.5" cy="2.5" r="2.5" transform="translate(274 2072)"/></g><g transform="translate(-4 -1937)"><circle class="c" cx="2.5" cy="2.5" r="2.5" transform="translate(274 2072)"/></g><g transform="translate(11 -1937)"><circle class="c" cx="2.5" cy="2.5" r="2.5" transform="translate(274 2072)"/></g><g transform="translate(26 -1937)"><circle class="c" cx="2.5" cy="2.5" r="2.5" transform="translate(274 2072)"/></g><g transform="translate(41 -1937)"><circle class="c" cx="2.5" cy="2.5" r="2.5" transform="translate(274 2072)"/></g><g transform="translate(-274 -1922)"><circle class="c" cx="2.5" cy="2.5" r="2.5" transform="translate(274 2072)"/></g><g transform="translate(-259 -1922)"><circle class="c" cx="2.5" cy="2.5" r="2.5" transform="translate(274 2072)"/></g><g transform="translate(-244 -1922)"><circle class="c" cx="2.5" cy="2.5" r="2.5" transform="translate(274 2072)"/></g><g transform="translate(-229 -1922)"><circle class="c" cx="2.5" cy="2.5" r="2.5" transform="translate(274 2072)"/></g><g transform="translate(-214 -1922)"><circle class="c" cx="2.5" cy="2.5" r="2.5" transform="translate(274 2072)"/></g><g transform="translate(-199 -1922)"><circle class="c" cx="2.5" cy="2.5" r="2.5" transform="translate(274 2072)"/></g><g transform="translate(-184 -1922)"><circle class="c" cx="2.5" cy="2.5" r="2.5" transform="translate(274 2072)"/></g><g transform="translate(-169 -1922)"><circle class="c" cx="2.5" cy="2.5" r="2.5" transform="translate(274 2072)"/></g><g transform="translate(-154 -1922)"><circle class="c" cx="2.5" cy="2.5" r="2.5" transform="translate(274 2072)"/></g><g transform="translate(-139 -1922)"><circle class="c" cx="2.5" cy="2.5" r="2.5" transform="translate(274 2072)"/></g><g transform="translate(-124 -1922)"><circle class="c" cx="2.5" cy="2.5" r="2.5" transform="translate(274 2072)"/></g><g transform="translate(-109 -1922)"><circle class="c" cx="2.5" cy="2.5" r="2.5" transform="translate(274 2072)"/></g><g transform="translate(-94 -1922)"><circle class="c" cx="2.5" cy="2.5" r="2.5" transform="translate(274 2072)"/></g><g transform="translate(-79 -1922)"><circle class="c" cx="2.5" cy="2.5" r="2.5" transform="translate(274 2072)"/></g><g transform="translate(-64 -1922)"><circle class="c" cx="2.5" cy="2.5" r="2.5" transform="translate(274 2072)"/></g><g transform="translate(-49 -1922)"><circle class="c" cx="2.5" cy="2.5" r="2.5" transform="translate(274 2072)"/></g><g transform="translate(-34 -1922)"><circle class="c" cx="2.5" cy="2.5" r="2.5" transform="translate(274 2072)"/></g><g transform="translate(-19 -1922)"><circle class="c" cx="2.5" cy="2.5" r="2.5" transform="translate(274 2072)"/></g><g transform="translate(-4 -1922)"><circle class="c" cx="2.5" cy="2.5" r="2.5" transform="translate(274 2072)"/></g><g transform="translate(11 -1922)"><circle class="c" cx="2.5" cy="2.5" r="2.5" transform="translate(274 2072)"/></g><g transform="translate(26 -1922)"><circle class="c" cx="2.5" cy="2.5" r="2.5" transform="translate(274 2072)"/></g><g transform="translate(41 -1922)"><circle class="c" cx="2.5" cy="2.5" r="2.5" transform="translate(274 2072)"/></g><g transform="translate(-274 -1907)"><circle class="c" cx="2.5" cy="2.5" r="2.5" transform="translate(274 2072)"/></g><g transform="translate(-259 -1907)"><circle class="c" cx="2.5" cy="2.5" r="2.5" transform="translate(274 2072)"/></g><g transform="translate(-244 -1907)"><circle class="c" cx="2.5" cy="2.5" r="2.5" transform="translate(274 2072)"/></g><g transform="translate(-229 -1907)"><circle class="c" cx="2.5" cy="2.5" r="2.5" transform="translate(274 2072)"/></g><g transform="translate(-214 -1907)"><circle class="c" cx="2.5" cy="2.5" r="2.5" transform="translate(274 2072)"/></g><g transform="translate(-199 -1907)"><circle class="c" cx="2.5" cy="2.5" r="2.5" transform="translate(274 2072)"/></g><g transform="translate(-184 -1907)"><circle class="c" cx="2.5" cy="2.5" r="2.5" transform="translate(274 2072)"/></g><g transform="translate(-169 -1907)"><circle class="c" cx="2.5" cy="2.5" r="2.5" transform="translate(274 2072)"/></g><g transform="translate(-154 -1907)"><circle class="c" cx="2.5" cy="2.5" r="2.5" transform="translate(274 2072)"/></g><g transform="translate(-139 -1907)"><circle class="c" cx="2.5" cy="2.5" r="2.5" transform="translate(274 2072)"/></g><g transform="translate(-124 -1907)"><circle class="c" cx="2.5" cy="2.5" r="2.5" transform="translate(274 2072)"/></g><g transform="translate(-109 -1907)"><circle class="c" cx="2.5" cy="2.5" r="2.5" transform="translate(274 2072)"/></g><g transform="translate(-94 -1907)"><circle class="c" cx="2.5" cy="2.5" r="2.5" transform="translate(274 2072)"/></g><g transform="translate(-79 -1907)"><circle class="c" cx="2.5" cy="2.5" r="2.5" transform="translate(274 2072)"/></g><g transform="translate(-64 -1907)"><circle class="c" cx="2.5" cy="2.5" r="2.5" transform="translate(274 2072)"/></g><g transform="translate(-49 -1907)"><circle class="c" cx="2.5" cy="2.5" r="2.5" transform="translate(274 2072)"/></g><g transform="translate(-34 -1907)"><circle class="c" cx="2.5" cy="2.5" r="2.5" transform="translate(274 2072)"/></g><g transform="translate(-19 -1907)"><circle class="c" cx="2.5" cy="2.5" r="2.5" transform="translate(274 2072)"/></g><g transform="translate(-4 -1907)"><circle class="c" cx="2.5" cy="2.5" r="2.5" transform="translate(274 2072)"/></g><g transform="translate(11 -1907)"><circle class="c" cx="2.5" cy="2.5" r="2.5" transform="translate(274 2072)"/></g><g transform="translate(26 -1907)"><circle class="c" cx="2.5" cy="2.5" r="2.5" transform="translate(274 2072)"/></g><g transform="translate(41 -1907)"><circle class="c" cx="2.5" cy="2.5" r="2.5" transform="translate(274 2072)"/></g><g transform="translate(-274 -1892)"><circle class="c" cx="2.5" cy="2.5" r="2.5" transform="translate(274 2072)"/></g><g transform="translate(-259 -1892)"><circle class="c" cx="2.5" cy="2.5" r="2.5" transform="translate(274 2072)"/></g><g transform="translate(-244 -1892)"><circle class="c" cx="2.5" cy="2.5" r="2.5" transform="translate(274 2072)"/></g><g transform="translate(-229 -1892)"><circle class="c" cx="2.5" cy="2.5" r="2.5" transform="translate(274 2072)"/></g><g transform="translate(-214 -1892)"><circle class="c" cx="2.5" cy="2.5" r="2.5" transform="translate(274 2072)"/></g><g transform="translate(-199 -1892)"><circle class="c" cx="2.5" cy="2.5" r="2.5" transform="translate(274 2072)"/></g><g transform="translate(-184 -1892)"><circle class="c" cx="2.5" cy="2.5" r="2.5" transform="translate(274 2072)"/></g><g transform="translate(-169 -1892)"><circle class="c" cx="2.5" cy="2.5" r="2.5" transform="translate(274 2072)"/></g><g transform="translate(-154 -1892)"><circle class="c" cx="2.5" cy="2.5" r="2.5" transform="translate(274 2072)"/></g><g transform="translate(-139 -1892)"><circle class="c" cx="2.5" cy="2.5" r="2.5" transform="translate(274 2072)"/></g><g transform="translate(-124 -1892)"><circle class="c" cx="2.5" cy="2.5" r="2.5" transform="translate(274 2072)"/></g><g transform="translate(-109 -1892)"><circle class="c" cx="2.5" cy="2.5" r="2.5" transform="translate(274 2072)"/></g><g transform="translate(-94 -1892)"><circle class="c" cx="2.5" cy="2.5" r="2.5" transform="translate(274 2072)"/></g><g transform="translate(-79 -1892)"><circle class="c" cx="2.5" cy="2.5" r="2.5" transform="translate(274 2072)"/></g><g transform="translate(-64 -1892)"><circle class="c" cx="2.5" cy="2.5" r="2.5" transform="translate(274 2072)"/></g><g transform="translate(-49 -1892)"><circle class="c" cx="2.5" cy="2.5" r="2.5" transform="translate(274 2072)"/></g><g transform="translate(-34 -1892)"><circle class="c" cx="2.5" cy="2.5" r="2.5" transform="translate(274 2072)"/></g><g transform="translate(-19 -1892)"><circle class="c" cx="2.5" cy="2.5" r="2.5" transform="translate(274 2072)"/></g><g transform="translate(-4 -1892)"><circle class="c" cx="2.5" cy="2.5" r="2.5" transform="translate(274 2072)"/></g><g transform="translate(11 -1892)"><circle class="c" cx="2.5" cy="2.5" r="2.5" transform="translate(274 2072)"/></g><g transform="translate(26 -1892)"><circle class="c" cx="2.5" cy="2.5" r="2.5" transform="translate(274 2072)"/></g><g transform="translate(41 -1892)"><circle class="c" cx="2.5" cy="2.5" r="2.5" transform="translate(274 2072)"/></g><g transform="translate(-274 -1877)"><circle class="c" cx="2.5" cy="2.5" r="2.5" transform="translate(274 2072)"/></g><g transform="translate(-259 -1877)"><circle class="c" cx="2.5" cy="2.5" r="2.5" transform="translate(274 2072)"/></g><g transform="translate(-244 -1877)"><circle class="c" cx="2.5" cy="2.5" r="2.5" transform="translate(274 2072)"/></g><g transform="translate(-229 -1877)"><circle class="c" cx="2.5" cy="2.5" r="2.5" transform="translate(274 2072)"/></g><g transform="translate(-214 -1877)"><circle class="c" cx="2.5" cy="2.5" r="2.5" transform="translate(274 2072)"/></g><g transform="translate(-199 -1877)"><circle class="c" cx="2.5" cy="2.5" r="2.5" transform="translate(274 2072)"/></g><g transform="translate(-184 -1877)"><circle class="c" cx="2.5" cy="2.5" r="2.5" transform="translate(274 2072)"/></g><g transform="translate(-169 -1877)"><circle class="c" cx="2.5" cy="2.5" r="2.5" transform="translate(274 2072)"/></g><g transform="translate(-154 -1877)"><circle class="c" cx="2.5" cy="2.5" r="2.5" transform="translate(274 2072)"/></g><g transform="translate(-139 -1877)"><circle class="c" cx="2.5" cy="2.5" r="2.5" transform="translate(274 2072)"/></g><g transform="translate(-124 -1877)"><circle class="c" cx="2.5" cy="2.5" r="2.5" transform="translate(274 2072)"/></g><g transform="translate(-109 -1877)"><circle class="c" cx="2.5" cy="2.5" r="2.5" transform="translate(274 2072)"/></g><g transform="translate(-94 -1877)"><circle class="c" cx="2.5" cy="2.5" r="2.5" transform="translate(274 2072)"/></g><g transform="translate(-79 -1877)"><circle class="c" cx="2.5" cy="2.5" r="2.5" transform="translate(274 2072)"/></g><g transform="translate(-64 -1877)"><circle class="c" cx="2.5" cy="2.5" r="2.5" transform="translate(274 2072)"/></g><g transform="translate(-49 -1877)"><circle class="c" cx="2.5" cy="2.5" r="2.5" transform="translate(274 2072)"/></g><g transform="translate(-34 -1877)"><circle class="c" cx="2.5" cy="2.5" r="2.5" transform="translate(274 2072)"/></g><g transform="translate(-19 -1877)"><circle class="c" cx="2.5" cy="2.5" r="2.5" transform="translate(274 2072)"/></g><g transform="translate(-4 -1877)"><circle class="c" cx="2.5" cy="2.5" r="2.5" transform="translate(274 2072)"/></g><g transform="translate(11 -1877)"><circle class="c" cx="2.5" cy="2.5" r="2.5" transform="translate(274 2072)"/></g><g transform="translate(26 -1877)"><circle class="c" cx="2.5" cy="2.5" r="2.5" transform="translate(274 2072)"/></g><g transform="translate(41 -1877)"><circle class="c" cx="2.5" cy="2.5" r="2.5" transform="translate(274 2072)"/></g><g transform="translate(-274 -1862)"><circle class="c" cx="2.5" cy="2.5" r="2.5" transform="translate(274 2072)"/></g><g transform="translate(-259 -1862)"><circle class="c" cx="2.5" cy="2.5" r="2.5" transform="translate(274 2072)"/></g><g transform="translate(-244 -1862)"><circle class="c" cx="2.5" cy="2.5" r="2.5" transform="translate(274 2072)"/></g><g transform="translate(-229 -1862)"><circle class="c" cx="2.5" cy="2.5" r="2.5" transform="translate(274 2072)"/></g><g transform="translate(-214 -1862)"><circle class="c" cx="2.5" cy="2.5" r="2.5" transform="translate(274 2072)"/></g><g transform="translate(-199 -1862)"><circle class="c" cx="2.5" cy="2.5" r="2.5" transform="translate(274 2072)"/></g><g transform="translate(-184 -1862)"><circle class="c" cx="2.5" cy="2.5" r="2.5" transform="translate(274 2072)"/></g><g transform="translate(-169 -1862)"><circle class="c" cx="2.5" cy="2.5" r="2.5" transform="translate(274 2072)"/></g><g transform="translate(-154 -1862)"><circle class="c" cx="2.5" cy="2.5" r="2.5" transform="translate(274 2072)"/></g><g transform="translate(-139 -1862)"><circle class="c" cx="2.5" cy="2.5" r="2.5" transform="translate(274 2072)"/></g><g transform="translate(-124 -1862)"><circle class="c" cx="2.5" cy="2.5" r="2.5" transform="translate(274 2072)"/></g><g transform="translate(-109 -1862)"><circle class="c" cx="2.5" cy="2.5" r="2.5" transform="translate(274 2072)"/></g><g transform="translate(-94 -1862)"><circle class="c" cx="2.5" cy="2.5" r="2.5" transform="translate(274 2072)"/></g><g transform="translate(-79 -1862)"><circle class="c" cx="2.5" cy="2.5" r="2.5" transform="translate(274 2072)"/></g><g transform="translate(-64 -1862)"><circle class="c" cx="2.5" cy="2.5" r="2.5" transform="translate(274 2072)"/></g><g transform="translate(-49 -1862)"><circle class="c" cx="2.5" cy="2.5" r="2.5" transform="translate(274 2072)"/></g><g transform="translate(-34 -1862)"><circle class="c" cx="2.5" cy="2.5" r="2.5" transform="translate(274 2072)"/></g><g transform="translate(-19 -1862)"><circle class="c" cx="2.5" cy="2.5" r="2.5" transform="translate(274 2072)"/></g><g transform="translate(-4 -1862)"><circle class="c" cx="2.5" cy="2.5" r="2.5" transform="translate(274 2072)"/></g><g transform="translate(11 -1862)"><circle class="c" cx="2.5" cy="2.5" r="2.5" transform="translate(274 2072)"/></g><g transform="translate(26 -1862)"><circle class="c" cx="2.5" cy="2.5" r="2.5" transform="translate(274 2072)"/></g><g transform="translate(41 -1862)"><circle class="c" cx="2.5" cy="2.5" r="2.5" transform="translate(274 2072)"/></g><g transform="translate(-274 -1847)"><circle class="c" cx="2.5" cy="2.5" r="2.5" transform="translate(274 2072)"/></g><g transform="translate(-259 -1847)"><circle class="c" cx="2.5" cy="2.5" r="2.5" transform="translate(274 2072)"/></g><g transform="translate(-244 -1847)"><circle class="c" cx="2.5" cy="2.5" r="2.5" transform="translate(274 2072)"/></g><g transform="translate(-229 -1847)"><circle class="c" cx="2.5" cy="2.5" r="2.5" transform="translate(274 2072)"/></g><g transform="translate(-214 -1847)"><circle class="c" cx="2.5" cy="2.5" r="2.5" transform="translate(274 2072)"/></g><g transform="translate(-199 -1847)"><circle class="c" cx="2.5" cy="2.5" r="2.5" transform="translate(274 2072)"/></g><g transform="translate(-184 -1847)"><circle class="c" cx="2.5" cy="2.5" r="2.5" transform="translate(274 2072)"/></g><g transform="translate(-169 -1847)"><circle class="c" cx="2.5" cy="2.5" r="2.5" transform="translate(274 2072)"/></g><g transform="translate(-154 -1847)"><circle class="c" cx="2.5" cy="2.5" r="2.5" transform="translate(274 2072)"/></g><g transform="translate(-139 -1847)"><circle class="c" cx="2.5" cy="2.5" r="2.5" transform="translate(274 2072)"/></g><g transform="translate(-124 -1847)"><circle class="c" cx="2.5" cy="2.5" r="2.5" transform="translate(274 2072)"/></g><g transform="translate(-109 -1847)"><circle class="c" cx="2.5" cy="2.5" r="2.5" transform="translate(274 2072)"/></g><g transform="translate(-94 -1847)"><circle class="c" cx="2.5" cy="2.5" r="2.5" transform="translate(274 2072)"/></g><g transform="translate(-79 -1847)"><circle class="c" cx="2.5" cy="2.5" r="2.5" transform="translate(274 2072)"/></g><g transform="translate(-64 -1847)"><circle class="c" cx="2.5" cy="2.5" r="2.5" transform="translate(274 2072)"/></g><g transform="translate(-49 -1847)"><circle class="c" cx="2.5" cy="2.5" r="2.5" transform="translate(274 2072)"/></g><g transform="translate(-34 -1847)"><circle class="c" cx="2.5" cy="2.5" r="2.5" transform="translate(274 2072)"/></g><g transform="translate(-19 -1847)"><circle class="c" cx="2.5" cy="2.5" r="2.5" transform="translate(274 2072)"/></g><g transform="translate(-4 -1847)"><circle class="c" cx="2.5" cy="2.5" r="2.5" transform="translate(274 2072)"/></g><g transform="translate(11 -1847)"><circle class="c" cx="2.5" cy="2.5" r="2.5" transform="translate(274 2072)"/></g><g transform="translate(26 -1847)"><circle class="c" cx="2.5" cy="2.5" r="2.5" transform="translate(274 2072)"/></g><g transform="translate(41 -1847)"><circle class="c" cx="2.5" cy="2.5" r="2.5" transform="translate(274 2072)"/></g><g transform="translate(-274 -1832)"><circle class="c" cx="2.5" cy="2.5" r="2.5" transform="translate(274 2072)"/></g><g transform="translate(-259 -1832)"><circle class="c" cx="2.5" cy="2.5" r="2.5" transform="translate(274 2072)"/></g><g transform="translate(-244 -1832)"><circle class="c" cx="2.5" cy="2.5" r="2.5" transform="translate(274 2072)"/></g><g transform="translate(-229 -1832)"><circle class="c" cx="2.5" cy="2.5" r="2.5" transform="translate(274 2072)"/></g><g transform="translate(-214 -1832)"><circle class="c" cx="2.5" cy="2.5" r="2.5" transform="translate(274 2072)"/></g><g transform="translate(-199 -1832)"><circle class="c" cx="2.5" cy="2.5" r="2.5" transform="translate(274 2072)"/></g><g transform="translate(-184 -1832)"><circle class="c" cx="2.5" cy="2.5" r="2.5" transform="translate(274 2072)"/></g><g transform="translate(-169 -1832)"><circle class="c" cx="2.5" cy="2.5" r="2.5" transform="translate(274 2072)"/></g><g transform="translate(-154 -1832)"><circle class="c" cx="2.5" cy="2.5" r="2.5" transform="translate(274 2072)"/></g><g transform="translate(-139 -1832)"><circle class="c" cx="2.5" cy="2.5" r="2.5" transform="translate(274 2072)"/></g><g transform="translate(-124 -1832)"><circle class="c" cx="2.5" cy="2.5" r="2.5" transform="translate(274 2072)"/></g><g transform="translate(-109 -1832)"><circle class="c" cx="2.5" cy="2.5" r="2.5" transform="translate(274 2072)"/></g><g transform="translate(-94 -1832)"><circle class="c" cx="2.5" cy="2.5" r="2.5" transform="translate(274 2072)"/></g><g transform="translate(-79 -1832)"><circle class="c" cx="2.5" cy="2.5" r="2.5" transform="translate(274 2072)"/></g><g transform="translate(-64 -1832)"><circle class="c" cx="2.5" cy="2.5" r="2.5" transform="translate(274 2072)"/></g><g transform="translate(-49 -1832)"><circle class="c" cx="2.5" cy="2.5" r="2.5" transform="translate(274 2072)"/></g><g transform="translate(-34 -1832)"><circle class="c" cx="2.5" cy="2.5" r="2.5" transform="translate(274 2072)"/></g><g transform="translate(-19 -1832)"><circle class="c" cx="2.5" cy="2.5" r="2.5" transform="translate(274 2072)"/></g><g transform="translate(-4 -1832)"><circle class="c" cx="2.5" cy="2.5" r="2.5" transform="translate(274 2072)"/></g><g transform="translate(11 -1832)"><circle class="c" cx="2.5" cy="2.5" r="2.5" transform="translate(274 2072)"/></g><g transform="translate(26 -1832)"><circle class="c" cx="2.5" cy="2.5" r="2.5" transform="translate(274 2072)"/></g><g transform="translate(41 -1832)"><circle class="c" cx="2.5" cy="2.5" r="2.5" transform="translate(274 2072)"/></g><g transform="translate(-274 -1817)"><circle class="c" cx="2.5" cy="2.5" r="2.5" transform="translate(274 2072)"/></g><g transform="translate(-259 -1817)"><circle class="c" cx="2.5" cy="2.5" r="2.5" transform="translate(274 2072)"/></g><g transform="translate(-244 -1817)"><circle class="c" cx="2.5" cy="2.5" r="2.5" transform="translate(274 2072)"/></g><g transform="translate(-229 -1817)"><circle class="c" cx="2.5" cy="2.5" r="2.5" transform="translate(274 2072)"/></g><g transform="translate(-214 -1817)"><circle class="c" cx="2.5" cy="2.5" r="2.5" transform="translate(274 2072)"/></g><g transform="translate(-199 -1817)"><circle class="c" cx="2.5" cy="2.5" r="2.5" transform="translate(274 2072)"/></g><g transform="translate(-184 -1817)"><circle class="c" cx="2.5" cy="2.5" r="2.5" transform="translate(274 2072)"/></g><g transform="translate(-169 -1817)"><circle class="c" cx="2.5" cy="2.5" r="2.5" transform="translate(274 2072)"/></g><g transform="translate(-154 -1817)"><circle class="c" cx="2.5" cy="2.5" r="2.5" transform="translate(274 2072)"/></g><g transform="translate(-139 -1817)"><circle class="c" cx="2.5" cy="2.5" r="2.5" transform="translate(274 2072)"/></g><g transform="translate(-124 -1817)"><circle class="c" cx="2.5" cy="2.5" r="2.5" transform="translate(274 2072)"/></g><g transform="translate(-109 -1817)"><circle class="c" cx="2.5" cy="2.5" r="2.5" transform="translate(274 2072)"/></g><g transform="translate(-94 -1817)"><circle class="c" cx="2.5" cy="2.5" r="2.5" transform="translate(274 2072)"/></g><g transform="translate(-79 -1817)"><circle class="c" cx="2.5" cy="2.5" r="2.5" transform="translate(274 2072)"/></g><g transform="translate(-64 -1817)"><circle class="c" cx="2.5" cy="2.5" r="2.5" transform="translate(274 2072)"/></g><g transform="translate(-49 -1817)"><circle class="c" cx="2.5" cy="2.5" r="2.5" transform="translate(274 2072)"/></g><g transform="translate(-34 -1817)"><circle class="c" cx="2.5" cy="2.5" r="2.5" transform="translate(274 2072)"/></g><g transform="translate(-19 -1817)"><circle class="c" cx="2.5" cy="2.5" r="2.5" transform="translate(274 2072)"/></g><g transform="translate(-4 -1817)"><circle class="c" cx="2.5" cy="2.5" r="2.5" transform="translate(274 2072)"/></g><g transform="translate(11 -1817)"><circle class="c" cx="2.5" cy="2.5" r="2.5" transform="translate(274 2072)"/></g><g transform="translate(26 -1817)"><circle class="c" cx="2.5" cy="2.5" r="2.5" transform="translate(274 2072)"/></g><g transform="translate(41 -1817)"><circle class="c" cx="2.5" cy="2.5" r="2.5" transform="translate(274 2072)"/></g></g></svg>