<svg xmlns="http://www.w3.org/2000/svg" width="26.179" height="20.364"><path data-name="Path 5782" d="M4.761 20.248V18.9a.8.8 0 00-.845-.854.833.833 0 00-.755.382.788.788 0 00-.71-.382.711.711 0 00-.629.319V18.1h-.467v2.148h.472v-1.191a.5.5 0 01.526-.571c.31 0 .467.2.467.566v1.2h.472v-1.191a.507.507 0 01.526-.571c.319 0 .472.2.472.566v1.2zm6.984-2.148h-.764v-.652h-.472v.652h-.436v.427h.436v.979c0 .5.193.8.746.8a1.1 1.1 0 00.584-.166l-.134-.4a.863.863 0 01-.414.121c-.234 0-.31-.144-.31-.359v-.971h.764zm3.986-.054a.634.634 0 00-.566.315V18.1h-.463v2.148h.467v-1.2c0-.355.153-.553.459-.553a.767.767 0 01.292.054l.144-.44a1.007 1.007 0 00-.333-.059m-6.027.225a1.6 1.6 0 00-.876-.225c-.544 0-.894.261-.894.688 0 .35.26.566.741.634l.221.031c.256.036.377.1.377.224 0 .166-.17.261-.489.261a1.145 1.145 0 01-.715-.225l-.22.364a1.55 1.55 0 00.93.279c.62 0 .98-.292.98-.7 0-.378-.283-.575-.751-.643l-.22-.032c-.2-.027-.364-.067-.364-.211s.153-.252.409-.252a1.383 1.383 0 01.67.185zm12.52-.225a.633.633 0 00-.566.315v-.261h-.463v2.148h.467v-1.2c0-.355.153-.553.459-.553a.768.768 0 01.292.054l.143-.44a1 1 0 00-.333-.059m-6.022 1.128a1.085 1.085 0 001.146 1.128 1.123 1.123 0 00.773-.256l-.224-.378a.944.944 0 01-.562.193.689.689 0 010-1.375.944.944 0 01.562.193l.224-.378a1.125 1.125 0 00-.773-.256 1.085 1.085 0 00-1.146 1.128m4.377 0v-1.074h-.467v.261a.814.814 0 00-.678-.315 1.129 1.129 0 000 2.256.815.815 0 00.678-.314v.26h.467zm-1.739 0a.651.651 0 11.652.688.645.645 0 01-.652-.688m-5.64-1.128a1.129 1.129 0 00.032 2.256 1.307 1.307 0 00.881-.3l-.229-.346a1.023 1.023 0 01-.625.224.6.6 0 01-.643-.526h1.6c0-.059.009-.117.009-.18a1.03 1.03 0 00-1.02-1.128m-.009.418a.534.534 0 01.544.521h-1.114a.553.553 0 01.571-.521m11.725.71v-1.937h-.467v1.119a.814.814 0 00-.678-.315 1.129 1.129 0 000 2.256.815.815 0 00.678-.314v.26h.467zm-1.739 0a.651.651 0 11.652.688.644.644 0 01-.652-.688m-15.783 0v-1.074h-.467v.261a.816.816 0 00-.679-.315 1.129 1.129 0 000 2.256.816.816 0 00.679-.314v.26h.467zm-1.739 0a.65.65 0 11.652.688.644.644 0 01-.652-.688m20.04.763a.211.211 0 01.085.017.219.219 0 01.069.045.228.228 0 01.047.068.212.212 0 01.017.083.208.208 0 01-.017.083.222.222 0 01-.047.068.231.231 0 01-.069.046.212.212 0 01-.085.017.216.216 0 01-.086-.017.219.219 0 01-.069-.046.214.214 0 01-.047-.068.208.208 0 01-.017-.083.212.212 0 01.017-.083.219.219 0 01.047-.068.209.209 0 01.069-.045.215.215 0 01.086-.017m0 .38a.155.155 0 00.064-.013.165.165 0 00.052-.036.17.17 0 00.036-.183.166.166 0 00-.036-.053.172.172 0 00-.052-.036.163.163 0 00-.064-.013.171.171 0 00-.066.013.164.164 0 00-.1.153.163.163 0 00.048.118.16.16 0 00.053.036.162.162 0 00.066.013m.013-.266a.094.094 0 01.059.017.058.058 0 01.02.047.055.055 0 01-.016.041.081.081 0 01-.047.019l.065.075h-.051l-.06-.074h-.019v.074h-.042v-.2zm-.049.037v.053h.049a.05.05 0 00.027-.006.023.023 0 00.01-.02.022.022 0 00-.01-.02.05.05 0 00-.027-.006z" fill="#050605"/><path data-name="Rectangle 668" fill="#ed4c14" d="M9.55 1.73h7.079v12.721H9.55z"/><path data-name="Path 5783" d="M10 8.09a8.077 8.077 0 013.09-6.36 8.09 8.09 0 100 12.721A8.077 8.077 0 0110 8.091" fill="#db0019"/><path data-name="Path 5784" d="M26.183 8.09a8.09 8.09 0 01-13.089 6.36 8.092 8.092 0 000-12.721 8.09 8.09 0 0113.089 6.36m-.772 5.013v-.26h.105v-.053h-.268v.053h.105v.26zm.519 0v-.314h-.082l-.094.216-.094-.216h-.082v.314h.057v-.237l.088.2h.06l.088-.205v.237z" fill="#fa8a06"/></svg>