<svg xmlns="http://www.w3.org/2000/svg" width="26.179" height="20.364" viewBox="0 0 26.179 20.364">
  <g id="Mastecard" transform="translate(0 0)">
    <path id="Path_5782" data-name="Path 5782" d="M106.774,350.785v-1.348a.8.8,0,0,0-.845-.854.833.833,0,0,0-.755.382.788.788,0,0,0-.71-.382.711.711,0,0,0-.629.319v-.265h-.467v2.148h.472v-1.191a.5.5,0,0,1,.526-.571c.31,0,.467.2.467.566v1.2h.472v-1.191a.507.507,0,0,1,.526-.571c.319,0,.472.2.472.566v1.2Zm6.984-2.148h-.764v-.652h-.472v.652h-.436v.427h.436v.979c0,.5.193.8.746.8a1.1,1.1,0,0,0,.584-.166l-.134-.4a.863.863,0,0,1-.414.121c-.234,0-.31-.144-.31-.359v-.971h.764Zm3.986-.054a.634.634,0,0,0-.566.315v-.261h-.463v2.148h.467v-1.2c0-.355.153-.553.459-.553a.767.767,0,0,1,.292.054l.144-.44a1.007,1.007,0,0,0-.333-.059m-6.027.225a1.6,1.6,0,0,0-.876-.225c-.544,0-.894.261-.894.688,0,.35.26.566.741.634l.221.031c.256.036.377.1.377.224,0,.166-.17.261-.489.261a1.145,1.145,0,0,1-.715-.225l-.22.364a1.55,1.55,0,0,0,.93.279c.62,0,.98-.292.98-.7,0-.378-.283-.575-.751-.643l-.22-.032c-.2-.027-.364-.067-.364-.211s.153-.252.409-.252a1.383,1.383,0,0,1,.67.185Zm12.52-.225a.633.633,0,0,0-.566.315v-.261h-.463v2.148h.467v-1.2c0-.355.153-.553.459-.553a.768.768,0,0,1,.292.054l.143-.44a1,1,0,0,0-.333-.059m-6.022,1.128a1.085,1.085,0,0,0,1.146,1.128,1.123,1.123,0,0,0,.773-.256l-.224-.378a.944.944,0,0,1-.562.193.689.689,0,0,1,0-1.375.944.944,0,0,1,.562.193l.224-.378a1.125,1.125,0,0,0-.773-.256,1.085,1.085,0,0,0-1.146,1.128m4.377,0v-1.074h-.467v.261a.814.814,0,0,0-.678-.315,1.129,1.129,0,0,0,0,2.256.815.815,0,0,0,.678-.314v.26h.467Zm-1.739,0a.651.651,0,1,1,.652.688.645.645,0,0,1-.652-.688m-5.64-1.128a1.129,1.129,0,0,0,.032,2.256,1.307,1.307,0,0,0,.881-.3l-.229-.346a1.023,1.023,0,0,1-.625.224.6.6,0,0,1-.643-.526h1.6c0-.059.009-.117.009-.18a1.03,1.03,0,0,0-1.02-1.128m-.009.418a.534.534,0,0,1,.544.521h-1.114a.553.553,0,0,1,.571-.521m11.725.71v-1.937h-.467V348.9a.814.814,0,0,0-.678-.315,1.129,1.129,0,0,0,0,2.256.815.815,0,0,0,.678-.314v.26h.467Zm-1.739,0a.651.651,0,1,1,.652.688.644.644,0,0,1-.652-.688m-15.783,0v-1.074h-.467v.261a.816.816,0,0,0-.679-.315,1.129,1.129,0,0,0,0,2.256.816.816,0,0,0,.679-.314v.26h.467Zm-1.739,0a.65.65,0,1,1,.652.688.644.644,0,0,1-.652-.688m20.04.763a.211.211,0,0,1,.085.017.219.219,0,0,1,.069.045.228.228,0,0,1,.047.068.212.212,0,0,1,.017.083.208.208,0,0,1-.017.083.222.222,0,0,1-.047.068.231.231,0,0,1-.069.046.212.212,0,0,1-.085.017.216.216,0,0,1-.086-.017.219.219,0,0,1-.069-.046.214.214,0,0,1-.047-.068.208.208,0,0,1-.017-.083.212.212,0,0,1,.017-.083.219.219,0,0,1,.047-.068.209.209,0,0,1,.069-.045.215.215,0,0,1,.086-.017m0,.38a.155.155,0,0,0,.064-.013.165.165,0,0,0,.052-.036.17.17,0,0,0,.036-.183.166.166,0,0,0-.036-.053.172.172,0,0,0-.052-.036.163.163,0,0,0-.064-.013.171.171,0,0,0-.066.013.164.164,0,0,0-.1.153.163.163,0,0,0,.048.118.16.16,0,0,0,.053.036.162.162,0,0,0,.066.013m.013-.266a.094.094,0,0,1,.059.017.058.058,0,0,1,.02.047.055.055,0,0,1-.016.041.081.081,0,0,1-.047.019l.065.075h-.051l-.06-.074h-.019v.074h-.042v-.2Zm-.049.037v.053h.049a.05.05,0,0,0,.027-.006.023.023,0,0,0,.01-.02.022.022,0,0,0-.01-.02.05.05,0,0,0-.027-.006Z" transform="translate(-102.013 -330.537)" fill="#050605"/>
    <rect id="Rectangle_668" data-name="Rectangle 668" width="7.079" height="12.721" transform="translate(9.55 1.73)" fill="#ed4c14"/>
    <path id="Path_5783" data-name="Path 5783" d="M95.737,131.647a8.077,8.077,0,0,1,3.09-6.36,8.09,8.09,0,1,0,0,12.721,8.077,8.077,0,0,1-3.09-6.36" transform="translate(-85.737 -123.557)" fill="#db0019"/>
    <path id="Path_5784" data-name="Path 5784" d="M269.1,131.647a8.09,8.09,0,0,1-13.089,6.36,8.092,8.092,0,0,0,0-12.721,8.09,8.09,0,0,1,13.089,6.36m-.772,5.013v-.26h.105v-.053h-.268v.053h.105v.26Zm.519,0v-.314h-.082l-.094.216-.094-.216h-.082v.314h.057v-.237l.088.2h.06l.088-.205v.237Z" transform="translate(-242.917 -123.557)" fill="#fa8a06"/>
  </g>
</svg>
