<svg id="Paypal" xmlns="http://www.w3.org/2000/svg" width="21.521" height="21.301" viewBox="0 0 21.521 21.301">
  <g id="Group_2193" data-name="Group 2193" transform="translate(0 15.567)">
    <g id="Group_2192" data-name="Group 2192" transform="translate(0 0)">
      <g id="Group_2191" data-name="Group 2191">
        <g id="Group_2190" data-name="Group 2190">
          <path id="Path_1656" data-name="Path 1656" d="M414.34,657.459h-1.674a.232.232,0,0,0-.23.2l-.677,4.292a.139.139,0,0,0,.138.161h.859a.163.163,0,0,0,.161-.137l.192-1.217a.233.233,0,0,1,.23-.2h.53a1.719,1.719,0,0,0,1.905-1.591,1.289,1.289,0,0,0-.214-1.08A1.553,1.553,0,0,0,414.34,657.459Zm.193,1.568c-.091.6-.55.6-.994.6h-.253l.177-1.122a.14.14,0,0,1,.138-.118h.116c.3,0,.588,0,.735.172A.559.559,0,0,1,414.533,659.027Z" transform="translate(-399.818 -657.459)" fill="#008ad8"/>
          <path id="Path_1657" data-name="Path 1657" d="M260.8,657.459H259.13a.233.233,0,0,0-.23.2l-.677,4.292a.14.14,0,0,0,.138.161h.8a.233.233,0,0,0,.23-.2l.183-1.158a.233.233,0,0,1,.23-.2h.53a1.719,1.719,0,0,0,1.905-1.591,1.289,1.289,0,0,0-.214-1.08A1.553,1.553,0,0,0,260.8,657.459Zm.193,1.568c-.091.6-.55.6-.994.6h-.253l.177-1.122a.14.14,0,0,1,.138-.118h.116c.3,0,.588,0,.735.172A.559.559,0,0,1,261,659.027Z" transform="translate(-258.222 -657.459)" fill="#002575"/>
          <path id="Path_1658" data-name="Path 1658" d="M310.814,676.477h-.8a.139.139,0,0,0-.138.118l-.035.224-.056-.081a1.141,1.141,0,0,0-.947-.336,1.843,1.843,0,0,0-1.789,1.612,1.513,1.513,0,0,0,.3,1.231,1.254,1.254,0,0,0,1.009.408,1.535,1.535,0,0,0,1.11-.459l-.036.223a.14.14,0,0,0,.138.161h.722a.233.233,0,0,0,.23-.2l.433-2.744A.139.139,0,0,0,310.814,676.477Zm-1.117,1.56a.894.894,0,0,1-.9.765.621.621,0,0,1-.664-.779.9.9,0,0,1,.9-.771.675.675,0,0,1,.534.218A.69.69,0,0,1,309.7,678.038Z" transform="translate(-303.228 -674.929)" fill="#002575"/>
          <path id="Path_1659" data-name="Path 1659" d="M464.35,676.477h-.8a.139.139,0,0,0-.138.118l-.035.224-.056-.081a1.141,1.141,0,0,0-.947-.336,1.843,1.843,0,0,0-1.789,1.612,1.513,1.513,0,0,0,.3,1.231,1.255,1.255,0,0,0,1.01.408,1.535,1.535,0,0,0,1.11-.459l-.036.223a.14.14,0,0,0,.138.161h.722a.233.233,0,0,0,.23-.2l.433-2.744A.139.139,0,0,0,464.35,676.477Zm-1.117,1.56a.894.894,0,0,1-.9.765.621.621,0,0,1-.664-.779.9.9,0,0,1,.9-.771.675.675,0,0,1,.534.218A.69.69,0,0,1,463.233,678.038Z" transform="translate(-444.824 -674.929)" fill="#008ad8"/>
          <path id="Path_1660" data-name="Path 1660" d="M366.377,677.372h-.806a.233.233,0,0,0-.192.1l-1.111,1.637-.471-1.573a.233.233,0,0,0-.223-.166h-.792a.14.14,0,0,0-.132.185l.887,2.6-.834,1.177a.14.14,0,0,0,.114.22h.8a.232.232,0,0,0,.191-.1l2.679-3.867A.14.14,0,0,0,366.377,677.372Z" transform="translate(-354.522 -675.824)" fill="#002575"/>
          <path id="Path_1661" data-name="Path 1661" d="M513.288,657.577l-.687,4.371a.14.14,0,0,0,.138.161h.691a.233.233,0,0,0,.23-.2l.677-4.292a.14.14,0,0,0-.138-.161h-.773A.139.139,0,0,0,513.288,657.577Z" transform="translate(-492.817 -657.459)" fill="#008ad8"/>
        </g>
      </g>
    </g>
  </g>
  <g id="Group_2194" data-name="Group 2194" transform="translate(5.372 0)">
    <path id="Path_1662" data-name="Path 1662" d="M337.913,460.809a2.759,2.759,0,0,0-.586-2.481,4.288,4.288,0,0,0-3.293-1.047h-4.317a.618.618,0,0,0-.61.521l-1.8,11.4a.371.371,0,0,0,.366.428h2.665l-.184,1.166a.324.324,0,0,0,.32.375h2.246a.54.54,0,0,0,.534-.456l.022-.114.423-2.683.027-.148a.54.54,0,0,1,.534-.456h.336c2.176,0,3.88-.884,4.378-3.441a2.929,2.929,0,0,0-.45-2.587,2.14,2.14,0,0,0-.615-.474h0" transform="translate(-327.306 -457.28)" fill="#008ad8"/>
    <path id="Path_1663" data-name="Path 1663" d="M337.913,460.809a2.759,2.759,0,0,0-.586-2.481,4.288,4.288,0,0,0-3.293-1.047h-4.317a.618.618,0,0,0-.61.521l-1.8,11.4a.371.371,0,0,0,.366.428h2.665l.669-4.245-.021.133a.615.615,0,0,1,.608-.521h1.267c2.488,0,4.436-1.011,5-3.933.017-.087.031-.17.044-.253" transform="translate(-327.306 -457.28)" fill="#001a57"/>
    <path id="Path_1664" data-name="Path 1664" d="M331.73,460.823a.54.54,0,0,1,.534-.456h3.384a7.047,7.047,0,0,1,1.116.081q.146.024.285.054t.269.069l.128.04a3.062,3.062,0,0,1,.468.2,2.759,2.759,0,0,0-.586-2.481,4.288,4.288,0,0,0-3.293-1.047h-4.317a.618.618,0,0,0-.61.521l-1.8,11.4a.371.371,0,0,0,.366.428h2.665l.669-4.245Z" transform="translate(-327.306 -457.28)" fill="#002575"/>
  </g>
</svg>
