<svg xmlns="http://www.w3.org/2000/svg" width="115" height="115" viewBox="0 0 115 115"><defs><style>.a{fill:#f2f3f6;}.b{fill:#688fe0;stroke:#688fe0;stroke-width:0.4px;}</style></defs><g transform="translate(-0.381 -0.354)"><circle class="a" cx="57.5" cy="57.5" r="57.5" transform="translate(0.381 0.354)"/><g transform="translate(37.776 26.204)"><g transform="translate(0 0)"><path class="b" d="M-3175.077,407.176h-5.346v-4.381h.087a3.073,3.073,0,0,0,3.069-3.069,3.073,3.073,0,0,0-3.069-3.069h-14.728a3.072,3.072,0,0,0-3.069,3.069,3.073,3.073,0,0,0,3.069,3.069h.087v4.381h-5.346a7.3,7.3,0,0,0-7.277,7.278v33.664a7.316,7.316,0,0,0,6.238,7.194l.074.011v1.211a3.073,3.073,0,0,0,3.069,3.069,3.073,3.073,0,0,0,3.069-3.069v-1.139h14.9v1.139a3.073,3.073,0,0,0,3.069,3.069,3.073,3.073,0,0,0,3.069-3.069v-1.211l.074-.011a7.317,7.317,0,0,0,6.238-7.194V414.453A7.3,7.3,0,0,0-3175.077,407.176Zm-19.988-6.312a1.14,1.14,0,0,1-1.138-1.139,1.14,1.14,0,0,1,1.138-1.139h14.728a1.14,1.14,0,0,1,1.139,1.139,1.14,1.14,0,0,1-1.139,1.139Zm12.711,1.931v4.381h-10.693v-4.381Zm-14.728,53.738a1.14,1.14,0,0,1-1.139,1.138,1.14,1.14,0,0,1-1.138-1.138v-1.139h2.277Zm21.04,0a1.14,1.14,0,0,1-1.139,1.138,1.14,1.14,0,0,1-1.139-1.138v-1.139h2.277Zm6.312-8.416a5.362,5.362,0,0,1-5.347,5.347h-25.248a5.362,5.362,0,0,1-5.347-5.347V414.453a5.362,5.362,0,0,1,5.347-5.347h25.248a5.361,5.361,0,0,1,5.347,5.347Z" transform="translate(3207.602 -396.656)"/></g><g transform="translate(4.208 23.144)"><path class="b" d="M-3174.916,490.118a15.711,15.711,0,0,0-15.693,15.693v11.572a4.126,4.126,0,0,0,4.121,4.122h23.144a4.126,4.126,0,0,0,4.122-4.122V505.811A15.711,15.711,0,0,0-3174.916,490.118Zm13.762,27.265a2.193,2.193,0,0,1-2.19,2.191h-23.144a2.193,2.193,0,0,1-2.19-2.191V505.811a13.778,13.778,0,0,1,13.762-13.762,13.778,13.778,0,0,1,13.762,13.762Z" transform="translate(3190.609 -490.118)"/></g><g transform="translate(8.416 27.352)"><path class="b" d="M-3162.131,507.111a11.5,11.5,0,0,0-11.485,11.485.966.966,0,0,0,.965.965.967.967,0,0,0,.966-.965,9.565,9.565,0,0,1,9.554-9.555,9.565,9.565,0,0,1,9.555,9.555.966.966,0,0,0,.965.965.967.967,0,0,0,.966-.965A11.5,11.5,0,0,0-3162.131,507.111Z" transform="translate(3173.616 -507.111)"/></g><g transform="translate(6.312 14.728)"><path class="b" d="M-3181.147,458.062h1.138v2.191a.967.967,0,0,0,.966.965.967.967,0,0,0,.966-.965v-2.191h22.178a.967.967,0,0,0,.966-.965.967.967,0,0,0-.966-.965h-25.248a.967.967,0,0,0-.965.965A.966.966,0,0,0-3181.147,458.062Z" transform="translate(3182.112 -456.131)"/></g></g></g></svg>