<svg xmlns="http://www.w3.org/2000/svg" width="115" height="115"><defs><style>.b{fill:#688fe0;stroke:#688fe0;stroke-width:.4px}</style></defs><g transform="translate(-.381 -.354)"><circle cx="57.5" cy="57.5" r="57.5" transform="translate(.381 .354)" fill="#f2f3f6"/><path class="b" d="M70.301 36.724h-5.346v-4.381h.087a3.073 3.073 0 003.069-3.069 3.073 3.073 0 00-3.069-3.069H50.314a3.072 3.072 0 00-3.069 3.069 3.073 3.073 0 003.069 3.069h.087v4.381h-5.346a7.3 7.3 0 00-7.277 7.278v33.664a7.316 7.316 0 006.238 7.194l.074.011v1.211a3.073 3.073 0 003.069 3.069 3.073 3.073 0 003.069-3.069v-1.139h14.9v1.139a3.073 3.073 0 003.069 3.069 3.073 3.073 0 003.069-3.069v-1.211l.074-.011a7.317 7.317 0 006.238-7.194V44.001a7.3 7.3 0 00-7.277-7.277zm-19.988-6.312a1.14 1.14 0 01-1.138-1.139 1.14 1.14 0 011.138-1.139h14.728a1.14 1.14 0 011.139 1.139 1.14 1.14 0 01-1.139 1.139zm12.711 1.931v4.381H52.331v-4.381zM48.296 86.081a1.14 1.14 0 01-1.139 1.138 1.14 1.14 0 01-1.138-1.138v-1.139h2.277zm21.04 0a1.14 1.14 0 01-1.139 1.138 1.14 1.14 0 01-1.139-1.138v-1.139h2.277zm6.312-8.416a5.362 5.362 0 01-5.347 5.347H45.053a5.362 5.362 0 01-5.347-5.347V44.001a5.362 5.362 0 015.347-5.347h25.248a5.361 5.361 0 015.347 5.347z"/><path class="b" d="M57.677 49.348a15.711 15.711 0 00-15.693 15.693v11.572a4.126 4.126 0 004.121 4.122h23.144a4.126 4.126 0 004.122-4.122V65.041a15.711 15.711 0 00-15.694-15.693zm13.762 27.265a2.193 2.193 0 01-2.19 2.191H46.105a2.193 2.193 0 01-2.19-2.191V65.041a13.778 13.778 0 0113.762-13.762 13.778 13.778 0 0113.762 13.762z"/><path class="b" d="M57.677 53.556a11.5 11.5 0 00-11.485 11.485.966.966 0 00.965.965.967.967 0 00.966-.965 9.565 9.565 0 019.554-9.555 9.565 9.565 0 019.555 9.555.966.966 0 00.965.965.967.967 0 00.966-.965 11.5 11.5 0 00-11.486-11.485zM45.053 42.863h1.138v2.191a.967.967 0 00.966.965.967.967 0 00.966-.965v-2.191h22.178a.967.967 0 00.966-.965.967.967 0 00-.966-.965H45.053a.967.967 0 00-.965.965.966.966 0 00.965.965z"/></g></svg>