<svg id="Visa" xmlns="http://www.w3.org/2000/svg" width="46.12" height="14.962" viewBox="0 0 46.12 14.962">
  <g id="Group_2198" data-name="Group 2198" transform="translate(0 0)">
    <path id="Path_5785" data-name="Path 5785" d="M332.694,68.139h-3.763l2.352-14.455h3.763Z" transform="translate(-312.701 -53.426)" fill="#0055a5"/>
    <path id="Path_5786" data-name="Path 5786" d="M300.019,53.685l-3.588,9.942-.425-2.141h0l-1.266-6.5a1.611,1.611,0,0,0-1.785-1.3h-5.931l-.07.245a14.049,14.049,0,0,1,3.937,1.653l3.27,12.557h3.921l5.987-14.454Z" transform="translate(-286.955 -53.426)" fill="#0055a5"/>
    <path id="Path_5787" data-name="Path 5787" d="M381.542,68.139H385l-3.013-14.454h-3.026a1.729,1.729,0,0,0-1.737,1.077L371.61,68.139h3.922l.785-2.147H381.1ZM377.4,63.026l1.977-5.409,1.112,5.409Z" transform="translate(-338.878 -53.426)" fill="#0055a5"/>
    <path id="Path_5788" data-name="Path 5788" d="M355.374,56.751l.537-3.1a10.863,10.863,0,0,0-3.385-.63c-1.868,0-6.3.817-6.3,4.785,0,3.735,5.205,3.781,5.205,5.742s-4.668,1.61-6.209.373l-.56,3.245a10.544,10.544,0,0,0,4.249.817c2.567,0,6.442-1.33,6.442-4.949,0-3.758-5.252-4.108-5.252-5.742S353.764,55.863,355.374,56.751Z" transform="translate(-322.348 -53.016)" fill="#0055a5"/>
  </g>
  <path id="Path_5789" data-name="Path 5789" d="M296.007,61.486l-1.266-6.5a1.611,1.611,0,0,0-1.785-1.3h-5.931l-.07.245a14.589,14.589,0,0,1,5.586,2.8A11.274,11.274,0,0,1,296.007,61.486Z" transform="translate(-286.955 -53.426)" fill="#fc9220"/>
</svg>
